G75*
%FSLAX44Y44*%
%MOMM*%

G36*
X-21000Y-20500D2*
X-21000Y-24500D1*
X-25000Y-24500D1*
X-25000Y-20500D1*
X-21000Y-20500D1*
G37*

G36*
X-11000Y-15500D2*
X-11000Y-19500D1*
X-15000Y-19500D1*
X-15000Y-15500D1*
X-11000Y-15500D1*
G37*

G36*
X-21000Y-10500D2*
X-21000Y-14500D1*
X-25000Y-14500D1*
X-25000Y-10500D1*
X-21000Y-10500D1*
G37*

G36*
X-11000Y-5500D2*
X-11000Y-9500D1*
X-15000Y-9500D1*
X-15000Y-5500D1*
X-11000Y-5500D1*
G37*

G36*
X-21000Y-500D2*
X-21000Y-4500D1*
X-25000Y-4500D1*
X-25000Y-500D1*
X-21000Y-500D1*
G37*

G36*
X-11000Y4500D2*
X-11000Y500D1*
X-15000Y500D1*
X-15000Y4500D1*
X-11000Y4500D1*
G37*

G36*
X-21000Y9500D2*
X-21000Y5500D1*
X-25000Y5500D1*
X-25000Y9500D1*
X-21000Y9500D1*
G37*

G36*
X-11000Y14500D2*
X-11000Y10500D1*
X-15000Y10500D1*
X-15000Y14500D1*
X-11000Y14500D1*
G37*

G36*
X-21000Y19500D2*
X-21000Y15500D1*
X-25000Y15500D1*
X-25000Y19500D1*
X-21000Y19500D1*
G37*

G36*
X-11000Y24500D2*
X-11000Y20500D1*
X-15000Y20500D1*
X-15000Y24500D1*
X-11000Y24500D1*
G37*

G36*
X15000Y-20500D2*
X15000Y-24500D1*
X11000Y-24500D1*
X11000Y-20500D1*
X15000Y-20500D1*
G37*

G36*
X25000Y-15500D2*
X25000Y-19500D1*
X21000Y-19500D1*
X21000Y-15500D1*
X25000Y-15500D1*
G37*

G36*
X15000Y-10500D2*
X15000Y-14500D1*
X11000Y-14500D1*
X11000Y-10500D1*
X15000Y-10500D1*
G37*

G36*
X25000Y-5500D2*
X25000Y-9500D1*
X21000Y-9500D1*
X21000Y-5500D1*
X25000Y-5500D1*
G37*

G36*
X15000Y-500D2*
X15000Y-4500D1*
X11000Y-4500D1*
X11000Y-500D1*
X15000Y-500D1*
G37*

G36*
X25000Y4500D2*
X25000Y500D1*
X21000Y500D1*
X21000Y4500D1*
X25000Y4500D1*
G37*

G36*
X15000Y9500D2*
X15000Y5500D1*
X11000Y5500D1*
X11000Y9500D1*
X15000Y9500D1*
G37*

G36*
X25000Y14500D2*
X25000Y10500D1*
X21000Y10500D1*
X21000Y14500D1*
X25000Y14500D1*
G37*

G36*
X15000Y19500D2*
X15000Y15500D1*
X11000Y15500D1*
X11000Y19500D1*
X15000Y19500D1*
G37*

G36*
X25000Y24500D2*
X25000Y20500D1*
X21000Y20500D1*
X21000Y24500D1*
X25000Y24500D1*
G37*

G36*
X-50000Y-22000D2*
X-50293Y-21293D1*
X-51000Y-21000D1*
X-69000Y-21000D1*
X-69707Y-21293D1*
X-70000Y-22000D1*
X-70000Y-23000D1*
X-69707Y-23707D1*
X-69000Y-24000D1*
X-51000Y-24000D1*
X-50293Y-23707D1*
X-50000Y-23000D1*
X-50000Y-22000D1*
G37*

G36*
X-50000Y-17000D2*
X-50293Y-16293D1*
X-51000Y-16000D1*
X-69000Y-16000D1*
X-69707Y-16293D1*
X-70000Y-17000D1*
X-70000Y-18000D1*
X-69707Y-18707D1*
X-69000Y-19000D1*
X-51000Y-19000D1*
X-50293Y-18707D1*
X-50000Y-18000D1*
X-50000Y-17000D1*
G37*

G36*
X-50000Y-12000D2*
X-50293Y-11293D1*
X-51000Y-11000D1*
X-69000Y-11000D1*
X-69707Y-11293D1*
X-70000Y-12000D1*
X-70000Y-13000D1*
X-69707Y-13707D1*
X-69000Y-14000D1*
X-51000Y-14000D1*
X-50293Y-13707D1*
X-50000Y-13000D1*
X-50000Y-12000D1*
G37*

G36*
X-50000Y-7000D2*
X-50293Y-6293D1*
X-51000Y-6000D1*
X-69000Y-6000D1*
X-69707Y-6293D1*
X-70000Y-7000D1*
X-70000Y-8000D1*
X-69707Y-8707D1*
X-69000Y-9000D1*
X-51000Y-9000D1*
X-50293Y-8707D1*
X-50000Y-8000D1*
X-50000Y-7000D1*
G37*

G36*
X-50000Y-2000D2*
X-50293Y-1293D1*
X-51000Y-1000D1*
X-69000Y-1000D1*
X-69707Y-1293D1*
X-70000Y-2000D1*
X-70000Y-3000D1*
X-69707Y-3707D1*
X-69000Y-4000D1*
X-51000Y-4000D1*
X-50293Y-3707D1*
X-50000Y-3000D1*
X-50000Y-2000D1*
G37*

G36*
X-50000Y3000D2*
X-50293Y3707D1*
X-51000Y4000D1*
X-69000Y4000D1*
X-69707Y3707D1*
X-70000Y3000D1*
X-70000Y2000D1*
X-69707Y1293D1*
X-69000Y1000D1*
X-51000Y1000D1*
X-50293Y1293D1*
X-50000Y2000D1*
X-50000Y3000D1*
G37*

G36*
X-50000Y8000D2*
X-50293Y8707D1*
X-51000Y9000D1*
X-69000Y9000D1*
X-69707Y8707D1*
X-70000Y8000D1*
X-70000Y7000D1*
X-69707Y6293D1*
X-69000Y6000D1*
X-51000Y6000D1*
X-50293Y6293D1*
X-50000Y7000D1*
X-50000Y8000D1*
G37*

G36*
X-50000Y13000D2*
X-50293Y13707D1*
X-51000Y14000D1*
X-69000Y14000D1*
X-69707Y13707D1*
X-70000Y13000D1*
X-70000Y12000D1*
X-69707Y11293D1*
X-69000Y11000D1*
X-51000Y11000D1*
X-50293Y11293D1*
X-50000Y12000D1*
X-50000Y13000D1*
G37*

G36*
X-50000Y18000D2*
X-50293Y18707D1*
X-51000Y19000D1*
X-69000Y19000D1*
X-69707Y18707D1*
X-70000Y18000D1*
X-70000Y17000D1*
X-69707Y16293D1*
X-69000Y16000D1*
X-51000Y16000D1*
X-50293Y16293D1*
X-50000Y17000D1*
X-50000Y18000D1*
G37*

G36*
X-50000Y23000D2*
X-50293Y23707D1*
X-51000Y24000D1*
X-69000Y24000D1*
X-69707Y23707D1*
X-70000Y23000D1*
X-70000Y22000D1*
X-69707Y21293D1*
X-69000Y21000D1*
X-51000Y21000D1*
X-50293Y21293D1*
X-50000Y22000D1*
X-50000Y23000D1*
G37*

G36*
X70000Y-22000D2*
X69707Y-21293D1*
X69000Y-21000D1*
X51000Y-21000D1*
X50293Y-21293D1*
X50000Y-22000D1*
X50000Y-23000D1*
X50293Y-23707D1*
X51000Y-24000D1*
X69000Y-24000D1*
X69707Y-23707D1*
X70000Y-23000D1*
X70000Y-22000D1*
G37*

G36*
X70000Y-17000D2*
X69707Y-16293D1*
X69000Y-16000D1*
X51000Y-16000D1*
X50293Y-16293D1*
X50000Y-17000D1*
X50000Y-18000D1*
X50293Y-18707D1*
X51000Y-19000D1*
X69000Y-19000D1*
X69707Y-18707D1*
X70000Y-18000D1*
X70000Y-17000D1*
G37*

G36*
X70000Y-12000D2*
X69707Y-11293D1*
X69000Y-11000D1*
X51000Y-11000D1*
X50293Y-11293D1*
X50000Y-12000D1*
X50000Y-13000D1*
X50293Y-13707D1*
X51000Y-14000D1*
X69000Y-14000D1*
X69707Y-13707D1*
X70000Y-13000D1*
X70000Y-12000D1*
G37*

G36*
X70000Y-7000D2*
X69707Y-6293D1*
X69000Y-6000D1*
X51000Y-6000D1*
X50293Y-6293D1*
X50000Y-7000D1*
X50000Y-8000D1*
X50293Y-8707D1*
X51000Y-9000D1*
X69000Y-9000D1*
X69707Y-8707D1*
X70000Y-8000D1*
X70000Y-7000D1*
G37*

G36*
X70000Y-2000D2*
X69707Y-1293D1*
X69000Y-1000D1*
X51000Y-1000D1*
X50293Y-1293D1*
X50000Y-2000D1*
X50000Y-3000D1*
X50293Y-3707D1*
X51000Y-4000D1*
X69000Y-4000D1*
X69707Y-3707D1*
X70000Y-3000D1*
X70000Y-2000D1*
G37*

G36*
X70000Y3000D2*
X69707Y3707D1*
X69000Y4000D1*
X51000Y4000D1*
X50293Y3707D1*
X50000Y3000D1*
X50000Y2000D1*
X50293Y1293D1*
X51000Y1000D1*
X69000Y1000D1*
X69707Y1293D1*
X70000Y2000D1*
X70000Y3000D1*
G37*

G36*
X70000Y8000D2*
X69707Y8707D1*
X69000Y9000D1*
X51000Y9000D1*
X50293Y8707D1*
X50000Y8000D1*
X50000Y7000D1*
X50293Y6293D1*
X51000Y6000D1*
X69000Y6000D1*
X69707Y6293D1*
X70000Y7000D1*
X70000Y8000D1*
G37*

G36*
X70000Y13000D2*
X69707Y13707D1*
X69000Y14000D1*
X51000Y14000D1*
X50293Y13707D1*
X50000Y13000D1*
X50000Y12000D1*
X50293Y11293D1*
X51000Y11000D1*
X69000Y11000D1*
X69707Y11293D1*
X70000Y12000D1*
X70000Y13000D1*
G37*

G36*
X70000Y18000D2*
X69707Y18707D1*
X69000Y19000D1*
X51000Y19000D1*
X50293Y18707D1*
X50000Y18000D1*
X50000Y17000D1*
X50293Y16293D1*
X51000Y16000D1*
X69000Y16000D1*
X69707Y16293D1*
X70000Y17000D1*
X70000Y18000D1*
G37*

G36*
X70000Y23000D2*
X69707Y23707D1*
X69000Y24000D1*
X51000Y24000D1*
X50293Y23707D1*
X50000Y23000D1*
X50000Y22000D1*
X50293Y21293D1*
X51000Y21000D1*
X69000Y21000D1*
X69707Y21293D1*
X70000Y22000D1*
X70000Y23000D1*
G37*

G36*
X-21000Y-21500D2*
X-21293Y-20793D1*
X-22000Y-20500D1*
X-28000Y-20500D1*
X-28707Y-20793D1*
X-29000Y-21500D1*
X-29000Y-23500D1*
X-28707Y-24207D1*
X-28000Y-24500D1*
X-22000Y-24500D1*
X-21293Y-24207D1*
X-21000Y-23500D1*
X-21000Y-21500D1*
G37*

G36*
X-11000Y-16500D2*
X-11293Y-15793D1*
X-12000Y-15500D1*
X-18000Y-15500D1*
X-18707Y-15793D1*
X-19000Y-16500D1*
X-19000Y-18500D1*
X-18707Y-19207D1*
X-18000Y-19500D1*
X-12000Y-19500D1*
X-11293Y-19207D1*
X-11000Y-18500D1*
X-11000Y-16500D1*
G37*

G36*
X-21000Y-11500D2*
X-21293Y-10793D1*
X-22000Y-10500D1*
X-28000Y-10500D1*
X-28707Y-10793D1*
X-29000Y-11500D1*
X-29000Y-13500D1*
X-28707Y-14207D1*
X-28000Y-14500D1*
X-22000Y-14500D1*
X-21293Y-14207D1*
X-21000Y-13500D1*
X-21000Y-11500D1*
G37*

G36*
X-11000Y-6500D2*
X-11293Y-5793D1*
X-12000Y-5500D1*
X-18000Y-5500D1*
X-18707Y-5793D1*
X-19000Y-6500D1*
X-19000Y-8500D1*
X-18707Y-9207D1*
X-18000Y-9500D1*
X-12000Y-9500D1*
X-11293Y-9207D1*
X-11000Y-8500D1*
X-11000Y-6500D1*
G37*

G36*
X-21000Y-1500D2*
X-21293Y-793D1*
X-22000Y-500D1*
X-28000Y-500D1*
X-28707Y-793D1*
X-29000Y-1500D1*
X-29000Y-3500D1*
X-28707Y-4207D1*
X-28000Y-4500D1*
X-22000Y-4500D1*
X-21293Y-4207D1*
X-21000Y-3500D1*
X-21000Y-1500D1*
G37*

G36*
X-11000Y3500D2*
X-11293Y4207D1*
X-12000Y4500D1*
X-18000Y4500D1*
X-18707Y4207D1*
X-19000Y3500D1*
X-19000Y1500D1*
X-18707Y793D1*
X-18000Y500D1*
X-12000Y500D1*
X-11293Y793D1*
X-11000Y1500D1*
X-11000Y3500D1*
G37*

G36*
X-21000Y8500D2*
X-21293Y9207D1*
X-22000Y9500D1*
X-28000Y9500D1*
X-28707Y9207D1*
X-29000Y8500D1*
X-29000Y6500D1*
X-28707Y5793D1*
X-28000Y5500D1*
X-22000Y5500D1*
X-21293Y5793D1*
X-21000Y6500D1*
X-21000Y8500D1*
G37*

G36*
X-11000Y13500D2*
X-11293Y14207D1*
X-12000Y14500D1*
X-18000Y14500D1*
X-18707Y14207D1*
X-19000Y13500D1*
X-19000Y11500D1*
X-18707Y10793D1*
X-18000Y10500D1*
X-12000Y10500D1*
X-11293Y10793D1*
X-11000Y11500D1*
X-11000Y13500D1*
G37*

G36*
X-21000Y18500D2*
X-21293Y19207D1*
X-22000Y19500D1*
X-28000Y19500D1*
X-28707Y19207D1*
X-29000Y18500D1*
X-29000Y16500D1*
X-28707Y15793D1*
X-28000Y15500D1*
X-22000Y15500D1*
X-21293Y15793D1*
X-21000Y16500D1*
X-21000Y18500D1*
G37*

G36*
X-11000Y23500D2*
X-11293Y24207D1*
X-12000Y24500D1*
X-18000Y24500D1*
X-18707Y24207D1*
X-19000Y23500D1*
X-19000Y21500D1*
X-18707Y20793D1*
X-18000Y20500D1*
X-12000Y20500D1*
X-11293Y20793D1*
X-11000Y21500D1*
X-11000Y23500D1*
G37*

G36*
X19000Y-21500D2*
X18707Y-20793D1*
X18000Y-20500D1*
X12000Y-20500D1*
X11293Y-20793D1*
X11000Y-21500D1*
X11000Y-23500D1*
X11293Y-24207D1*
X12000Y-24500D1*
X18000Y-24500D1*
X18707Y-24207D1*
X19000Y-23500D1*
X19000Y-21500D1*
G37*

G36*
X29000Y-16500D2*
X28707Y-15793D1*
X28000Y-15500D1*
X22000Y-15500D1*
X21293Y-15793D1*
X21000Y-16500D1*
X21000Y-18500D1*
X21293Y-19207D1*
X22000Y-19500D1*
X28000Y-19500D1*
X28707Y-19207D1*
X29000Y-18500D1*
X29000Y-16500D1*
G37*

G36*
X19000Y-11500D2*
X18707Y-10793D1*
X18000Y-10500D1*
X12000Y-10500D1*
X11293Y-10793D1*
X11000Y-11500D1*
X11000Y-13500D1*
X11293Y-14207D1*
X12000Y-14500D1*
X18000Y-14500D1*
X18707Y-14207D1*
X19000Y-13500D1*
X19000Y-11500D1*
G37*

G36*
X29000Y-6500D2*
X28707Y-5793D1*
X28000Y-5500D1*
X22000Y-5500D1*
X21293Y-5793D1*
X21000Y-6500D1*
X21000Y-8500D1*
X21293Y-9207D1*
X22000Y-9500D1*
X28000Y-9500D1*
X28707Y-9207D1*
X29000Y-8500D1*
X29000Y-6500D1*
G37*

G36*
X19000Y-1500D2*
X18707Y-793D1*
X18000Y-500D1*
X12000Y-500D1*
X11293Y-793D1*
X11000Y-1500D1*
X11000Y-3500D1*
X11293Y-4207D1*
X12000Y-4500D1*
X18000Y-4500D1*
X18707Y-4207D1*
X19000Y-3500D1*
X19000Y-1500D1*
G37*

G36*
X29000Y3500D2*
X28707Y4207D1*
X28000Y4500D1*
X22000Y4500D1*
X21293Y4207D1*
X21000Y3500D1*
X21000Y1500D1*
X21293Y793D1*
X22000Y500D1*
X28000Y500D1*
X28707Y793D1*
X29000Y1500D1*
X29000Y3500D1*
G37*

G36*
X19000Y8500D2*
X18707Y9207D1*
X18000Y9500D1*
X12000Y9500D1*
X11293Y9207D1*
X11000Y8500D1*
X11000Y6500D1*
X11293Y5793D1*
X12000Y5500D1*
X18000Y5500D1*
X18707Y5793D1*
X19000Y6500D1*
X19000Y8500D1*
G37*

G36*
X29000Y13500D2*
X28707Y14207D1*
X28000Y14500D1*
X22000Y14500D1*
X21293Y14207D1*
X21000Y13500D1*
X21000Y11500D1*
X21293Y10793D1*
X22000Y10500D1*
X28000Y10500D1*
X28707Y10793D1*
X29000Y11500D1*
X29000Y13500D1*
G37*

G36*
X19000Y18500D2*
X18707Y19207D1*
X18000Y19500D1*
X12000Y19500D1*
X11293Y19207D1*
X11000Y18500D1*
X11000Y16500D1*
X11293Y15793D1*
X12000Y15500D1*
X18000Y15500D1*
X18707Y15793D1*
X19000Y16500D1*
X19000Y18500D1*
G37*

G36*
X29000Y23500D2*
X28707Y24207D1*
X28000Y24500D1*
X22000Y24500D1*
X21293Y24207D1*
X21000Y23500D1*
X21000Y21500D1*
X21293Y20793D1*
X22000Y20500D1*
X28000Y20500D1*
X28707Y20793D1*
X29000Y21500D1*
X29000Y23500D1*
G37*

M02*
