G75*
%FSLAX44Y44*%
%MOMM*%

G36*
X-20500Y-20000D2*
X-20500Y-25000D1*
X-25500Y-25000D1*
X-25500Y-20000D1*
X-20500Y-20000D1*
G37*

G36*
X-10500Y-15000D2*
X-10500Y-20000D1*
X-15500Y-20000D1*
X-15500Y-15000D1*
X-10500Y-15000D1*
G37*

G36*
X-20500Y-10000D2*
X-20500Y-15000D1*
X-25500Y-15000D1*
X-25500Y-10000D1*
X-20500Y-10000D1*
G37*

G36*
X-10500Y-5000D2*
X-10500Y-10000D1*
X-15500Y-10000D1*
X-15500Y-5000D1*
X-10500Y-5000D1*
G37*

G36*
X-20500Y0D2*
X-20500Y-5000D1*
X-25500Y-5000D1*
X-25500Y0D1*
X-20500Y0D1*
G37*

G36*
X-10500Y5000D2*
X-10500Y0D1*
X-15500Y0D1*
X-15500Y5000D1*
X-10500Y5000D1*
G37*

G36*
X-20500Y10000D2*
X-20500Y5000D1*
X-25500Y5000D1*
X-25500Y10000D1*
X-20500Y10000D1*
G37*

G36*
X-10500Y15000D2*
X-10500Y10000D1*
X-15500Y10000D1*
X-15500Y15000D1*
X-10500Y15000D1*
G37*

G36*
X-20500Y20000D2*
X-20500Y15000D1*
X-25500Y15000D1*
X-25500Y20000D1*
X-20500Y20000D1*
G37*

G36*
X-10500Y25000D2*
X-10500Y20000D1*
X-15500Y20000D1*
X-15500Y25000D1*
X-10500Y25000D1*
G37*

G36*
X15500Y-20000D2*
X15500Y-25000D1*
X10500Y-25000D1*
X10500Y-20000D1*
X15500Y-20000D1*
G37*

G36*
X25500Y-15000D2*
X25500Y-20000D1*
X20500Y-20000D1*
X20500Y-15000D1*
X25500Y-15000D1*
G37*

G36*
X15500Y-10000D2*
X15500Y-15000D1*
X10500Y-15000D1*
X10500Y-10000D1*
X15500Y-10000D1*
G37*

G36*
X25500Y-5000D2*
X25500Y-10000D1*
X20500Y-10000D1*
X20500Y-5000D1*
X25500Y-5000D1*
G37*

G36*
X15500Y0D2*
X15500Y-5000D1*
X10500Y-5000D1*
X10500Y0D1*
X15500Y0D1*
G37*

G36*
X25500Y5000D2*
X25500Y0D1*
X20500Y0D1*
X20500Y5000D1*
X25500Y5000D1*
G37*

G36*
X15500Y10000D2*
X15500Y5000D1*
X10500Y5000D1*
X10500Y10000D1*
X15500Y10000D1*
G37*

G36*
X25500Y15000D2*
X25500Y10000D1*
X20500Y10000D1*
X20500Y15000D1*
X25500Y15000D1*
G37*

G36*
X15500Y20000D2*
X15500Y15000D1*
X10500Y15000D1*
X10500Y20000D1*
X15500Y20000D1*
G37*

G36*
X25500Y25000D2*
X25500Y20000D1*
X20500Y20000D1*
X20500Y25000D1*
X25500Y25000D1*
G37*

M02*
