G75*
%FSLAX44Y44*%
%MOMM*%

G36*
X-79900Y-55000D2*
X-80083Y-53186D1*
X-80607Y-51497D1*
X-81437Y-49968D1*
X-82536Y-48636D1*
X-83868Y-47537D1*
X-85397Y-46707D1*
X-87086Y-46183D1*
X-88900Y-46000D1*
X-90714Y-46183D1*
X-92403Y-46707D1*
X-93932Y-47537D1*
X-95264Y-48636D1*
X-96363Y-49968D1*
X-97193Y-51497D1*
X-97717Y-53186D1*
X-97900Y-55000D1*
X-97717Y-56814D1*
X-97193Y-58503D1*
X-96363Y-60032D1*
X-95264Y-61364D1*
X-93932Y-62463D1*
X-92403Y-63293D1*
X-90714Y-63817D1*
X-88900Y-64000D1*
X-87086Y-63817D1*
X-85397Y-63293D1*
X-83868Y-62463D1*
X-82536Y-61364D1*
X-81437Y-60032D1*
X-80607Y-58503D1*
X-80083Y-56814D1*
X-79900Y-55000D1*
G37*

G36*
X-54500Y-55000D2*
X-54683Y-53186D1*
X-55207Y-51497D1*
X-56037Y-49968D1*
X-57136Y-48636D1*
X-58468Y-47537D1*
X-59997Y-46707D1*
X-61686Y-46183D1*
X-63500Y-46000D1*
X-65314Y-46183D1*
X-67003Y-46707D1*
X-68532Y-47537D1*
X-69864Y-48636D1*
X-70963Y-49968D1*
X-71793Y-51497D1*
X-72317Y-53186D1*
X-72500Y-55000D1*
X-72317Y-56814D1*
X-71793Y-58503D1*
X-70963Y-60032D1*
X-69864Y-61364D1*
X-68532Y-62463D1*
X-67003Y-63293D1*
X-65314Y-63817D1*
X-63500Y-64000D1*
X-61686Y-63817D1*
X-59997Y-63293D1*
X-58468Y-62463D1*
X-57136Y-61364D1*
X-56037Y-60032D1*
X-55207Y-58503D1*
X-54683Y-56814D1*
X-54500Y-55000D1*
G37*

G36*
X-29100Y-55000D2*
X-29283Y-53186D1*
X-29807Y-51497D1*
X-30637Y-49968D1*
X-31736Y-48636D1*
X-33068Y-47537D1*
X-34597Y-46707D1*
X-36286Y-46183D1*
X-38100Y-46000D1*
X-39914Y-46183D1*
X-41603Y-46707D1*
X-43132Y-47537D1*
X-44464Y-48636D1*
X-45563Y-49968D1*
X-46393Y-51497D1*
X-46917Y-53186D1*
X-47100Y-55000D1*
X-46917Y-56814D1*
X-46393Y-58503D1*
X-45563Y-60032D1*
X-44464Y-61364D1*
X-43132Y-62463D1*
X-41603Y-63293D1*
X-39914Y-63817D1*
X-38100Y-64000D1*
X-36286Y-63817D1*
X-34597Y-63293D1*
X-33068Y-62463D1*
X-31736Y-61364D1*
X-30637Y-60032D1*
X-29807Y-58503D1*
X-29283Y-56814D1*
X-29100Y-55000D1*
G37*

G36*
X-3700Y-55000D2*
X-3883Y-53186D1*
X-4407Y-51497D1*
X-5237Y-49968D1*
X-6336Y-48636D1*
X-7668Y-47537D1*
X-9197Y-46707D1*
X-10886Y-46183D1*
X-12700Y-46000D1*
X-14514Y-46183D1*
X-16203Y-46707D1*
X-17732Y-47537D1*
X-19064Y-48636D1*
X-20163Y-49968D1*
X-20993Y-51497D1*
X-21517Y-53186D1*
X-21700Y-55000D1*
X-21517Y-56814D1*
X-20993Y-58503D1*
X-20163Y-60032D1*
X-19064Y-61364D1*
X-17732Y-62463D1*
X-16203Y-63293D1*
X-14514Y-63817D1*
X-12700Y-64000D1*
X-10886Y-63817D1*
X-9197Y-63293D1*
X-7668Y-62463D1*
X-6336Y-61364D1*
X-5237Y-60032D1*
X-4407Y-58503D1*
X-3883Y-56814D1*
X-3700Y-55000D1*
G37*

G36*
X21700Y-55000D2*
X21517Y-53186D1*
X20993Y-51497D1*
X20163Y-49968D1*
X19064Y-48636D1*
X17732Y-47537D1*
X16203Y-46707D1*
X14514Y-46183D1*
X12700Y-46000D1*
X10886Y-46183D1*
X9197Y-46707D1*
X7668Y-47537D1*
X6336Y-48636D1*
X5237Y-49968D1*
X4407Y-51497D1*
X3883Y-53186D1*
X3700Y-55000D1*
X3883Y-56814D1*
X4407Y-58503D1*
X5237Y-60032D1*
X6336Y-61364D1*
X7668Y-62463D1*
X9197Y-63293D1*
X10886Y-63817D1*
X12700Y-64000D1*
X14514Y-63817D1*
X16203Y-63293D1*
X17732Y-62463D1*
X19064Y-61364D1*
X20163Y-60032D1*
X20993Y-58503D1*
X21517Y-56814D1*
X21700Y-55000D1*
G37*

G36*
X47100Y-55000D2*
X46917Y-53186D1*
X46393Y-51497D1*
X45563Y-49968D1*
X44464Y-48636D1*
X43132Y-47537D1*
X41603Y-46707D1*
X39914Y-46183D1*
X38100Y-46000D1*
X36286Y-46183D1*
X34597Y-46707D1*
X33068Y-47537D1*
X31736Y-48636D1*
X30637Y-49968D1*
X29807Y-51497D1*
X29283Y-53186D1*
X29100Y-55000D1*
X29283Y-56814D1*
X29807Y-58503D1*
X30637Y-60032D1*
X31736Y-61364D1*
X33068Y-62463D1*
X34597Y-63293D1*
X36286Y-63817D1*
X38100Y-64000D1*
X39914Y-63817D1*
X41603Y-63293D1*
X43132Y-62463D1*
X44464Y-61364D1*
X45563Y-60032D1*
X46393Y-58503D1*
X46917Y-56814D1*
X47100Y-55000D1*
G37*

G36*
X72500Y-55000D2*
X72317Y-53186D1*
X71793Y-51497D1*
X70963Y-49968D1*
X69864Y-48636D1*
X68532Y-47537D1*
X67003Y-46707D1*
X65314Y-46183D1*
X63500Y-46000D1*
X61686Y-46183D1*
X59997Y-46707D1*
X58468Y-47537D1*
X57136Y-48636D1*
X56037Y-49968D1*
X55207Y-51497D1*
X54683Y-53186D1*
X54500Y-55000D1*
X54683Y-56814D1*
X55207Y-58503D1*
X56037Y-60032D1*
X57136Y-61364D1*
X58468Y-62463D1*
X59997Y-63293D1*
X61686Y-63817D1*
X63500Y-64000D1*
X65314Y-63817D1*
X67003Y-63293D1*
X68532Y-62463D1*
X69864Y-61364D1*
X70963Y-60032D1*
X71793Y-58503D1*
X72317Y-56814D1*
X72500Y-55000D1*
G37*

G36*
X97900Y-55000D2*
X97717Y-53186D1*
X97193Y-51497D1*
X96363Y-49968D1*
X95264Y-48636D1*
X93932Y-47537D1*
X92403Y-46707D1*
X90714Y-46183D1*
X88900Y-46000D1*
X87086Y-46183D1*
X85397Y-46707D1*
X83868Y-47537D1*
X82536Y-48636D1*
X81437Y-49968D1*
X80607Y-51497D1*
X80083Y-53186D1*
X79900Y-55000D1*
X80083Y-56814D1*
X80607Y-58503D1*
X81437Y-60032D1*
X82536Y-61364D1*
X83868Y-62463D1*
X85397Y-63293D1*
X87086Y-63817D1*
X88900Y-64000D1*
X90714Y-63817D1*
X92403Y-63293D1*
X93932Y-62463D1*
X95264Y-61364D1*
X96363Y-60032D1*
X97193Y-58503D1*
X97717Y-56814D1*
X97900Y-55000D1*
G37*

G36*
X-62500Y50000D2*
X-62500Y5000D1*
X-87500Y5000D1*
X-87500Y50000D1*
X-62500Y50000D1*
G37*

G36*
X87500Y50000D2*
X87500Y5000D1*
X62500Y5000D1*
X62500Y50000D1*
X87500Y50000D1*
G37*

G36*
X25000Y27500D2*
X24871Y30056D1*
X24492Y32538D1*
X23876Y34934D1*
X23035Y37231D1*
X21983Y39416D1*
X20730Y41478D1*
X19291Y43402D1*
X17678Y45178D1*
X15902Y46791D1*
X13978Y48230D1*
X11916Y49483D1*
X9731Y50535D1*
X7434Y51376D1*
X5038Y51992D1*
X2556Y52371D1*
X0Y52500D1*
X-2556Y52371D1*
X-5038Y51992D1*
X-7434Y51376D1*
X-9731Y50535D1*
X-11916Y49483D1*
X-13978Y48230D1*
X-15902Y46791D1*
X-17678Y45178D1*
X-19291Y43402D1*
X-20730Y41478D1*
X-21983Y39416D1*
X-23035Y37231D1*
X-23876Y34934D1*
X-24492Y32538D1*
X-24871Y30056D1*
X-25000Y27500D1*
X-24871Y24944D1*
X-24492Y22462D1*
X-23876Y20066D1*
X-23035Y17769D1*
X-21983Y15584D1*
X-20730Y13522D1*
X-19291Y11598D1*
X-17678Y9822D1*
X-15902Y8209D1*
X-13978Y6770D1*
X-11916Y5517D1*
X-9731Y4465D1*
X-7434Y3624D1*
X-5038Y3008D1*
X-2556Y2629D1*
X0Y2500D1*
X2556Y2629D1*
X5038Y3008D1*
X7434Y3624D1*
X9731Y4465D1*
X11916Y5517D1*
X13978Y6770D1*
X15902Y8209D1*
X17678Y9822D1*
X19291Y11598D1*
X20730Y13522D1*
X21983Y15584D1*
X23035Y17769D1*
X23876Y20066D1*
X24492Y22462D1*
X24871Y24944D1*
X25000Y27500D1*
G37*

G36*
X-70563Y-27016D2*
X-69506Y-29282D1*
X-67537Y-28144D1*
X-65808Y-26692D1*
X-64356Y-24963D1*
X-63218Y-22994D1*
X-65484Y-21937D1*
X-66403Y-23528D1*
X-67575Y-24925D1*
X-68972Y-26097D1*
X-70563Y-27016D1*
G37*

G36*
X-64540Y-18415D2*
X-62049Y-18633D1*
X-62050Y-16358D1*
X-62443Y-14135D1*
X-63214Y-12014D1*
X-64351Y-10044D1*
X-66399Y-11477D1*
X-65481Y-13069D1*
X-64858Y-14782D1*
X-64541Y-16578D1*
X-64540Y-18415D1*
G37*

G36*
X-68977Y-8899D2*
X-67544Y-6851D1*
X-69514Y-5714D1*
X-71635Y-4943D1*
X-73858Y-4550D1*
X-76133Y-4549D1*
X-75915Y-7040D1*
X-74078Y-7041D1*
X-72282Y-7358D1*
X-70569Y-7981D1*
X-68977Y-8899D1*
G37*

G36*
X-79437Y-7984D2*
X-80494Y-5718D1*
X-82463Y-6856D1*
X-84192Y-8308D1*
X-85644Y-10037D1*
X-86782Y-12006D1*
X-84516Y-13063D1*
X-83597Y-11472D1*
X-82425Y-10075D1*
X-81028Y-8903D1*
X-79437Y-7984D1*
G37*

G36*
X-85460Y-16585D2*
X-87951Y-16367D1*
X-87950Y-18642D1*
X-87557Y-20865D1*
X-86786Y-22986D1*
X-85649Y-24956D1*
X-83601Y-23523D1*
X-84519Y-21931D1*
X-85142Y-20218D1*
X-85459Y-18422D1*
X-85460Y-16585D1*
G37*

G36*
X-81023Y-26101D2*
X-82456Y-28149D1*
X-80486Y-29286D1*
X-78365Y-30057D1*
X-76142Y-30450D1*
X-73867Y-30451D1*
X-74085Y-27960D1*
X-75922Y-27959D1*
X-77718Y-27642D1*
X-79431Y-27019D1*
X-81023Y-26101D1*
G37*

G36*
X84516Y-13063D2*
X86782Y-12006D1*
X85644Y-10037D1*
X84192Y-8308D1*
X82463Y-6856D1*
X80494Y-5718D1*
X79437Y-7984D1*
X81028Y-8903D1*
X82425Y-10075D1*
X83597Y-11472D1*
X84516Y-13063D1*
G37*

G36*
X75915Y-7040D2*
X76133Y-4549D1*
X73858Y-4550D1*
X71635Y-4943D1*
X69514Y-5714D1*
X67544Y-6851D1*
X68977Y-8899D1*
X70569Y-7981D1*
X72282Y-7358D1*
X74078Y-7041D1*
X75915Y-7040D1*
G37*

G36*
X66399Y-11477D2*
X64351Y-10044D1*
X63214Y-12014D1*
X62443Y-14135D1*
X62050Y-16358D1*
X62049Y-18633D1*
X64540Y-18415D1*
X64541Y-16578D1*
X64858Y-14782D1*
X65481Y-13069D1*
X66399Y-11477D1*
G37*

G36*
X65484Y-21937D2*
X63218Y-22994D1*
X64356Y-24963D1*
X65808Y-26692D1*
X67537Y-28144D1*
X69506Y-29282D1*
X70563Y-27016D1*
X68972Y-26097D1*
X67575Y-24925D1*
X66403Y-23528D1*
X65484Y-21937D1*
G37*

G36*
X74085Y-27960D2*
X73867Y-30451D1*
X76142Y-30450D1*
X78365Y-30057D1*
X80486Y-29286D1*
X82456Y-28149D1*
X81023Y-26101D1*
X79431Y-27019D1*
X77718Y-27642D1*
X75922Y-27959D1*
X74085Y-27960D1*
G37*

G36*
X83601Y-23523D2*
X85649Y-24956D1*
X86786Y-22986D1*
X87557Y-20865D1*
X87950Y-18642D1*
X87951Y-16367D1*
X85460Y-16585D1*
X85459Y-18422D1*
X85142Y-20218D1*
X84519Y-21931D1*
X83601Y-23523D1*
G37*

M02*
