G75*
%FSLAX44Y44*%
%MOMM*%

G36*
X-79900Y25000D2*
X-80083Y26814D1*
X-80607Y28503D1*
X-81437Y30032D1*
X-82536Y31364D1*
X-83868Y32463D1*
X-85397Y33293D1*
X-87086Y33817D1*
X-88900Y34000D1*
X-90714Y33817D1*
X-92403Y33293D1*
X-93932Y32463D1*
X-95264Y31364D1*
X-96363Y30032D1*
X-97193Y28503D1*
X-97717Y26814D1*
X-97900Y25000D1*
X-97717Y23186D1*
X-97193Y21497D1*
X-96363Y19968D1*
X-95264Y18636D1*
X-93932Y17537D1*
X-92403Y16707D1*
X-90714Y16183D1*
X-88900Y16000D1*
X-87086Y16183D1*
X-85397Y16707D1*
X-83868Y17537D1*
X-82536Y18636D1*
X-81437Y19968D1*
X-80607Y21497D1*
X-80083Y23186D1*
X-79900Y25000D1*
G37*

G36*
X-54500Y25000D2*
X-54683Y26814D1*
X-55207Y28503D1*
X-56037Y30032D1*
X-57136Y31364D1*
X-58468Y32463D1*
X-59997Y33293D1*
X-61686Y33817D1*
X-63500Y34000D1*
X-65314Y33817D1*
X-67003Y33293D1*
X-68532Y32463D1*
X-69864Y31364D1*
X-70963Y30032D1*
X-71793Y28503D1*
X-72317Y26814D1*
X-72500Y25000D1*
X-72317Y23186D1*
X-71793Y21497D1*
X-70963Y19968D1*
X-69864Y18636D1*
X-68532Y17537D1*
X-67003Y16707D1*
X-65314Y16183D1*
X-63500Y16000D1*
X-61686Y16183D1*
X-59997Y16707D1*
X-58468Y17537D1*
X-57136Y18636D1*
X-56037Y19968D1*
X-55207Y21497D1*
X-54683Y23186D1*
X-54500Y25000D1*
G37*

G36*
X-29100Y25000D2*
X-29283Y26814D1*
X-29807Y28503D1*
X-30637Y30032D1*
X-31736Y31364D1*
X-33068Y32463D1*
X-34597Y33293D1*
X-36286Y33817D1*
X-38100Y34000D1*
X-39914Y33817D1*
X-41603Y33293D1*
X-43132Y32463D1*
X-44464Y31364D1*
X-45563Y30032D1*
X-46393Y28503D1*
X-46917Y26814D1*
X-47100Y25000D1*
X-46917Y23186D1*
X-46393Y21497D1*
X-45563Y19968D1*
X-44464Y18636D1*
X-43132Y17537D1*
X-41603Y16707D1*
X-39914Y16183D1*
X-38100Y16000D1*
X-36286Y16183D1*
X-34597Y16707D1*
X-33068Y17537D1*
X-31736Y18636D1*
X-30637Y19968D1*
X-29807Y21497D1*
X-29283Y23186D1*
X-29100Y25000D1*
G37*

G36*
X-3700Y25000D2*
X-3883Y26814D1*
X-4407Y28503D1*
X-5237Y30032D1*
X-6336Y31364D1*
X-7668Y32463D1*
X-9197Y33293D1*
X-10886Y33817D1*
X-12700Y34000D1*
X-14514Y33817D1*
X-16203Y33293D1*
X-17732Y32463D1*
X-19064Y31364D1*
X-20163Y30032D1*
X-20993Y28503D1*
X-21517Y26814D1*
X-21700Y25000D1*
X-21517Y23186D1*
X-20993Y21497D1*
X-20163Y19968D1*
X-19064Y18636D1*
X-17732Y17537D1*
X-16203Y16707D1*
X-14514Y16183D1*
X-12700Y16000D1*
X-10886Y16183D1*
X-9197Y16707D1*
X-7668Y17537D1*
X-6336Y18636D1*
X-5237Y19968D1*
X-4407Y21497D1*
X-3883Y23186D1*
X-3700Y25000D1*
G37*

G36*
X21700Y25000D2*
X21517Y26814D1*
X20993Y28503D1*
X20163Y30032D1*
X19064Y31364D1*
X17732Y32463D1*
X16203Y33293D1*
X14514Y33817D1*
X12700Y34000D1*
X10886Y33817D1*
X9197Y33293D1*
X7668Y32463D1*
X6336Y31364D1*
X5237Y30032D1*
X4407Y28503D1*
X3883Y26814D1*
X3700Y25000D1*
X3883Y23186D1*
X4407Y21497D1*
X5237Y19968D1*
X6336Y18636D1*
X7668Y17537D1*
X9197Y16707D1*
X10886Y16183D1*
X12700Y16000D1*
X14514Y16183D1*
X16203Y16707D1*
X17732Y17537D1*
X19064Y18636D1*
X20163Y19968D1*
X20993Y21497D1*
X21517Y23186D1*
X21700Y25000D1*
G37*

G36*
X47100Y25000D2*
X46917Y26814D1*
X46393Y28503D1*
X45563Y30032D1*
X44464Y31364D1*
X43132Y32463D1*
X41603Y33293D1*
X39914Y33817D1*
X38100Y34000D1*
X36286Y33817D1*
X34597Y33293D1*
X33068Y32463D1*
X31736Y31364D1*
X30637Y30032D1*
X29807Y28503D1*
X29283Y26814D1*
X29100Y25000D1*
X29283Y23186D1*
X29807Y21497D1*
X30637Y19968D1*
X31736Y18636D1*
X33068Y17537D1*
X34597Y16707D1*
X36286Y16183D1*
X38100Y16000D1*
X39914Y16183D1*
X41603Y16707D1*
X43132Y17537D1*
X44464Y18636D1*
X45563Y19968D1*
X46393Y21497D1*
X46917Y23186D1*
X47100Y25000D1*
G37*

G36*
X72500Y25000D2*
X72317Y26814D1*
X71793Y28503D1*
X70963Y30032D1*
X69864Y31364D1*
X68532Y32463D1*
X67003Y33293D1*
X65314Y33817D1*
X63500Y34000D1*
X61686Y33817D1*
X59997Y33293D1*
X58468Y32463D1*
X57136Y31364D1*
X56037Y30032D1*
X55207Y28503D1*
X54683Y26814D1*
X54500Y25000D1*
X54683Y23186D1*
X55207Y21497D1*
X56037Y19968D1*
X57136Y18636D1*
X58468Y17537D1*
X59997Y16707D1*
X61686Y16183D1*
X63500Y16000D1*
X65314Y16183D1*
X67003Y16707D1*
X68532Y17537D1*
X69864Y18636D1*
X70963Y19968D1*
X71793Y21497D1*
X72317Y23186D1*
X72500Y25000D1*
G37*

G36*
X97900Y25000D2*
X97717Y26814D1*
X97193Y28503D1*
X96363Y30032D1*
X95264Y31364D1*
X93932Y32463D1*
X92403Y33293D1*
X90714Y33817D1*
X88900Y34000D1*
X87086Y33817D1*
X85397Y33293D1*
X83868Y32463D1*
X82536Y31364D1*
X81437Y30032D1*
X80607Y28503D1*
X80083Y26814D1*
X79900Y25000D1*
X80083Y23186D1*
X80607Y21497D1*
X81437Y19968D1*
X82536Y18636D1*
X83868Y17537D1*
X85397Y16707D1*
X87086Y16183D1*
X88900Y16000D1*
X90714Y16183D1*
X92403Y16707D1*
X93932Y17537D1*
X95264Y18636D1*
X96363Y19968D1*
X97193Y21497D1*
X97717Y23186D1*
X97900Y25000D1*
G37*

G36*
X-62500Y130000D2*
X-62500Y85000D1*
X-87500Y85000D1*
X-87500Y130000D1*
X-62500Y130000D1*
G37*

G36*
X87500Y130000D2*
X87500Y85000D1*
X62500Y85000D1*
X62500Y130000D1*
X87500Y130000D1*
G37*

G36*
X25000Y107500D2*
X24871Y110056D1*
X24492Y112538D1*
X23876Y114934D1*
X23035Y117231D1*
X21983Y119416D1*
X20730Y121478D1*
X19291Y123402D1*
X17678Y125178D1*
X15902Y126791D1*
X13978Y128230D1*
X11916Y129483D1*
X9731Y130535D1*
X7434Y131376D1*
X5038Y131992D1*
X2556Y132371D1*
X0Y132500D1*
X-2556Y132371D1*
X-5038Y131992D1*
X-7434Y131376D1*
X-9731Y130535D1*
X-11916Y129483D1*
X-13978Y128230D1*
X-15902Y126791D1*
X-17678Y125178D1*
X-19291Y123402D1*
X-20730Y121478D1*
X-21983Y119416D1*
X-23035Y117231D1*
X-23876Y114934D1*
X-24492Y112538D1*
X-24871Y110056D1*
X-25000Y107500D1*
X-24871Y104944D1*
X-24492Y102462D1*
X-23876Y100066D1*
X-23035Y97769D1*
X-21983Y95584D1*
X-20730Y93522D1*
X-19291Y91598D1*
X-17678Y89822D1*
X-15902Y88209D1*
X-13978Y86770D1*
X-11916Y85517D1*
X-9731Y84465D1*
X-7434Y83624D1*
X-5038Y83008D1*
X-2556Y82629D1*
X0Y82500D1*
X2556Y82629D1*
X5038Y83008D1*
X7434Y83624D1*
X9731Y84465D1*
X11916Y85517D1*
X13978Y86770D1*
X15902Y88209D1*
X17678Y89822D1*
X19291Y91598D1*
X20730Y93522D1*
X21983Y95584D1*
X23035Y97769D1*
X23876Y100066D1*
X24492Y102462D1*
X24871Y104944D1*
X25000Y107500D1*
G37*

G36*
X-70563Y52984D2*
X-69506Y50718D1*
X-67537Y51856D1*
X-65808Y53308D1*
X-64356Y55037D1*
X-63218Y57006D1*
X-65484Y58063D1*
X-66403Y56472D1*
X-67575Y55075D1*
X-68972Y53903D1*
X-70563Y52984D1*
G37*

G36*
X-64540Y61585D2*
X-62049Y61367D1*
X-62050Y63642D1*
X-62443Y65865D1*
X-63214Y67986D1*
X-64351Y69956D1*
X-66399Y68523D1*
X-65481Y66931D1*
X-64858Y65218D1*
X-64541Y63422D1*
X-64540Y61585D1*
G37*

G36*
X-68977Y71101D2*
X-67544Y73149D1*
X-69514Y74286D1*
X-71635Y75057D1*
X-73858Y75450D1*
X-76133Y75451D1*
X-75915Y72960D1*
X-74078Y72959D1*
X-72282Y72642D1*
X-70569Y72019D1*
X-68977Y71101D1*
G37*

G36*
X-79437Y72016D2*
X-80494Y74282D1*
X-82463Y73144D1*
X-84192Y71692D1*
X-85644Y69963D1*
X-86782Y67994D1*
X-84516Y66937D1*
X-83597Y68528D1*
X-82425Y69925D1*
X-81028Y71097D1*
X-79437Y72016D1*
G37*

G36*
X-85460Y63415D2*
X-87951Y63633D1*
X-87950Y61358D1*
X-87557Y59135D1*
X-86786Y57014D1*
X-85649Y55044D1*
X-83601Y56477D1*
X-84519Y58069D1*
X-85142Y59782D1*
X-85459Y61578D1*
X-85460Y63415D1*
G37*

G36*
X-81023Y53899D2*
X-82456Y51851D1*
X-80486Y50714D1*
X-78365Y49943D1*
X-76142Y49550D1*
X-73867Y49549D1*
X-74085Y52040D1*
X-75922Y52041D1*
X-77718Y52358D1*
X-79431Y52981D1*
X-81023Y53899D1*
G37*

G36*
X84516Y66937D2*
X86782Y67994D1*
X85644Y69963D1*
X84192Y71692D1*
X82463Y73144D1*
X80494Y74282D1*
X79437Y72016D1*
X81028Y71097D1*
X82425Y69925D1*
X83597Y68528D1*
X84516Y66937D1*
G37*

G36*
X75915Y72960D2*
X76133Y75451D1*
X73858Y75450D1*
X71635Y75057D1*
X69514Y74286D1*
X67544Y73149D1*
X68977Y71101D1*
X70569Y72019D1*
X72282Y72642D1*
X74078Y72959D1*
X75915Y72960D1*
G37*

G36*
X66399Y68523D2*
X64351Y69956D1*
X63214Y67986D1*
X62443Y65865D1*
X62050Y63642D1*
X62049Y61367D1*
X64540Y61585D1*
X64541Y63422D1*
X64858Y65218D1*
X65481Y66931D1*
X66399Y68523D1*
G37*

G36*
X65484Y58063D2*
X63218Y57006D1*
X64356Y55037D1*
X65808Y53308D1*
X67537Y51856D1*
X69506Y50718D1*
X70563Y52984D1*
X68972Y53903D1*
X67575Y55075D1*
X66403Y56472D1*
X65484Y58063D1*
G37*

G36*
X74085Y52040D2*
X73867Y49549D1*
X76142Y49550D1*
X78365Y49943D1*
X80486Y50714D1*
X82456Y51851D1*
X81023Y53899D1*
X79431Y52981D1*
X77718Y52358D1*
X75922Y52041D1*
X74085Y52040D1*
G37*

G36*
X83601Y56477D2*
X85649Y55044D1*
X86786Y57014D1*
X87557Y59135D1*
X87950Y61358D1*
X87951Y63633D1*
X85460Y63415D1*
X85459Y61578D1*
X85142Y59782D1*
X84519Y58069D1*
X83601Y56477D1*
G37*

G36*
X-16000Y-26000D2*
X-34000Y-26000D1*
X-34000Y-12500D1*
X-16000Y-12500D1*
X-16000Y-26000D1*
G37*

G36*
X-16000Y-67500D2*
X-34000Y-67500D1*
X-34000Y-54000D1*
X-16000Y-54000D1*
X-16000Y-67500D1*
G37*

G36*
X-87500Y-36300D2*
X-85686Y-36117D1*
X-83997Y-35593D1*
X-82468Y-34763D1*
X-81136Y-33664D1*
X-80037Y-32332D1*
X-79207Y-30803D1*
X-78683Y-29114D1*
X-78500Y-27300D1*
X-78683Y-25486D1*
X-79207Y-23797D1*
X-80037Y-22268D1*
X-81136Y-20936D1*
X-82468Y-19837D1*
X-83997Y-19007D1*
X-85686Y-18483D1*
X-87500Y-18300D1*
X-89314Y-18483D1*
X-91003Y-19007D1*
X-92532Y-19837D1*
X-93864Y-20936D1*
X-94963Y-22268D1*
X-95793Y-23797D1*
X-96317Y-25486D1*
X-96500Y-27300D1*
X-96317Y-29114D1*
X-95793Y-30803D1*
X-94963Y-32332D1*
X-93864Y-33664D1*
X-92532Y-34763D1*
X-91003Y-35593D1*
X-89314Y-36117D1*
X-87500Y-36300D1*
G37*

G36*
X-87500Y-61700D2*
X-85686Y-61517D1*
X-83997Y-60993D1*
X-82468Y-60163D1*
X-81136Y-59064D1*
X-80037Y-57732D1*
X-79207Y-56203D1*
X-78683Y-54514D1*
X-78500Y-52700D1*
X-78683Y-50886D1*
X-79207Y-49197D1*
X-80037Y-47668D1*
X-81136Y-46336D1*
X-82468Y-45237D1*
X-83997Y-44407D1*
X-85686Y-43883D1*
X-87500Y-43700D1*
X-89314Y-43883D1*
X-91003Y-44407D1*
X-92532Y-45237D1*
X-93864Y-46336D1*
X-94963Y-47668D1*
X-95793Y-49197D1*
X-96317Y-50886D1*
X-96500Y-52700D1*
X-96317Y-54514D1*
X-95793Y-56203D1*
X-94963Y-57732D1*
X-93864Y-59064D1*
X-92532Y-60163D1*
X-91003Y-60993D1*
X-89314Y-61517D1*
X-87500Y-61700D1*
G37*

G36*
X-47633Y-43591D2*
X-45284Y-44446D1*
X-44696Y-42249D1*
X-44500Y-40000D1*
X-44696Y-37751D1*
X-45284Y-35554D1*
X-47633Y-36409D1*
X-47158Y-38183D1*
X-47000Y-40000D1*
X-47158Y-41817D1*
X-47633Y-43591D1*
G37*

G36*
X-49457Y-33251D2*
X-47541Y-31644D1*
X-49150Y-30036D1*
X-51000Y-28742D1*
X-53046Y-27787D1*
X-55243Y-27197D1*
X-55677Y-29660D1*
X-53902Y-30136D1*
X-52250Y-30907D1*
X-50756Y-31952D1*
X-49457Y-33251D1*
G37*

G36*
X-59323Y-29660D2*
X-59757Y-27197D1*
X-61954Y-27787D1*
X-64000Y-28742D1*
X-65850Y-30036D1*
X-67459Y-31644D1*
X-65543Y-33251D1*
X-64244Y-31952D1*
X-62750Y-30907D1*
X-61098Y-30136D1*
X-59323Y-29660D1*
G37*

G36*
X-67367Y-36409D2*
X-69716Y-35554D1*
X-70304Y-37751D1*
X-70500Y-40000D1*
X-70304Y-42249D1*
X-69716Y-44446D1*
X-67367Y-43591D1*
X-67842Y-41817D1*
X-68000Y-40000D1*
X-67842Y-38183D1*
X-67367Y-36409D1*
G37*

G36*
X-65543Y-46749D2*
X-67459Y-48356D1*
X-65850Y-49964D1*
X-64000Y-51258D1*
X-61954Y-52213D1*
X-59757Y-52803D1*
X-59323Y-50340D1*
X-61098Y-49864D1*
X-62750Y-49093D1*
X-64244Y-48048D1*
X-65543Y-46749D1*
G37*

G36*
X-55677Y-50340D2*
X-55243Y-52803D1*
X-53046Y-52213D1*
X-51000Y-51258D1*
X-49150Y-49964D1*
X-47541Y-48356D1*
X-49457Y-46749D1*
X-50756Y-48048D1*
X-52250Y-49093D1*
X-53902Y-49864D1*
X-55677Y-50340D1*
G37*

G36*
X94000Y-26000D2*
X76000Y-26000D1*
X76000Y-12500D1*
X94000Y-12500D1*
X94000Y-26000D1*
G37*

G36*
X94000Y-67500D2*
X76000Y-67500D1*
X76000Y-54000D1*
X94000Y-54000D1*
X94000Y-67500D1*
G37*

G36*
X22500Y-36300D2*
X24314Y-36117D1*
X26003Y-35593D1*
X27532Y-34763D1*
X28864Y-33664D1*
X29963Y-32332D1*
X30793Y-30803D1*
X31317Y-29114D1*
X31500Y-27300D1*
X31317Y-25486D1*
X30793Y-23797D1*
X29963Y-22268D1*
X28864Y-20936D1*
X27532Y-19837D1*
X26003Y-19007D1*
X24314Y-18483D1*
X22500Y-18300D1*
X20686Y-18483D1*
X18997Y-19007D1*
X17468Y-19837D1*
X16136Y-20936D1*
X15037Y-22268D1*
X14207Y-23797D1*
X13683Y-25486D1*
X13500Y-27300D1*
X13683Y-29114D1*
X14207Y-30803D1*
X15037Y-32332D1*
X16136Y-33664D1*
X17468Y-34763D1*
X18997Y-35593D1*
X20686Y-36117D1*
X22500Y-36300D1*
G37*

G36*
X22500Y-61700D2*
X24314Y-61517D1*
X26003Y-60993D1*
X27532Y-60163D1*
X28864Y-59064D1*
X29963Y-57732D1*
X30793Y-56203D1*
X31317Y-54514D1*
X31500Y-52700D1*
X31317Y-50886D1*
X30793Y-49197D1*
X29963Y-47668D1*
X28864Y-46336D1*
X27532Y-45237D1*
X26003Y-44407D1*
X24314Y-43883D1*
X22500Y-43700D1*
X20686Y-43883D1*
X18997Y-44407D1*
X17468Y-45237D1*
X16136Y-46336D1*
X15037Y-47668D1*
X14207Y-49197D1*
X13683Y-50886D1*
X13500Y-52700D1*
X13683Y-54514D1*
X14207Y-56203D1*
X15037Y-57732D1*
X16136Y-59064D1*
X17468Y-60163D1*
X18997Y-60993D1*
X20686Y-61517D1*
X22500Y-61700D1*
G37*

G36*
X62367Y-43591D2*
X64716Y-44446D1*
X65304Y-42249D1*
X65500Y-40000D1*
X65304Y-37751D1*
X64716Y-35554D1*
X62367Y-36409D1*
X62842Y-38183D1*
X63000Y-40000D1*
X62842Y-41817D1*
X62367Y-43591D1*
G37*

G36*
X60543Y-33251D2*
X62459Y-31644D1*
X60850Y-30036D1*
X59000Y-28742D1*
X56954Y-27787D1*
X54757Y-27197D1*
X54323Y-29660D1*
X56098Y-30136D1*
X57750Y-30907D1*
X59244Y-31952D1*
X60543Y-33251D1*
G37*

G36*
X50677Y-29660D2*
X50243Y-27197D1*
X48046Y-27787D1*
X46000Y-28742D1*
X44150Y-30036D1*
X42541Y-31644D1*
X44457Y-33251D1*
X45756Y-31952D1*
X47250Y-30907D1*
X48902Y-30136D1*
X50677Y-29660D1*
G37*

G36*
X42633Y-36409D2*
X40284Y-35554D1*
X39696Y-37751D1*
X39500Y-40000D1*
X39696Y-42249D1*
X40284Y-44446D1*
X42633Y-43591D1*
X42158Y-41817D1*
X42000Y-40000D1*
X42158Y-38183D1*
X42633Y-36409D1*
G37*

G36*
X44457Y-46749D2*
X42541Y-48356D1*
X44150Y-49964D1*
X46000Y-51258D1*
X48046Y-52213D1*
X50243Y-52803D1*
X50677Y-50340D1*
X48902Y-49864D1*
X47250Y-49093D1*
X45756Y-48048D1*
X44457Y-46749D1*
G37*

G36*
X54323Y-50340D2*
X54757Y-52803D1*
X56954Y-52213D1*
X59000Y-51258D1*
X60850Y-49964D1*
X62459Y-48356D1*
X60543Y-46749D1*
X59244Y-48048D1*
X57750Y-49093D1*
X56098Y-49864D1*
X54323Y-50340D1*
G37*

G36*
X-16000Y-106000D2*
X-34000Y-106000D1*
X-34000Y-92500D1*
X-16000Y-92500D1*
X-16000Y-106000D1*
G37*

G36*
X-16000Y-147500D2*
X-34000Y-147500D1*
X-34000Y-134000D1*
X-16000Y-134000D1*
X-16000Y-147500D1*
G37*

G36*
X-87500Y-116300D2*
X-85686Y-116117D1*
X-83997Y-115593D1*
X-82468Y-114763D1*
X-81136Y-113664D1*
X-80037Y-112332D1*
X-79207Y-110803D1*
X-78683Y-109114D1*
X-78500Y-107300D1*
X-78683Y-105486D1*
X-79207Y-103797D1*
X-80037Y-102268D1*
X-81136Y-100936D1*
X-82468Y-99837D1*
X-83997Y-99007D1*
X-85686Y-98483D1*
X-87500Y-98300D1*
X-89314Y-98483D1*
X-91003Y-99007D1*
X-92532Y-99837D1*
X-93864Y-100936D1*
X-94963Y-102268D1*
X-95793Y-103797D1*
X-96317Y-105486D1*
X-96500Y-107300D1*
X-96317Y-109114D1*
X-95793Y-110803D1*
X-94963Y-112332D1*
X-93864Y-113664D1*
X-92532Y-114763D1*
X-91003Y-115593D1*
X-89314Y-116117D1*
X-87500Y-116300D1*
G37*

G36*
X-87500Y-141700D2*
X-85686Y-141517D1*
X-83997Y-140993D1*
X-82468Y-140163D1*
X-81136Y-139064D1*
X-80037Y-137732D1*
X-79207Y-136203D1*
X-78683Y-134514D1*
X-78500Y-132700D1*
X-78683Y-130886D1*
X-79207Y-129197D1*
X-80037Y-127668D1*
X-81136Y-126336D1*
X-82468Y-125237D1*
X-83997Y-124407D1*
X-85686Y-123883D1*
X-87500Y-123700D1*
X-89314Y-123883D1*
X-91003Y-124407D1*
X-92532Y-125237D1*
X-93864Y-126336D1*
X-94963Y-127668D1*
X-95793Y-129197D1*
X-96317Y-130886D1*
X-96500Y-132700D1*
X-96317Y-134514D1*
X-95793Y-136203D1*
X-94963Y-137732D1*
X-93864Y-139064D1*
X-92532Y-140163D1*
X-91003Y-140993D1*
X-89314Y-141517D1*
X-87500Y-141700D1*
G37*

G36*
X-47633Y-123591D2*
X-45284Y-124446D1*
X-44696Y-122249D1*
X-44500Y-120000D1*
X-44696Y-117751D1*
X-45284Y-115554D1*
X-47633Y-116409D1*
X-47158Y-118183D1*
X-47000Y-120000D1*
X-47158Y-121817D1*
X-47633Y-123591D1*
G37*

G36*
X-49457Y-113251D2*
X-47541Y-111644D1*
X-49150Y-110036D1*
X-51000Y-108742D1*
X-53046Y-107787D1*
X-55243Y-107197D1*
X-55677Y-109660D1*
X-53902Y-110136D1*
X-52250Y-110907D1*
X-50756Y-111952D1*
X-49457Y-113251D1*
G37*

G36*
X-59323Y-109660D2*
X-59757Y-107197D1*
X-61954Y-107787D1*
X-64000Y-108742D1*
X-65850Y-110036D1*
X-67459Y-111644D1*
X-65543Y-113251D1*
X-64244Y-111952D1*
X-62750Y-110907D1*
X-61098Y-110136D1*
X-59323Y-109660D1*
G37*

G36*
X-67367Y-116409D2*
X-69716Y-115554D1*
X-70304Y-117751D1*
X-70500Y-120000D1*
X-70304Y-122249D1*
X-69716Y-124446D1*
X-67367Y-123591D1*
X-67842Y-121817D1*
X-68000Y-120000D1*
X-67842Y-118183D1*
X-67367Y-116409D1*
G37*

G36*
X-65543Y-126749D2*
X-67459Y-128356D1*
X-65850Y-129964D1*
X-64000Y-131258D1*
X-61954Y-132213D1*
X-59757Y-132803D1*
X-59323Y-130340D1*
X-61098Y-129864D1*
X-62750Y-129093D1*
X-64244Y-128048D1*
X-65543Y-126749D1*
G37*

G36*
X-55677Y-130340D2*
X-55243Y-132803D1*
X-53046Y-132213D1*
X-51000Y-131258D1*
X-49150Y-129964D1*
X-47541Y-128356D1*
X-49457Y-126749D1*
X-50756Y-128048D1*
X-52250Y-129093D1*
X-53902Y-129864D1*
X-55677Y-130340D1*
G37*

G36*
X94000Y-106000D2*
X76000Y-106000D1*
X76000Y-92500D1*
X94000Y-92500D1*
X94000Y-106000D1*
G37*

G36*
X94000Y-147500D2*
X76000Y-147500D1*
X76000Y-134000D1*
X94000Y-134000D1*
X94000Y-147500D1*
G37*

G36*
X22500Y-116300D2*
X24314Y-116117D1*
X26003Y-115593D1*
X27532Y-114763D1*
X28864Y-113664D1*
X29963Y-112332D1*
X30793Y-110803D1*
X31317Y-109114D1*
X31500Y-107300D1*
X31317Y-105486D1*
X30793Y-103797D1*
X29963Y-102268D1*
X28864Y-100936D1*
X27532Y-99837D1*
X26003Y-99007D1*
X24314Y-98483D1*
X22500Y-98300D1*
X20686Y-98483D1*
X18997Y-99007D1*
X17468Y-99837D1*
X16136Y-100936D1*
X15037Y-102268D1*
X14207Y-103797D1*
X13683Y-105486D1*
X13500Y-107300D1*
X13683Y-109114D1*
X14207Y-110803D1*
X15037Y-112332D1*
X16136Y-113664D1*
X17468Y-114763D1*
X18997Y-115593D1*
X20686Y-116117D1*
X22500Y-116300D1*
G37*

G36*
X22500Y-141700D2*
X24314Y-141517D1*
X26003Y-140993D1*
X27532Y-140163D1*
X28864Y-139064D1*
X29963Y-137732D1*
X30793Y-136203D1*
X31317Y-134514D1*
X31500Y-132700D1*
X31317Y-130886D1*
X30793Y-129197D1*
X29963Y-127668D1*
X28864Y-126336D1*
X27532Y-125237D1*
X26003Y-124407D1*
X24314Y-123883D1*
X22500Y-123700D1*
X20686Y-123883D1*
X18997Y-124407D1*
X17468Y-125237D1*
X16136Y-126336D1*
X15037Y-127668D1*
X14207Y-129197D1*
X13683Y-130886D1*
X13500Y-132700D1*
X13683Y-134514D1*
X14207Y-136203D1*
X15037Y-137732D1*
X16136Y-139064D1*
X17468Y-140163D1*
X18997Y-140993D1*
X20686Y-141517D1*
X22500Y-141700D1*
G37*

G36*
X62367Y-123591D2*
X64716Y-124446D1*
X65304Y-122249D1*
X65500Y-120000D1*
X65304Y-117751D1*
X64716Y-115554D1*
X62367Y-116409D1*
X62842Y-118183D1*
X63000Y-120000D1*
X62842Y-121817D1*
X62367Y-123591D1*
G37*

G36*
X60543Y-113251D2*
X62459Y-111644D1*
X60850Y-110036D1*
X59000Y-108742D1*
X56954Y-107787D1*
X54757Y-107197D1*
X54323Y-109660D1*
X56098Y-110136D1*
X57750Y-110907D1*
X59244Y-111952D1*
X60543Y-113251D1*
G37*

G36*
X50677Y-109660D2*
X50243Y-107197D1*
X48046Y-107787D1*
X46000Y-108742D1*
X44150Y-110036D1*
X42541Y-111644D1*
X44457Y-113251D1*
X45756Y-111952D1*
X47250Y-110907D1*
X48902Y-110136D1*
X50677Y-109660D1*
G37*

G36*
X42633Y-116409D2*
X40284Y-115554D1*
X39696Y-117751D1*
X39500Y-120000D1*
X39696Y-122249D1*
X40284Y-124446D1*
X42633Y-123591D1*
X42158Y-121817D1*
X42000Y-120000D1*
X42158Y-118183D1*
X42633Y-116409D1*
G37*

G36*
X44457Y-126749D2*
X42541Y-128356D1*
X44150Y-129964D1*
X46000Y-131258D1*
X48046Y-132213D1*
X50243Y-132803D1*
X50677Y-130340D1*
X48902Y-129864D1*
X47250Y-129093D1*
X45756Y-128048D1*
X44457Y-126749D1*
G37*

G36*
X54323Y-130340D2*
X54757Y-132803D1*
X56954Y-132213D1*
X59000Y-131258D1*
X60850Y-129964D1*
X62459Y-128356D1*
X60543Y-126749D1*
X59244Y-128048D1*
X57750Y-129093D1*
X56098Y-129864D1*
X54323Y-130340D1*
G37*

M02*
