G75*
%FSLAX44Y44*%
%MOMM*%

G36*
X-40500Y101900D2*
X-40736Y103068D1*
X-41379Y104021D1*
X-42332Y104664D1*
X-43500Y104900D1*
X-44668Y104664D1*
X-45621Y104021D1*
X-46264Y103068D1*
X-46500Y101900D1*
X-46264Y100732D1*
X-45621Y99779D1*
X-44668Y99136D1*
X-43500Y98900D1*
X-42332Y99136D1*
X-41379Y99779D1*
X-40736Y100732D1*
X-40500Y101900D1*
G37*

G36*
X-40500Y91900D2*
X-40736Y93068D1*
X-41379Y94021D1*
X-42332Y94664D1*
X-43500Y94900D1*
X-44668Y94664D1*
X-45621Y94021D1*
X-46264Y93068D1*
X-46500Y91900D1*
X-46264Y90732D1*
X-45621Y89779D1*
X-44668Y89136D1*
X-43500Y88900D1*
X-42332Y89136D1*
X-41379Y89779D1*
X-40736Y90732D1*
X-40500Y91900D1*
G37*

G36*
X-40500Y81900D2*
X-40736Y83068D1*
X-41379Y84021D1*
X-42332Y84664D1*
X-43500Y84900D1*
X-44668Y84664D1*
X-45621Y84021D1*
X-46264Y83068D1*
X-46500Y81900D1*
X-46264Y80732D1*
X-45621Y79779D1*
X-44668Y79136D1*
X-43500Y78900D1*
X-42332Y79136D1*
X-41379Y79779D1*
X-40736Y80732D1*
X-40500Y81900D1*
G37*

G36*
X-40500Y71900D2*
X-40736Y73068D1*
X-41379Y74021D1*
X-42332Y74664D1*
X-43500Y74900D1*
X-44668Y74664D1*
X-45621Y74021D1*
X-46264Y73068D1*
X-46500Y71900D1*
X-46264Y70732D1*
X-45621Y69779D1*
X-44668Y69136D1*
X-43500Y68900D1*
X-42332Y69136D1*
X-41379Y69779D1*
X-40736Y70732D1*
X-40500Y71900D1*
G37*

G36*
X-40500Y61900D2*
X-40736Y63068D1*
X-41379Y64021D1*
X-42332Y64664D1*
X-43500Y64900D1*
X-44668Y64664D1*
X-45621Y64021D1*
X-46264Y63068D1*
X-46500Y61900D1*
X-46264Y60732D1*
X-45621Y59779D1*
X-44668Y59136D1*
X-43500Y58900D1*
X-42332Y59136D1*
X-41379Y59779D1*
X-40736Y60732D1*
X-40500Y61900D1*
G37*

G36*
X-30500Y91900D2*
X-30736Y93068D1*
X-31379Y94021D1*
X-32332Y94664D1*
X-33500Y94900D1*
X-34668Y94664D1*
X-35621Y94021D1*
X-36264Y93068D1*
X-36500Y91900D1*
X-36264Y90732D1*
X-35621Y89779D1*
X-34668Y89136D1*
X-33500Y88900D1*
X-32332Y89136D1*
X-31379Y89779D1*
X-30736Y90732D1*
X-30500Y91900D1*
G37*

G36*
X-30500Y81900D2*
X-30736Y83068D1*
X-31379Y84021D1*
X-32332Y84664D1*
X-33500Y84900D1*
X-34668Y84664D1*
X-35621Y84021D1*
X-36264Y83068D1*
X-36500Y81900D1*
X-36264Y80732D1*
X-35621Y79779D1*
X-34668Y79136D1*
X-33500Y78900D1*
X-32332Y79136D1*
X-31379Y79779D1*
X-30736Y80732D1*
X-30500Y81900D1*
G37*

G36*
X-30500Y71900D2*
X-30736Y73068D1*
X-31379Y74021D1*
X-32332Y74664D1*
X-33500Y74900D1*
X-34668Y74664D1*
X-35621Y74021D1*
X-36264Y73068D1*
X-36500Y71900D1*
X-36264Y70732D1*
X-35621Y69779D1*
X-34668Y69136D1*
X-33500Y68900D1*
X-32332Y69136D1*
X-31379Y69779D1*
X-30736Y70732D1*
X-30500Y71900D1*
G37*

G36*
X-500Y51900D2*
X-736Y53068D1*
X-1379Y54021D1*
X-2332Y54664D1*
X-3500Y54900D1*
X-4668Y54664D1*
X-5621Y54021D1*
X-6264Y53068D1*
X-6500Y51900D1*
X-6264Y50732D1*
X-5621Y49779D1*
X-4668Y49136D1*
X-3500Y48900D1*
X-2332Y49136D1*
X-1379Y49779D1*
X-736Y50732D1*
X-500Y51900D1*
G37*

G36*
X9500Y51900D2*
X9264Y53068D1*
X8621Y54021D1*
X7668Y54664D1*
X6500Y54900D1*
X5332Y54664D1*
X4379Y54021D1*
X3736Y53068D1*
X3500Y51900D1*
X3736Y50732D1*
X4379Y49779D1*
X5332Y49136D1*
X6500Y48900D1*
X7668Y49136D1*
X8621Y49779D1*
X9264Y50732D1*
X9500Y51900D1*
G37*

G36*
X19500Y51900D2*
X19264Y53068D1*
X18621Y54021D1*
X17668Y54664D1*
X16500Y54900D1*
X15332Y54664D1*
X14379Y54021D1*
X13736Y53068D1*
X13500Y51900D1*
X13736Y50732D1*
X14379Y49779D1*
X15332Y49136D1*
X16500Y48900D1*
X17668Y49136D1*
X18621Y49779D1*
X19264Y50732D1*
X19500Y51900D1*
G37*

G36*
X29500Y51900D2*
X29264Y53068D1*
X28621Y54021D1*
X27668Y54664D1*
X26500Y54900D1*
X25332Y54664D1*
X24379Y54021D1*
X23736Y53068D1*
X23500Y51900D1*
X23736Y50732D1*
X24379Y49779D1*
X25332Y49136D1*
X26500Y48900D1*
X27668Y49136D1*
X28621Y49779D1*
X29264Y50732D1*
X29500Y51900D1*
G37*

G36*
X39500Y51900D2*
X39264Y53068D1*
X38621Y54021D1*
X37668Y54664D1*
X36500Y54900D1*
X35332Y54664D1*
X34379Y54021D1*
X33736Y53068D1*
X33500Y51900D1*
X33736Y50732D1*
X34379Y49779D1*
X35332Y49136D1*
X36500Y48900D1*
X37668Y49136D1*
X38621Y49779D1*
X39264Y50732D1*
X39500Y51900D1*
G37*

G36*
X49500Y51900D2*
X49264Y53068D1*
X48621Y54021D1*
X47668Y54664D1*
X46500Y54900D1*
X45332Y54664D1*
X44379Y54021D1*
X43736Y53068D1*
X43500Y51900D1*
X43736Y50732D1*
X44379Y49779D1*
X45332Y49136D1*
X46500Y48900D1*
X47668Y49136D1*
X48621Y49779D1*
X49264Y50732D1*
X49500Y51900D1*
G37*

G36*
X49500Y71900D2*
X49264Y73068D1*
X48621Y74021D1*
X47668Y74664D1*
X46500Y74900D1*
X45332Y74664D1*
X44379Y74021D1*
X43736Y73068D1*
X43500Y71900D1*
X43736Y70732D1*
X44379Y69779D1*
X45332Y69136D1*
X46500Y68900D1*
X47668Y69136D1*
X48621Y69779D1*
X49264Y70732D1*
X49500Y71900D1*
G37*

G36*
X49500Y81900D2*
X49264Y83068D1*
X48621Y84021D1*
X47668Y84664D1*
X46500Y84900D1*
X45332Y84664D1*
X44379Y84021D1*
X43736Y83068D1*
X43500Y81900D1*
X43736Y80732D1*
X44379Y79779D1*
X45332Y79136D1*
X46500Y78900D1*
X47668Y79136D1*
X48621Y79779D1*
X49264Y80732D1*
X49500Y81900D1*
G37*

G36*
X49500Y91900D2*
X49264Y93068D1*
X48621Y94021D1*
X47668Y94664D1*
X46500Y94900D1*
X45332Y94664D1*
X44379Y94021D1*
X43736Y93068D1*
X43500Y91900D1*
X43736Y90732D1*
X44379Y89779D1*
X45332Y89136D1*
X46500Y88900D1*
X47668Y89136D1*
X48621Y89779D1*
X49264Y90732D1*
X49500Y91900D1*
G37*

G36*
X49500Y101900D2*
X49264Y103068D1*
X48621Y104021D1*
X47668Y104664D1*
X46500Y104900D1*
X45332Y104664D1*
X44379Y104021D1*
X43736Y103068D1*
X43500Y101900D1*
X43736Y100732D1*
X44379Y99779D1*
X45332Y99136D1*
X46500Y98900D1*
X47668Y99136D1*
X48621Y99779D1*
X49264Y100732D1*
X49500Y101900D1*
G37*

G36*
X39500Y71900D2*
X39264Y73068D1*
X38621Y74021D1*
X37668Y74664D1*
X36500Y74900D1*
X35332Y74664D1*
X34379Y74021D1*
X33736Y73068D1*
X33500Y71900D1*
X33736Y70732D1*
X34379Y69779D1*
X35332Y69136D1*
X36500Y68900D1*
X37668Y69136D1*
X38621Y69779D1*
X39264Y70732D1*
X39500Y71900D1*
G37*

G36*
X39500Y81900D2*
X39264Y83068D1*
X38621Y84021D1*
X37668Y84664D1*
X36500Y84900D1*
X35332Y84664D1*
X34379Y84021D1*
X33736Y83068D1*
X33500Y81900D1*
X33736Y80732D1*
X34379Y79779D1*
X35332Y79136D1*
X36500Y78900D1*
X37668Y79136D1*
X38621Y79779D1*
X39264Y80732D1*
X39500Y81900D1*
G37*

G36*
X39500Y91900D2*
X39264Y93068D1*
X38621Y94021D1*
X37668Y94664D1*
X36500Y94900D1*
X35332Y94664D1*
X34379Y94021D1*
X33736Y93068D1*
X33500Y91900D1*
X33736Y90732D1*
X34379Y89779D1*
X35332Y89136D1*
X36500Y88900D1*
X37668Y89136D1*
X38621Y89779D1*
X39264Y90732D1*
X39500Y91900D1*
G37*

G36*
X39500Y101900D2*
X39264Y103068D1*
X38621Y104021D1*
X37668Y104664D1*
X36500Y104900D1*
X35332Y104664D1*
X34379Y104021D1*
X33736Y103068D1*
X33500Y101900D1*
X33736Y100732D1*
X34379Y99779D1*
X35332Y99136D1*
X36500Y98900D1*
X37668Y99136D1*
X38621Y99779D1*
X39264Y100732D1*
X39500Y101900D1*
G37*

G36*
X29500Y101900D2*
X29264Y103068D1*
X28621Y104021D1*
X27668Y104664D1*
X26500Y104900D1*
X25332Y104664D1*
X24379Y104021D1*
X23736Y103068D1*
X23500Y101900D1*
X23736Y100732D1*
X24379Y99779D1*
X25332Y99136D1*
X26500Y98900D1*
X27668Y99136D1*
X28621Y99779D1*
X29264Y100732D1*
X29500Y101900D1*
G37*

G36*
X19500Y101900D2*
X19264Y103068D1*
X18621Y104021D1*
X17668Y104664D1*
X16500Y104900D1*
X15332Y104664D1*
X14379Y104021D1*
X13736Y103068D1*
X13500Y101900D1*
X13736Y100732D1*
X14379Y99779D1*
X15332Y99136D1*
X16500Y98900D1*
X17668Y99136D1*
X18621Y99779D1*
X19264Y100732D1*
X19500Y101900D1*
G37*

G36*
X9500Y81900D2*
X9264Y83068D1*
X8621Y84021D1*
X7668Y84664D1*
X6500Y84900D1*
X5332Y84664D1*
X4379Y84021D1*
X3736Y83068D1*
X3500Y81900D1*
X3736Y80732D1*
X4379Y79779D1*
X5332Y79136D1*
X6500Y78900D1*
X7668Y79136D1*
X8621Y79779D1*
X9264Y80732D1*
X9500Y81900D1*
G37*

G36*
X9500Y71900D2*
X9264Y73068D1*
X8621Y74021D1*
X7668Y74664D1*
X6500Y74900D1*
X5332Y74664D1*
X4379Y74021D1*
X3736Y73068D1*
X3500Y71900D1*
X3736Y70732D1*
X4379Y69779D1*
X5332Y69136D1*
X6500Y68900D1*
X7668Y69136D1*
X8621Y69779D1*
X9264Y70732D1*
X9500Y71900D1*
G37*

G36*
X-500Y81900D2*
X-736Y83068D1*
X-1379Y84021D1*
X-2332Y84664D1*
X-3500Y84900D1*
X-4668Y84664D1*
X-5621Y84021D1*
X-6264Y83068D1*
X-6500Y81900D1*
X-6264Y80732D1*
X-5621Y79779D1*
X-4668Y79136D1*
X-3500Y78900D1*
X-2332Y79136D1*
X-1379Y79779D1*
X-736Y80732D1*
X-500Y81900D1*
G37*

G36*
X-500Y71900D2*
X-736Y73068D1*
X-1379Y74021D1*
X-2332Y74664D1*
X-3500Y74900D1*
X-4668Y74664D1*
X-5621Y74021D1*
X-6264Y73068D1*
X-6500Y71900D1*
X-6264Y70732D1*
X-5621Y69779D1*
X-4668Y69136D1*
X-3500Y68900D1*
X-2332Y69136D1*
X-1379Y69779D1*
X-736Y70732D1*
X-500Y71900D1*
G37*

G36*
X-89000Y108000D2*
X-87186Y108183D1*
X-85497Y108707D1*
X-83968Y109537D1*
X-82636Y110636D1*
X-81537Y111968D1*
X-80707Y113497D1*
X-80183Y115186D1*
X-80000Y117000D1*
X-80183Y118814D1*
X-80707Y120503D1*
X-81537Y122032D1*
X-82636Y123364D1*
X-83968Y124463D1*
X-85497Y125293D1*
X-87186Y125817D1*
X-89000Y126000D1*
X-90814Y125817D1*
X-92503Y125293D1*
X-94032Y124463D1*
X-95364Y123364D1*
X-96463Y122032D1*
X-97293Y120503D1*
X-97817Y118814D1*
X-98000Y117000D1*
X-97817Y115186D1*
X-97293Y113497D1*
X-96463Y111968D1*
X-95364Y110636D1*
X-94032Y109537D1*
X-92503Y108707D1*
X-90814Y108183D1*
X-89000Y108000D1*
G37*

G36*
X-89000Y82600D2*
X-87186Y82783D1*
X-85497Y83307D1*
X-83968Y84137D1*
X-82636Y85236D1*
X-81537Y86568D1*
X-80707Y88097D1*
X-80183Y89786D1*
X-80000Y91600D1*
X-80183Y93414D1*
X-80707Y95103D1*
X-81537Y96632D1*
X-82636Y97964D1*
X-83968Y99063D1*
X-85497Y99893D1*
X-87186Y100417D1*
X-89000Y100600D1*
X-90814Y100417D1*
X-92503Y99893D1*
X-94032Y99063D1*
X-95364Y97964D1*
X-96463Y96632D1*
X-97293Y95103D1*
X-97817Y93414D1*
X-98000Y91600D1*
X-97817Y89786D1*
X-97293Y88097D1*
X-96463Y86568D1*
X-95364Y85236D1*
X-94032Y84137D1*
X-92503Y83307D1*
X-90814Y82783D1*
X-89000Y82600D1*
G37*

G36*
X-89000Y57200D2*
X-87186Y57383D1*
X-85497Y57907D1*
X-83968Y58737D1*
X-82636Y59836D1*
X-81537Y61168D1*
X-80707Y62697D1*
X-80183Y64386D1*
X-80000Y66200D1*
X-80183Y68014D1*
X-80707Y69703D1*
X-81537Y71232D1*
X-82636Y72564D1*
X-83968Y73663D1*
X-85497Y74493D1*
X-87186Y75017D1*
X-89000Y75200D1*
X-90814Y75017D1*
X-92503Y74493D1*
X-94032Y73663D1*
X-95364Y72564D1*
X-96463Y71232D1*
X-97293Y69703D1*
X-97817Y68014D1*
X-98000Y66200D1*
X-97817Y64386D1*
X-97293Y62697D1*
X-96463Y61168D1*
X-95364Y59836D1*
X-94032Y58737D1*
X-92503Y57907D1*
X-90814Y57383D1*
X-89000Y57200D1*
G37*

G36*
X-89000Y31800D2*
X-87186Y31983D1*
X-85497Y32507D1*
X-83968Y33337D1*
X-82636Y34436D1*
X-81537Y35768D1*
X-80707Y37297D1*
X-80183Y38986D1*
X-80000Y40800D1*
X-80183Y42614D1*
X-80707Y44303D1*
X-81537Y45832D1*
X-82636Y47164D1*
X-83968Y48263D1*
X-85497Y49093D1*
X-87186Y49617D1*
X-89000Y49800D1*
X-90814Y49617D1*
X-92503Y49093D1*
X-94032Y48263D1*
X-95364Y47164D1*
X-96463Y45832D1*
X-97293Y44303D1*
X-97817Y42614D1*
X-98000Y40800D1*
X-97817Y38986D1*
X-97293Y37297D1*
X-96463Y35768D1*
X-95364Y34436D1*
X-94032Y33337D1*
X-92503Y32507D1*
X-90814Y31983D1*
X-89000Y31800D1*
G37*

G36*
X-89000Y6400D2*
X-87186Y6583D1*
X-85497Y7107D1*
X-83968Y7937D1*
X-82636Y9036D1*
X-81537Y10368D1*
X-80707Y11897D1*
X-80183Y13586D1*
X-80000Y15400D1*
X-80183Y17214D1*
X-80707Y18903D1*
X-81537Y20432D1*
X-82636Y21764D1*
X-83968Y22863D1*
X-85497Y23693D1*
X-87186Y24217D1*
X-89000Y24400D1*
X-90814Y24217D1*
X-92503Y23693D1*
X-94032Y22863D1*
X-95364Y21764D1*
X-96463Y20432D1*
X-97293Y18903D1*
X-97817Y17214D1*
X-98000Y15400D1*
X-97817Y13586D1*
X-97293Y11897D1*
X-96463Y10368D1*
X-95364Y9036D1*
X-94032Y7937D1*
X-92503Y7107D1*
X-90814Y6583D1*
X-89000Y6400D1*
G37*

G36*
X-89000Y-19000D2*
X-87186Y-18817D1*
X-85497Y-18293D1*
X-83968Y-17463D1*
X-82636Y-16364D1*
X-81537Y-15032D1*
X-80707Y-13503D1*
X-80183Y-11814D1*
X-80000Y-10000D1*
X-80183Y-8186D1*
X-80707Y-6497D1*
X-81537Y-4968D1*
X-82636Y-3636D1*
X-83968Y-2537D1*
X-85497Y-1707D1*
X-87186Y-1183D1*
X-89000Y-1000D1*
X-90814Y-1183D1*
X-92503Y-1707D1*
X-94032Y-2537D1*
X-95364Y-3636D1*
X-96463Y-4968D1*
X-97293Y-6497D1*
X-97817Y-8186D1*
X-98000Y-10000D1*
X-97817Y-11814D1*
X-97293Y-13503D1*
X-96463Y-15032D1*
X-95364Y-16364D1*
X-94032Y-17463D1*
X-92503Y-18293D1*
X-90814Y-18817D1*
X-89000Y-19000D1*
G37*

G36*
X-79900Y-47100D2*
X-80083Y-45286D1*
X-80607Y-43597D1*
X-81437Y-42068D1*
X-82536Y-40736D1*
X-83868Y-39637D1*
X-85397Y-38807D1*
X-87086Y-38283D1*
X-88900Y-38100D1*
X-90714Y-38283D1*
X-92403Y-38807D1*
X-93932Y-39637D1*
X-95264Y-40736D1*
X-96363Y-42068D1*
X-97193Y-43597D1*
X-97717Y-45286D1*
X-97900Y-47100D1*
X-97717Y-48914D1*
X-97193Y-50603D1*
X-96363Y-52132D1*
X-95264Y-53464D1*
X-93932Y-54563D1*
X-92403Y-55393D1*
X-90714Y-55917D1*
X-88900Y-56100D1*
X-87086Y-55917D1*
X-85397Y-55393D1*
X-83868Y-54563D1*
X-82536Y-53464D1*
X-81437Y-52132D1*
X-80607Y-50603D1*
X-80083Y-48914D1*
X-79900Y-47100D1*
G37*

G36*
X-54500Y-47100D2*
X-54683Y-45286D1*
X-55207Y-43597D1*
X-56037Y-42068D1*
X-57136Y-40736D1*
X-58468Y-39637D1*
X-59997Y-38807D1*
X-61686Y-38283D1*
X-63500Y-38100D1*
X-65314Y-38283D1*
X-67003Y-38807D1*
X-68532Y-39637D1*
X-69864Y-40736D1*
X-70963Y-42068D1*
X-71793Y-43597D1*
X-72317Y-45286D1*
X-72500Y-47100D1*
X-72317Y-48914D1*
X-71793Y-50603D1*
X-70963Y-52132D1*
X-69864Y-53464D1*
X-68532Y-54563D1*
X-67003Y-55393D1*
X-65314Y-55917D1*
X-63500Y-56100D1*
X-61686Y-55917D1*
X-59997Y-55393D1*
X-58468Y-54563D1*
X-57136Y-53464D1*
X-56037Y-52132D1*
X-55207Y-50603D1*
X-54683Y-48914D1*
X-54500Y-47100D1*
G37*

G36*
X-29100Y-47100D2*
X-29283Y-45286D1*
X-29807Y-43597D1*
X-30637Y-42068D1*
X-31736Y-40736D1*
X-33068Y-39637D1*
X-34597Y-38807D1*
X-36286Y-38283D1*
X-38100Y-38100D1*
X-39914Y-38283D1*
X-41603Y-38807D1*
X-43132Y-39637D1*
X-44464Y-40736D1*
X-45563Y-42068D1*
X-46393Y-43597D1*
X-46917Y-45286D1*
X-47100Y-47100D1*
X-46917Y-48914D1*
X-46393Y-50603D1*
X-45563Y-52132D1*
X-44464Y-53464D1*
X-43132Y-54563D1*
X-41603Y-55393D1*
X-39914Y-55917D1*
X-38100Y-56100D1*
X-36286Y-55917D1*
X-34597Y-55393D1*
X-33068Y-54563D1*
X-31736Y-53464D1*
X-30637Y-52132D1*
X-29807Y-50603D1*
X-29283Y-48914D1*
X-29100Y-47100D1*
G37*

G36*
X-3700Y-47100D2*
X-3883Y-45286D1*
X-4407Y-43597D1*
X-5237Y-42068D1*
X-6336Y-40736D1*
X-7668Y-39637D1*
X-9197Y-38807D1*
X-10886Y-38283D1*
X-12700Y-38100D1*
X-14514Y-38283D1*
X-16203Y-38807D1*
X-17732Y-39637D1*
X-19064Y-40736D1*
X-20163Y-42068D1*
X-20993Y-43597D1*
X-21517Y-45286D1*
X-21700Y-47100D1*
X-21517Y-48914D1*
X-20993Y-50603D1*
X-20163Y-52132D1*
X-19064Y-53464D1*
X-17732Y-54563D1*
X-16203Y-55393D1*
X-14514Y-55917D1*
X-12700Y-56100D1*
X-10886Y-55917D1*
X-9197Y-55393D1*
X-7668Y-54563D1*
X-6336Y-53464D1*
X-5237Y-52132D1*
X-4407Y-50603D1*
X-3883Y-48914D1*
X-3700Y-47100D1*
G37*

G36*
X21700Y-47100D2*
X21517Y-45286D1*
X20993Y-43597D1*
X20163Y-42068D1*
X19064Y-40736D1*
X17732Y-39637D1*
X16203Y-38807D1*
X14514Y-38283D1*
X12700Y-38100D1*
X10886Y-38283D1*
X9197Y-38807D1*
X7668Y-39637D1*
X6336Y-40736D1*
X5237Y-42068D1*
X4407Y-43597D1*
X3883Y-45286D1*
X3700Y-47100D1*
X3883Y-48914D1*
X4407Y-50603D1*
X5237Y-52132D1*
X6336Y-53464D1*
X7668Y-54563D1*
X9197Y-55393D1*
X10886Y-55917D1*
X12700Y-56100D1*
X14514Y-55917D1*
X16203Y-55393D1*
X17732Y-54563D1*
X19064Y-53464D1*
X20163Y-52132D1*
X20993Y-50603D1*
X21517Y-48914D1*
X21700Y-47100D1*
G37*

G36*
X47100Y-47100D2*
X46917Y-45286D1*
X46393Y-43597D1*
X45563Y-42068D1*
X44464Y-40736D1*
X43132Y-39637D1*
X41603Y-38807D1*
X39914Y-38283D1*
X38100Y-38100D1*
X36286Y-38283D1*
X34597Y-38807D1*
X33068Y-39637D1*
X31736Y-40736D1*
X30637Y-42068D1*
X29807Y-43597D1*
X29283Y-45286D1*
X29100Y-47100D1*
X29283Y-48914D1*
X29807Y-50603D1*
X30637Y-52132D1*
X31736Y-53464D1*
X33068Y-54563D1*
X34597Y-55393D1*
X36286Y-55917D1*
X38100Y-56100D1*
X39914Y-55917D1*
X41603Y-55393D1*
X43132Y-54563D1*
X44464Y-53464D1*
X45563Y-52132D1*
X46393Y-50603D1*
X46917Y-48914D1*
X47100Y-47100D1*
G37*

G36*
X72500Y-47100D2*
X72317Y-45286D1*
X71793Y-43597D1*
X70963Y-42068D1*
X69864Y-40736D1*
X68532Y-39637D1*
X67003Y-38807D1*
X65314Y-38283D1*
X63500Y-38100D1*
X61686Y-38283D1*
X59997Y-38807D1*
X58468Y-39637D1*
X57136Y-40736D1*
X56037Y-42068D1*
X55207Y-43597D1*
X54683Y-45286D1*
X54500Y-47100D1*
X54683Y-48914D1*
X55207Y-50603D1*
X56037Y-52132D1*
X57136Y-53464D1*
X58468Y-54563D1*
X59997Y-55393D1*
X61686Y-55917D1*
X63500Y-56100D1*
X65314Y-55917D1*
X67003Y-55393D1*
X68532Y-54563D1*
X69864Y-53464D1*
X70963Y-52132D1*
X71793Y-50603D1*
X72317Y-48914D1*
X72500Y-47100D1*
G37*

G36*
X97900Y-47100D2*
X97717Y-45286D1*
X97193Y-43597D1*
X96363Y-42068D1*
X95264Y-40736D1*
X93932Y-39637D1*
X92403Y-38807D1*
X90714Y-38283D1*
X88900Y-38100D1*
X87086Y-38283D1*
X85397Y-38807D1*
X83868Y-39637D1*
X82536Y-40736D1*
X81437Y-42068D1*
X80607Y-43597D1*
X80083Y-45286D1*
X79900Y-47100D1*
X80083Y-48914D1*
X80607Y-50603D1*
X81437Y-52132D1*
X82536Y-53464D1*
X83868Y-54563D1*
X85397Y-55393D1*
X87086Y-55917D1*
X88900Y-56100D1*
X90714Y-55917D1*
X92403Y-55393D1*
X93932Y-54563D1*
X95264Y-53464D1*
X96363Y-52132D1*
X97193Y-50603D1*
X97717Y-48914D1*
X97900Y-47100D1*
G37*

G36*
X89000Y-1000D2*
X87186Y-1183D1*
X85497Y-1707D1*
X83968Y-2537D1*
X82636Y-3636D1*
X81537Y-4968D1*
X80707Y-6497D1*
X80183Y-8186D1*
X80000Y-10000D1*
X80183Y-11814D1*
X80707Y-13503D1*
X81537Y-15032D1*
X82636Y-16364D1*
X83968Y-17463D1*
X85497Y-18293D1*
X87186Y-18817D1*
X89000Y-19000D1*
X90814Y-18817D1*
X92503Y-18293D1*
X94032Y-17463D1*
X95364Y-16364D1*
X96463Y-15032D1*
X97293Y-13503D1*
X97817Y-11814D1*
X98000Y-10000D1*
X97817Y-8186D1*
X97293Y-6497D1*
X96463Y-4968D1*
X95364Y-3636D1*
X94032Y-2537D1*
X92503Y-1707D1*
X90814Y-1183D1*
X89000Y-1000D1*
G37*

G36*
X89000Y24400D2*
X87186Y24217D1*
X85497Y23693D1*
X83968Y22863D1*
X82636Y21764D1*
X81537Y20432D1*
X80707Y18903D1*
X80183Y17214D1*
X80000Y15400D1*
X80183Y13586D1*
X80707Y11897D1*
X81537Y10368D1*
X82636Y9036D1*
X83968Y7937D1*
X85497Y7107D1*
X87186Y6583D1*
X89000Y6400D1*
X90814Y6583D1*
X92503Y7107D1*
X94032Y7937D1*
X95364Y9036D1*
X96463Y10368D1*
X97293Y11897D1*
X97817Y13586D1*
X98000Y15400D1*
X97817Y17214D1*
X97293Y18903D1*
X96463Y20432D1*
X95364Y21764D1*
X94032Y22863D1*
X92503Y23693D1*
X90814Y24217D1*
X89000Y24400D1*
G37*

G36*
X89000Y49800D2*
X87186Y49617D1*
X85497Y49093D1*
X83968Y48263D1*
X82636Y47164D1*
X81537Y45832D1*
X80707Y44303D1*
X80183Y42614D1*
X80000Y40800D1*
X80183Y38986D1*
X80707Y37297D1*
X81537Y35768D1*
X82636Y34436D1*
X83968Y33337D1*
X85497Y32507D1*
X87186Y31983D1*
X89000Y31800D1*
X90814Y31983D1*
X92503Y32507D1*
X94032Y33337D1*
X95364Y34436D1*
X96463Y35768D1*
X97293Y37297D1*
X97817Y38986D1*
X98000Y40800D1*
X97817Y42614D1*
X97293Y44303D1*
X96463Y45832D1*
X95364Y47164D1*
X94032Y48263D1*
X92503Y49093D1*
X90814Y49617D1*
X89000Y49800D1*
G37*

G36*
X89000Y75200D2*
X87186Y75017D1*
X85497Y74493D1*
X83968Y73663D1*
X82636Y72564D1*
X81537Y71232D1*
X80707Y69703D1*
X80183Y68014D1*
X80000Y66200D1*
X80183Y64386D1*
X80707Y62697D1*
X81537Y61168D1*
X82636Y59836D1*
X83968Y58737D1*
X85497Y57907D1*
X87186Y57383D1*
X89000Y57200D1*
X90814Y57383D1*
X92503Y57907D1*
X94032Y58737D1*
X95364Y59836D1*
X96463Y61168D1*
X97293Y62697D1*
X97817Y64386D1*
X98000Y66200D1*
X97817Y68014D1*
X97293Y69703D1*
X96463Y71232D1*
X95364Y72564D1*
X94032Y73663D1*
X92503Y74493D1*
X90814Y75017D1*
X89000Y75200D1*
G37*

G36*
X89000Y100600D2*
X87186Y100417D1*
X85497Y99893D1*
X83968Y99063D1*
X82636Y97964D1*
X81537Y96632D1*
X80707Y95103D1*
X80183Y93414D1*
X80000Y91600D1*
X80183Y89786D1*
X80707Y88097D1*
X81537Y86568D1*
X82636Y85236D1*
X83968Y84137D1*
X85497Y83307D1*
X87186Y82783D1*
X89000Y82600D1*
X90814Y82783D1*
X92503Y83307D1*
X94032Y84137D1*
X95364Y85236D1*
X96463Y86568D1*
X97293Y88097D1*
X97817Y89786D1*
X98000Y91600D1*
X97817Y93414D1*
X97293Y95103D1*
X96463Y96632D1*
X95364Y97964D1*
X94032Y99063D1*
X92503Y99893D1*
X90814Y100417D1*
X89000Y100600D1*
G37*

G36*
X89000Y126000D2*
X87186Y125817D1*
X85497Y125293D1*
X83968Y124463D1*
X82636Y123364D1*
X81537Y122032D1*
X80707Y120503D1*
X80183Y118814D1*
X80000Y117000D1*
X80183Y115186D1*
X80707Y113497D1*
X81537Y111968D1*
X82636Y110636D1*
X83968Y109537D1*
X85497Y108707D1*
X87186Y108183D1*
X89000Y108000D1*
X90814Y108183D1*
X92503Y108707D1*
X94032Y109537D1*
X95364Y110636D1*
X96463Y111968D1*
X97293Y113497D1*
X97817Y115186D1*
X98000Y117000D1*
X97817Y118814D1*
X97293Y120503D1*
X96463Y122032D1*
X95364Y123364D1*
X94032Y124463D1*
X92503Y125293D1*
X90814Y125817D1*
X89000Y126000D1*
G37*

G36*
X-40484Y7337D2*
X-38218Y8394D1*
X-39356Y10363D1*
X-40808Y12092D1*
X-42537Y13544D1*
X-44506Y14682D1*
X-45563Y12416D1*
X-43972Y11497D1*
X-42575Y10325D1*
X-41403Y8928D1*
X-40484Y7337D1*
G37*

G36*
X-49085Y13360D2*
X-48867Y15851D1*
X-51142Y15850D1*
X-53365Y15457D1*
X-55486Y14686D1*
X-57456Y13549D1*
X-56023Y11501D1*
X-54431Y12419D1*
X-52718Y13042D1*
X-50922Y13359D1*
X-49085Y13360D1*
G37*

G36*
X-58601Y8923D2*
X-60649Y10356D1*
X-61786Y8386D1*
X-62557Y6265D1*
X-62950Y4042D1*
X-62951Y1767D1*
X-60460Y1985D1*
X-60459Y3822D1*
X-60142Y5618D1*
X-59519Y7331D1*
X-58601Y8923D1*
G37*

G36*
X-59516Y-1537D2*
X-61782Y-2594D1*
X-60644Y-4563D1*
X-59192Y-6292D1*
X-57463Y-7744D1*
X-55494Y-8882D1*
X-54437Y-6616D1*
X-56028Y-5697D1*
X-57425Y-4525D1*
X-58597Y-3128D1*
X-59516Y-1537D1*
G37*

G36*
X-50915Y-7560D2*
X-51133Y-10051D1*
X-48858Y-10050D1*
X-46635Y-9657D1*
X-44514Y-8886D1*
X-42544Y-7749D1*
X-43977Y-5701D1*
X-45569Y-6619D1*
X-47282Y-7242D1*
X-49078Y-7559D1*
X-50915Y-7560D1*
G37*

G36*
X-41399Y-3123D2*
X-39351Y-4556D1*
X-38214Y-2586D1*
X-37443Y-465D1*
X-37050Y1758D1*
X-37049Y4033D1*
X-39540Y3815D1*
X-39541Y1978D1*
X-39858Y182D1*
X-40481Y-1531D1*
X-41399Y-3123D1*
G37*

G36*
X54437Y-6616D2*
X55494Y-8882D1*
X57463Y-7744D1*
X59192Y-6292D1*
X60644Y-4563D1*
X61782Y-2594D1*
X59516Y-1537D1*
X58597Y-3128D1*
X57425Y-4525D1*
X56028Y-5697D1*
X54437Y-6616D1*
G37*

G36*
X60460Y1985D2*
X62951Y1767D1*
X62950Y4042D1*
X62557Y6265D1*
X61786Y8386D1*
X60649Y10356D1*
X58601Y8923D1*
X59519Y7331D1*
X60142Y5618D1*
X60459Y3822D1*
X60460Y1985D1*
G37*

G36*
X56023Y11501D2*
X57456Y13549D1*
X55486Y14686D1*
X53365Y15457D1*
X51142Y15850D1*
X48867Y15851D1*
X49085Y13360D1*
X50922Y13359D1*
X52718Y13042D1*
X54431Y12419D1*
X56023Y11501D1*
G37*

G36*
X45563Y12416D2*
X44506Y14682D1*
X42537Y13544D1*
X40808Y12092D1*
X39356Y10363D1*
X38218Y8394D1*
X40484Y7337D1*
X41403Y8928D1*
X42575Y10325D1*
X43972Y11497D1*
X45563Y12416D1*
G37*

G36*
X39540Y3815D2*
X37049Y4033D1*
X37050Y1758D1*
X37443Y-465D1*
X38214Y-2586D1*
X39351Y-4556D1*
X41399Y-3123D1*
X40481Y-1531D1*
X39858Y182D1*
X39541Y1978D1*
X39540Y3815D1*
G37*

G36*
X43977Y-5701D2*
X42544Y-7749D1*
X44514Y-8886D1*
X46635Y-9657D1*
X48858Y-10050D1*
X51133Y-10051D1*
X50915Y-7560D1*
X49078Y-7559D1*
X47282Y-7242D1*
X45569Y-6619D1*
X43977Y-5701D1*
G37*

G36*
X-71850Y-131500D2*
Y-139500D1*
X-79850D1*
Y-131500D1*
X-71850D1*
G37*

G36*
X-71850Y-120500D2*
Y-128500D1*
X-79850D1*
Y-120500D1*
X-71850D1*
G37*

G36*
X-90150Y-120500D2*
Y-128500D1*
X-98150D1*
Y-120500D1*
X-90150D1*
G37*

G36*
X-90150Y-131500D2*
Y-139500D1*
X-98150D1*
Y-131500D1*
X-90150D1*
G37*

G36*
X-20000Y-126300D2*
X-18186Y-126117D1*
X-16497Y-125593D1*
X-14968Y-124763D1*
X-13636Y-123664D1*
X-12537Y-122332D1*
X-11707Y-120803D1*
X-11183Y-119114D1*
X-11000Y-117300D1*
X-11183Y-115486D1*
X-11707Y-113797D1*
X-12537Y-112268D1*
X-13636Y-110936D1*
X-14968Y-109837D1*
X-16497Y-109007D1*
X-18186Y-108483D1*
X-20000Y-108300D1*
X-21814Y-108483D1*
X-23503Y-109007D1*
X-25032Y-109837D1*
X-26364Y-110936D1*
X-27463Y-112268D1*
X-28293Y-113797D1*
X-28817Y-115486D1*
X-29000Y-117300D1*
X-28817Y-119114D1*
X-28293Y-120803D1*
X-27463Y-122332D1*
X-26364Y-123664D1*
X-25032Y-124763D1*
X-23503Y-125593D1*
X-21814Y-126117D1*
X-20000Y-126300D1*
G37*

G36*
X-20000Y-151700D2*
X-18186Y-151517D1*
X-16497Y-150993D1*
X-14968Y-150163D1*
X-13636Y-149064D1*
X-12537Y-147732D1*
X-11707Y-146203D1*
X-11183Y-144514D1*
X-11000Y-142700D1*
X-11183Y-140886D1*
X-11707Y-139197D1*
X-12537Y-137668D1*
X-13636Y-136336D1*
X-14968Y-135237D1*
X-16497Y-134407D1*
X-18186Y-133883D1*
X-20000Y-133700D1*
X-21814Y-133883D1*
X-23503Y-134407D1*
X-25032Y-135237D1*
X-26364Y-136336D1*
X-27463Y-137668D1*
X-28293Y-139197D1*
X-28817Y-140886D1*
X-29000Y-142700D1*
X-28817Y-144514D1*
X-28293Y-146203D1*
X-27463Y-147732D1*
X-26364Y-149064D1*
X-25032Y-150163D1*
X-23503Y-150993D1*
X-21814Y-151517D1*
X-20000Y-151700D1*
G37*

G36*
X-39984Y-125563D2*
X-37718Y-124506D1*
X-38856Y-122537D1*
X-40308Y-120808D1*
X-42037Y-119356D1*
X-44006Y-118218D1*
X-45063Y-120484D1*
X-43472Y-121403D1*
X-42075Y-122575D1*
X-40903Y-123972D1*
X-39984Y-125563D1*
G37*

G36*
X-48585Y-119540D2*
X-48367Y-117049D1*
X-50642Y-117050D1*
X-52865Y-117443D1*
X-54986Y-118214D1*
X-56956Y-119351D1*
X-55523Y-121399D1*
X-53931Y-120481D1*
X-52218Y-119858D1*
X-50422Y-119541D1*
X-48585Y-119540D1*
G37*

G36*
X-58101Y-123977D2*
X-60149Y-122544D1*
X-61286Y-124514D1*
X-62057Y-126635D1*
X-62450Y-128858D1*
X-62451Y-131133D1*
X-59960Y-130915D1*
X-59959Y-129078D1*
X-59642Y-127282D1*
X-59019Y-125569D1*
X-58101Y-123977D1*
G37*

G36*
X-59016Y-134437D2*
X-61282Y-135494D1*
X-60144Y-137463D1*
X-58692Y-139192D1*
X-56963Y-140644D1*
X-54994Y-141782D1*
X-53937Y-139516D1*
X-55528Y-138597D1*
X-56925Y-137425D1*
X-58097Y-136028D1*
X-59016Y-134437D1*
G37*

G36*
X-50415Y-140460D2*
X-50633Y-142951D1*
X-48358Y-142950D1*
X-46135Y-142557D1*
X-44014Y-141786D1*
X-42044Y-140649D1*
X-43477Y-138601D1*
X-45069Y-139519D1*
X-46782Y-140142D1*
X-48578Y-140459D1*
X-50415Y-140460D1*
G37*

G36*
X-40899Y-136023D2*
X-38851Y-137456D1*
X-37714Y-135486D1*
X-36943Y-133365D1*
X-36550Y-131142D1*
X-36549Y-128867D1*
X-39040Y-129085D1*
X-39041Y-130922D1*
X-39358Y-132718D1*
X-39981Y-134431D1*
X-40899Y-136023D1*
G37*

G36*
X38150Y-131500D2*
Y-139500D1*
X30150D1*
Y-131500D1*
X38150D1*
G37*

G36*
X38150Y-120500D2*
Y-128500D1*
X30150D1*
Y-120500D1*
X38150D1*
G37*

G36*
X19850Y-120500D2*
Y-128500D1*
X11850D1*
Y-120500D1*
X19850D1*
G37*

G36*
X19850Y-131500D2*
Y-139500D1*
X11850D1*
Y-131500D1*
X19850D1*
G37*

G36*
X90000Y-126300D2*
X91814Y-126117D1*
X93503Y-125593D1*
X95032Y-124763D1*
X96364Y-123664D1*
X97463Y-122332D1*
X98293Y-120803D1*
X98817Y-119114D1*
X99000Y-117300D1*
X98817Y-115486D1*
X98293Y-113797D1*
X97463Y-112268D1*
X96364Y-110936D1*
X95032Y-109837D1*
X93503Y-109007D1*
X91814Y-108483D1*
X90000Y-108300D1*
X88186Y-108483D1*
X86497Y-109007D1*
X84968Y-109837D1*
X83636Y-110936D1*
X82537Y-112268D1*
X81707Y-113797D1*
X81183Y-115486D1*
X81000Y-117300D1*
X81183Y-119114D1*
X81707Y-120803D1*
X82537Y-122332D1*
X83636Y-123664D1*
X84968Y-124763D1*
X86497Y-125593D1*
X88186Y-126117D1*
X90000Y-126300D1*
G37*

G36*
X90000Y-151700D2*
X91814Y-151517D1*
X93503Y-150993D1*
X95032Y-150163D1*
X96364Y-149064D1*
X97463Y-147732D1*
X98293Y-146203D1*
X98817Y-144514D1*
X99000Y-142700D1*
X98817Y-140886D1*
X98293Y-139197D1*
X97463Y-137668D1*
X96364Y-136336D1*
X95032Y-135237D1*
X93503Y-134407D1*
X91814Y-133883D1*
X90000Y-133700D1*
X88186Y-133883D1*
X86497Y-134407D1*
X84968Y-135237D1*
X83636Y-136336D1*
X82537Y-137668D1*
X81707Y-139197D1*
X81183Y-140886D1*
X81000Y-142700D1*
X81183Y-144514D1*
X81707Y-146203D1*
X82537Y-147732D1*
X83636Y-149064D1*
X84968Y-150163D1*
X86497Y-150993D1*
X88186Y-151517D1*
X90000Y-151700D1*
G37*

G36*
X70016Y-125563D2*
X72282Y-124506D1*
X71144Y-122537D1*
X69692Y-120808D1*
X67963Y-119356D1*
X65994Y-118218D1*
X64937Y-120484D1*
X66528Y-121403D1*
X67925Y-122575D1*
X69097Y-123972D1*
X70016Y-125563D1*
G37*

G36*
X61415Y-119540D2*
X61633Y-117049D1*
X59358Y-117050D1*
X57135Y-117443D1*
X55014Y-118214D1*
X53044Y-119351D1*
X54477Y-121399D1*
X56069Y-120481D1*
X57782Y-119858D1*
X59578Y-119541D1*
X61415Y-119540D1*
G37*

G36*
X51899Y-123977D2*
X49851Y-122544D1*
X48714Y-124514D1*
X47943Y-126635D1*
X47550Y-128858D1*
X47549Y-131133D1*
X50040Y-130915D1*
X50041Y-129078D1*
X50358Y-127282D1*
X50981Y-125569D1*
X51899Y-123977D1*
G37*

G36*
X50984Y-134437D2*
X48718Y-135494D1*
X49856Y-137463D1*
X51308Y-139192D1*
X53037Y-140644D1*
X55006Y-141782D1*
X56063Y-139516D1*
X54472Y-138597D1*
X53075Y-137425D1*
X51903Y-136028D1*
X50984Y-134437D1*
G37*

G36*
X59585Y-140460D2*
X59367Y-142951D1*
X61642Y-142950D1*
X63865Y-142557D1*
X65986Y-141786D1*
X67956Y-140649D1*
X66523Y-138601D1*
X64931Y-139519D1*
X63218Y-140142D1*
X61422Y-140459D1*
X59585Y-140460D1*
G37*

G36*
X69101Y-136023D2*
X71149Y-137456D1*
X72286Y-135486D1*
X73057Y-133365D1*
X73450Y-131142D1*
X73451Y-128867D1*
X70960Y-129085D1*
X70959Y-130922D1*
X70642Y-132718D1*
X70019Y-134431D1*
X69101Y-136023D1*
G37*

M02*
