G75*
%FSLAX44Y44*%
%MOMM*%

G36*
X-44367Y-81409D2*
X-46716Y-80554D1*
X-47304Y-82751D1*
X-47500Y-85000D1*
X-47304Y-87249D1*
X-46716Y-89446D1*
X-44367Y-88591D1*
X-44842Y-86817D1*
X-45000Y-85000D1*
X-44842Y-83183D1*
X-44367Y-81409D1*
G37*

G36*
X-42543Y-91749D2*
X-44459Y-93356D1*
X-42850Y-94964D1*
X-41000Y-96258D1*
X-38954Y-97213D1*
X-36757Y-97803D1*
X-36323Y-95340D1*
X-38098Y-94864D1*
X-39750Y-94093D1*
X-41244Y-93048D1*
X-42543Y-91749D1*
G37*

G36*
X-32677Y-95340D2*
X-32243Y-97803D1*
X-30046Y-97213D1*
X-28000Y-96258D1*
X-26150Y-94964D1*
X-24541Y-93356D1*
X-26457Y-91749D1*
X-27756Y-93048D1*
X-29250Y-94093D1*
X-30902Y-94864D1*
X-32677Y-95340D1*
G37*

G36*
X-24633Y-88591D2*
X-22284Y-89446D1*
X-21696Y-87249D1*
X-21500Y-85000D1*
X-21696Y-82751D1*
X-22284Y-80554D1*
X-24633Y-81409D1*
X-24158Y-83183D1*
X-24000Y-85000D1*
X-24158Y-86817D1*
X-24633Y-88591D1*
G37*

G36*
X-26457Y-78251D2*
X-24541Y-76644D1*
X-26150Y-75036D1*
X-28000Y-73742D1*
X-30046Y-72787D1*
X-32243Y-72197D1*
X-32677Y-74660D1*
X-30902Y-75136D1*
X-29250Y-75907D1*
X-27756Y-76952D1*
X-26457Y-78251D1*
G37*

G36*
X-36323Y-74660D2*
X-36757Y-72197D1*
X-38954Y-72787D1*
X-41000Y-73742D1*
X-42850Y-75036D1*
X-44459Y-76644D1*
X-42543Y-78251D1*
X-41244Y-76952D1*
X-39750Y-75907D1*
X-38098Y-75136D1*
X-36323Y-74660D1*
G37*

G36*
X-88784Y-88394D2*
X-89491Y-88101D1*
X-90198Y-88394D1*
X-93733Y-91930D1*
X-94026Y-92637D1*
X-93733Y-93344D1*
X-93450Y-93627D1*
X-92743Y-93920D1*
X-92036Y-93627D1*
X-88501Y-90091D1*
X-88208Y-89384D1*
X-88501Y-88677D1*
X-88784Y-88394D1*
G37*

G36*
X-85248Y-91930D2*
X-85955Y-91637D1*
X-86662Y-91930D1*
X-90198Y-95465D1*
X-90491Y-96172D1*
X-90198Y-96879D1*
X-89915Y-97162D1*
X-89208Y-97455D1*
X-88501Y-97162D1*
X-84965Y-93627D1*
X-84672Y-92920D1*
X-84965Y-92212D1*
X-85248Y-91930D1*
G37*

G36*
X-81712Y-95465D2*
X-82420Y-95172D1*
X-83127Y-95465D1*
X-86662Y-99001D1*
X-86955Y-99708D1*
X-86662Y-100415D1*
X-86379Y-100698D1*
X-85672Y-100991D1*
X-84965Y-100698D1*
X-81430Y-97162D1*
X-81137Y-96455D1*
X-81430Y-95748D1*
X-81712Y-95465D1*
G37*

G36*
X-78177Y-99001D2*
X-78884Y-98708D1*
X-79591Y-99001D1*
X-83127Y-102536D1*
X-83420Y-103243D1*
X-83127Y-103950D1*
X-82844Y-104233D1*
X-82137Y-104526D1*
X-81430Y-104233D1*
X-77894Y-100698D1*
X-77601Y-99991D1*
X-77894Y-99284D1*
X-78177Y-99001D1*
G37*

G36*
X-71106Y-99284D2*
X-71399Y-99991D1*
X-71106Y-100698D1*
X-67570Y-104233D1*
X-66863Y-104526D1*
X-66156Y-104233D1*
X-65873Y-103950D1*
X-65580Y-103243D1*
X-65873Y-102536D1*
X-69409Y-99001D1*
X-70116Y-98708D1*
X-70823Y-99001D1*
X-71106Y-99284D1*
G37*

G36*
X-67570Y-95748D2*
X-67863Y-96455D1*
X-67570Y-97162D1*
X-64035Y-100698D1*
X-63328Y-100991D1*
X-62621Y-100698D1*
X-62338Y-100415D1*
X-62045Y-99708D1*
X-62338Y-99001D1*
X-65873Y-95465D1*
X-66580Y-95172D1*
X-67288Y-95465D1*
X-67570Y-95748D1*
G37*

G36*
X-64035Y-92212D2*
X-64328Y-92920D1*
X-64035Y-93627D1*
X-60499Y-97162D1*
X-59792Y-97455D1*
X-59085Y-97162D1*
X-58802Y-96879D1*
X-58509Y-96172D1*
X-58802Y-95465D1*
X-62338Y-91930D1*
X-63045Y-91637D1*
X-63752Y-91930D1*
X-64035Y-92212D1*
G37*

G36*
X-60499Y-88677D2*
X-60792Y-89384D1*
X-60499Y-90091D1*
X-56964Y-93627D1*
X-56257Y-93920D1*
X-55550Y-93627D1*
X-55267Y-93344D1*
X-54974Y-92637D1*
X-55267Y-91930D1*
X-58802Y-88394D1*
X-59509Y-88101D1*
X-60216Y-88394D1*
X-60499Y-88677D1*
G37*

G36*
X-60216Y-81606D2*
X-59509Y-81899D1*
X-58802Y-81606D1*
X-55267Y-78070D1*
X-54974Y-77363D1*
X-55267Y-76656D1*
X-55550Y-76373D1*
X-56257Y-76080D1*
X-56964Y-76373D1*
X-60499Y-79909D1*
X-60792Y-80616D1*
X-60499Y-81323D1*
X-60216Y-81606D1*
G37*

G36*
X-63752Y-78070D2*
X-63045Y-78363D1*
X-62338Y-78070D1*
X-58802Y-74535D1*
X-58509Y-73828D1*
X-58802Y-73121D1*
X-59085Y-72838D1*
X-59792Y-72545D1*
X-60499Y-72838D1*
X-64035Y-76373D1*
X-64328Y-77080D1*
X-64035Y-77788D1*
X-63752Y-78070D1*
G37*

G36*
X-67288Y-74535D2*
X-66580Y-74828D1*
X-65873Y-74535D1*
X-62338Y-70999D1*
X-62045Y-70292D1*
X-62338Y-69585D1*
X-62621Y-69302D1*
X-63328Y-69009D1*
X-64035Y-69302D1*
X-67570Y-72838D1*
X-67863Y-73545D1*
X-67570Y-74252D1*
X-67288Y-74535D1*
G37*

G36*
X-70823Y-70999D2*
X-70116Y-71292D1*
X-69409Y-70999D1*
X-65873Y-67464D1*
X-65580Y-66757D1*
X-65873Y-66050D1*
X-66156Y-65767D1*
X-66863Y-65474D1*
X-67570Y-65767D1*
X-71106Y-69302D1*
X-71399Y-70009D1*
X-71106Y-70716D1*
X-70823Y-70999D1*
G37*

G36*
X-77894Y-70716D2*
X-77601Y-70009D1*
X-77894Y-69302D1*
X-81430Y-65767D1*
X-82137Y-65474D1*
X-82844Y-65767D1*
X-83127Y-66050D1*
X-83420Y-66757D1*
X-83127Y-67464D1*
X-79591Y-70999D1*
X-78884Y-71292D1*
X-78177Y-70999D1*
X-77894Y-70716D1*
G37*

G36*
X-81430Y-74252D2*
X-81137Y-73545D1*
X-81430Y-72838D1*
X-84965Y-69302D1*
X-85672Y-69009D1*
X-86379Y-69302D1*
X-86662Y-69585D1*
X-86955Y-70292D1*
X-86662Y-70999D1*
X-83127Y-74535D1*
X-82420Y-74828D1*
X-81712Y-74535D1*
X-81430Y-74252D1*
G37*

G36*
X-84965Y-77788D2*
X-84672Y-77080D1*
X-84965Y-76373D1*
X-88501Y-72838D1*
X-89208Y-72545D1*
X-89915Y-72838D1*
X-90198Y-73121D1*
X-90491Y-73828D1*
X-90198Y-74535D1*
X-86662Y-78070D1*
X-85955Y-78363D1*
X-85248Y-78070D1*
X-84965Y-77788D1*
G37*

G36*
X-88501Y-81323D2*
X-88208Y-80616D1*
X-88501Y-79909D1*
X-92036Y-76373D1*
X-92743Y-76080D1*
X-93450Y-76373D1*
X-93733Y-76656D1*
X-94026Y-77363D1*
X-93733Y-78070D1*
X-90198Y-81606D1*
X-89491Y-81899D1*
X-88784Y-81606D1*
X-88501Y-81323D1*
G37*

G36*
X-74500Y-74393D2*
X-63893Y-85000D1*
X-74500Y-95607D1*
X-85107Y-85000D1*
X-74500Y-74393D1*
G37*

G36*
X-104000Y-130000D2*
X-104707Y-130293D1*
X-105000Y-131000D1*
X-105000Y-148500D1*
X-104707Y-149207D1*
X-104000Y-149500D1*
X-101000Y-149500D1*
X-100293Y-149207D1*
X-100000Y-148500D1*
X-100000Y-131000D1*
X-100293Y-130293D1*
X-101000Y-130000D1*
X-104000Y-130000D1*
G37*

G36*
X-94000Y-110500D2*
X-94707Y-110793D1*
X-95000Y-111500D1*
X-95000Y-129000D1*
X-94707Y-129707D1*
X-94000Y-130000D1*
X-91000Y-130000D1*
X-90293Y-129707D1*
X-90000Y-129000D1*
X-90000Y-111500D1*
X-90293Y-110793D1*
X-91000Y-110500D1*
X-94000Y-110500D1*
G37*

G36*
X-84000Y-130000D2*
X-84707Y-130293D1*
X-85000Y-131000D1*
X-85000Y-148500D1*
X-84707Y-149207D1*
X-84000Y-149500D1*
X-81000Y-149500D1*
X-80293Y-149207D1*
X-80000Y-148500D1*
X-80000Y-131000D1*
X-80293Y-130293D1*
X-81000Y-130000D1*
X-84000Y-130000D1*
G37*

G36*
X-74000Y-110500D2*
X-74707Y-110793D1*
X-75000Y-111500D1*
X-75000Y-129000D1*
X-74707Y-129707D1*
X-74000Y-130000D1*
X-71000Y-130000D1*
X-70293Y-129707D1*
X-70000Y-129000D1*
X-70000Y-111500D1*
X-70293Y-110793D1*
X-71000Y-110500D1*
X-74000Y-110500D1*
G37*

G36*
X-64000Y-130000D2*
X-64707Y-130293D1*
X-65000Y-131000D1*
X-65000Y-148500D1*
X-64707Y-149207D1*
X-64000Y-149500D1*
X-61000Y-149500D1*
X-60293Y-149207D1*
X-60000Y-148500D1*
X-60000Y-131000D1*
X-60293Y-130293D1*
X-61000Y-130000D1*
X-64000Y-130000D1*
G37*

G36*
X-54000Y-110500D2*
X-54707Y-110793D1*
X-55000Y-111500D1*
X-55000Y-129000D1*
X-54707Y-129707D1*
X-54000Y-130000D1*
X-51000Y-130000D1*
X-50293Y-129707D1*
X-50000Y-129000D1*
X-50000Y-111500D1*
X-50293Y-110793D1*
X-51000Y-110500D1*
X-54000Y-110500D1*
G37*

G36*
X-44000Y-130000D2*
X-44707Y-130293D1*
X-45000Y-131000D1*
X-45000Y-148500D1*
X-44707Y-149207D1*
X-44000Y-149500D1*
X-41000Y-149500D1*
X-40293Y-149207D1*
X-40000Y-148500D1*
X-40000Y-131000D1*
X-40293Y-130293D1*
X-41000Y-130000D1*
X-44000Y-130000D1*
G37*

G36*
X-34000Y-110500D2*
X-34707Y-110793D1*
X-35000Y-111500D1*
X-35000Y-129000D1*
X-34707Y-129707D1*
X-34000Y-130000D1*
X-31000Y-130000D1*
X-30293Y-129707D1*
X-30000Y-129000D1*
X-30000Y-111500D1*
X-30293Y-110793D1*
X-31000Y-110500D1*
X-34000Y-110500D1*
G37*

G36*
X-24000Y-130000D2*
X-24707Y-130293D1*
X-25000Y-131000D1*
X-25000Y-148500D1*
X-24707Y-149207D1*
X-24000Y-149500D1*
X-21000Y-149500D1*
X-20293Y-149207D1*
X-20000Y-148500D1*
X-20000Y-131000D1*
X-20293Y-130293D1*
X-21000Y-130000D1*
X-24000Y-130000D1*
G37*

G36*
X-104000Y-20500D2*
X-104707Y-20793D1*
X-105000Y-21500D1*
X-105000Y-39000D1*
X-104707Y-39707D1*
X-104000Y-40000D1*
X-101000Y-40000D1*
X-100293Y-39707D1*
X-100000Y-39000D1*
X-100000Y-21500D1*
X-100293Y-20793D1*
X-101000Y-20500D1*
X-104000Y-20500D1*
G37*

G36*
X-94000Y-40000D2*
X-94707Y-40293D1*
X-95000Y-41000D1*
X-95000Y-58500D1*
X-94707Y-59207D1*
X-94000Y-59500D1*
X-91000Y-59500D1*
X-90293Y-59207D1*
X-90000Y-58500D1*
X-90000Y-41000D1*
X-90293Y-40293D1*
X-91000Y-40000D1*
X-94000Y-40000D1*
G37*

G36*
X-84000Y-20500D2*
X-84707Y-20793D1*
X-85000Y-21500D1*
X-85000Y-39000D1*
X-84707Y-39707D1*
X-84000Y-40000D1*
X-81000Y-40000D1*
X-80293Y-39707D1*
X-80000Y-39000D1*
X-80000Y-21500D1*
X-80293Y-20793D1*
X-81000Y-20500D1*
X-84000Y-20500D1*
G37*

G36*
X-74000Y-40000D2*
X-74707Y-40293D1*
X-75000Y-41000D1*
X-75000Y-58500D1*
X-74707Y-59207D1*
X-74000Y-59500D1*
X-71000Y-59500D1*
X-70293Y-59207D1*
X-70000Y-58500D1*
X-70000Y-41000D1*
X-70293Y-40293D1*
X-71000Y-40000D1*
X-74000Y-40000D1*
G37*

G36*
X-64000Y-20500D2*
X-64707Y-20793D1*
X-65000Y-21500D1*
X-65000Y-39000D1*
X-64707Y-39707D1*
X-64000Y-40000D1*
X-61000Y-40000D1*
X-60293Y-39707D1*
X-60000Y-39000D1*
X-60000Y-21500D1*
X-60293Y-20793D1*
X-61000Y-20500D1*
X-64000Y-20500D1*
G37*

G36*
X-54000Y-40000D2*
X-54707Y-40293D1*
X-55000Y-41000D1*
X-55000Y-58500D1*
X-54707Y-59207D1*
X-54000Y-59500D1*
X-51000Y-59500D1*
X-50293Y-59207D1*
X-50000Y-58500D1*
X-50000Y-41000D1*
X-50293Y-40293D1*
X-51000Y-40000D1*
X-54000Y-40000D1*
G37*

G36*
X-44000Y-20500D2*
X-44707Y-20793D1*
X-45000Y-21500D1*
X-45000Y-39000D1*
X-44707Y-39707D1*
X-44000Y-40000D1*
X-41000Y-40000D1*
X-40293Y-39707D1*
X-40000Y-39000D1*
X-40000Y-21500D1*
X-40293Y-20793D1*
X-41000Y-20500D1*
X-44000Y-20500D1*
G37*

G36*
X-34000Y-40000D2*
X-34707Y-40293D1*
X-35000Y-41000D1*
X-35000Y-58500D1*
X-34707Y-59207D1*
X-34000Y-59500D1*
X-31000Y-59500D1*
X-30293Y-59207D1*
X-30000Y-58500D1*
X-30000Y-41000D1*
X-30293Y-40293D1*
X-31000Y-40000D1*
X-34000Y-40000D1*
G37*

G36*
X-24000Y-20500D2*
X-24707Y-20793D1*
X-25000Y-21500D1*
X-25000Y-39000D1*
X-24707Y-39707D1*
X-24000Y-40000D1*
X-21000Y-40000D1*
X-20293Y-39707D1*
X-20000Y-39000D1*
X-20000Y-21500D1*
X-20293Y-20793D1*
X-21000Y-20500D1*
X-24000Y-20500D1*
G37*

G36*
X80633Y-81409D2*
X78284Y-80554D1*
X77696Y-82751D1*
X77500Y-85000D1*
X77696Y-87249D1*
X78284Y-89446D1*
X80633Y-88591D1*
X80158Y-86817D1*
X80000Y-85000D1*
X80158Y-83183D1*
X80633Y-81409D1*
G37*

G36*
X82457Y-91749D2*
X80541Y-93356D1*
X82150Y-94964D1*
X84000Y-96258D1*
X86046Y-97213D1*
X88243Y-97803D1*
X88677Y-95340D1*
X86902Y-94864D1*
X85250Y-94093D1*
X83756Y-93048D1*
X82457Y-91749D1*
G37*

G36*
X92323Y-95340D2*
X92757Y-97803D1*
X94954Y-97213D1*
X97000Y-96258D1*
X98850Y-94964D1*
X100459Y-93356D1*
X98543Y-91749D1*
X97244Y-93048D1*
X95750Y-94093D1*
X94098Y-94864D1*
X92323Y-95340D1*
G37*

G36*
X100367Y-88591D2*
X102716Y-89446D1*
X103304Y-87249D1*
X103500Y-85000D1*
X103304Y-82751D1*
X102716Y-80554D1*
X100367Y-81409D1*
X100842Y-83183D1*
X101000Y-85000D1*
X100842Y-86817D1*
X100367Y-88591D1*
G37*

G36*
X98543Y-78251D2*
X100459Y-76644D1*
X98850Y-75036D1*
X97000Y-73742D1*
X94954Y-72787D1*
X92757Y-72197D1*
X92323Y-74660D1*
X94098Y-75136D1*
X95750Y-75907D1*
X97244Y-76952D1*
X98543Y-78251D1*
G37*

G36*
X88677Y-74660D2*
X88243Y-72197D1*
X86046Y-72787D1*
X84000Y-73742D1*
X82150Y-75036D1*
X80541Y-76644D1*
X82457Y-78251D1*
X83756Y-76952D1*
X85250Y-75907D1*
X86902Y-75136D1*
X88677Y-74660D1*
G37*

G36*
X36216Y-88394D2*
X35509Y-88101D1*
X34802Y-88394D1*
X31267Y-91930D1*
X30974Y-92637D1*
X31267Y-93344D1*
X31550Y-93627D1*
X32257Y-93920D1*
X32964Y-93627D1*
X36499Y-90091D1*
X36792Y-89384D1*
X36499Y-88677D1*
X36216Y-88394D1*
G37*

G36*
X39752Y-91930D2*
X39045Y-91637D1*
X38338Y-91930D1*
X34802Y-95465D1*
X34509Y-96172D1*
X34802Y-96879D1*
X35085Y-97162D1*
X35792Y-97455D1*
X36499Y-97162D1*
X40035Y-93627D1*
X40328Y-92920D1*
X40035Y-92212D1*
X39752Y-91930D1*
G37*

G36*
X43288Y-95465D2*
X42580Y-95172D1*
X41873Y-95465D1*
X38338Y-99001D1*
X38045Y-99708D1*
X38338Y-100415D1*
X38621Y-100698D1*
X39328Y-100991D1*
X40035Y-100698D1*
X43570Y-97162D1*
X43863Y-96455D1*
X43570Y-95748D1*
X43288Y-95465D1*
G37*

G36*
X46823Y-99001D2*
X46116Y-98708D1*
X45409Y-99001D1*
X41873Y-102536D1*
X41580Y-103243D1*
X41873Y-103950D1*
X42156Y-104233D1*
X42863Y-104526D1*
X43570Y-104233D1*
X47106Y-100698D1*
X47399Y-99991D1*
X47106Y-99284D1*
X46823Y-99001D1*
G37*

G36*
X53894Y-99284D2*
X53601Y-99991D1*
X53894Y-100698D1*
X57430Y-104233D1*
X58137Y-104526D1*
X58844Y-104233D1*
X59127Y-103950D1*
X59420Y-103243D1*
X59127Y-102536D1*
X55591Y-99001D1*
X54884Y-98708D1*
X54177Y-99001D1*
X53894Y-99284D1*
G37*

G36*
X57430Y-95748D2*
X57137Y-96455D1*
X57430Y-97162D1*
X60965Y-100698D1*
X61672Y-100991D1*
X62379Y-100698D1*
X62662Y-100415D1*
X62955Y-99708D1*
X62662Y-99001D1*
X59127Y-95465D1*
X58420Y-95172D1*
X57712Y-95465D1*
X57430Y-95748D1*
G37*

G36*
X60965Y-92212D2*
X60672Y-92920D1*
X60965Y-93627D1*
X64501Y-97162D1*
X65208Y-97455D1*
X65915Y-97162D1*
X66198Y-96879D1*
X66491Y-96172D1*
X66198Y-95465D1*
X62662Y-91930D1*
X61955Y-91637D1*
X61248Y-91930D1*
X60965Y-92212D1*
G37*

G36*
X64501Y-88677D2*
X64208Y-89384D1*
X64501Y-90091D1*
X68036Y-93627D1*
X68743Y-93920D1*
X69450Y-93627D1*
X69733Y-93344D1*
X70026Y-92637D1*
X69733Y-91930D1*
X66198Y-88394D1*
X65491Y-88101D1*
X64784Y-88394D1*
X64501Y-88677D1*
G37*

G36*
X64784Y-81606D2*
X65491Y-81899D1*
X66198Y-81606D1*
X69733Y-78070D1*
X70026Y-77363D1*
X69733Y-76656D1*
X69450Y-76373D1*
X68743Y-76080D1*
X68036Y-76373D1*
X64501Y-79909D1*
X64208Y-80616D1*
X64501Y-81323D1*
X64784Y-81606D1*
G37*

G36*
X61248Y-78070D2*
X61955Y-78363D1*
X62662Y-78070D1*
X66198Y-74535D1*
X66491Y-73828D1*
X66198Y-73121D1*
X65915Y-72838D1*
X65208Y-72545D1*
X64501Y-72838D1*
X60965Y-76373D1*
X60672Y-77080D1*
X60965Y-77788D1*
X61248Y-78070D1*
G37*

G36*
X57712Y-74535D2*
X58420Y-74828D1*
X59127Y-74535D1*
X62662Y-70999D1*
X62955Y-70292D1*
X62662Y-69585D1*
X62379Y-69302D1*
X61672Y-69009D1*
X60965Y-69302D1*
X57430Y-72838D1*
X57137Y-73545D1*
X57430Y-74252D1*
X57712Y-74535D1*
G37*

G36*
X54177Y-70999D2*
X54884Y-71292D1*
X55591Y-70999D1*
X59127Y-67464D1*
X59420Y-66757D1*
X59127Y-66050D1*
X58844Y-65767D1*
X58137Y-65474D1*
X57430Y-65767D1*
X53894Y-69302D1*
X53601Y-70009D1*
X53894Y-70716D1*
X54177Y-70999D1*
G37*

G36*
X47106Y-70716D2*
X47399Y-70009D1*
X47106Y-69302D1*
X43570Y-65767D1*
X42863Y-65474D1*
X42156Y-65767D1*
X41873Y-66050D1*
X41580Y-66757D1*
X41873Y-67464D1*
X45409Y-70999D1*
X46116Y-71292D1*
X46823Y-70999D1*
X47106Y-70716D1*
G37*

G36*
X43570Y-74252D2*
X43863Y-73545D1*
X43570Y-72838D1*
X40035Y-69302D1*
X39328Y-69009D1*
X38621Y-69302D1*
X38338Y-69585D1*
X38045Y-70292D1*
X38338Y-70999D1*
X41873Y-74535D1*
X42580Y-74828D1*
X43288Y-74535D1*
X43570Y-74252D1*
G37*

G36*
X40035Y-77788D2*
X40328Y-77080D1*
X40035Y-76373D1*
X36499Y-72838D1*
X35792Y-72545D1*
X35085Y-72838D1*
X34802Y-73121D1*
X34509Y-73828D1*
X34802Y-74535D1*
X38338Y-78070D1*
X39045Y-78363D1*
X39752Y-78070D1*
X40035Y-77788D1*
G37*

G36*
X36499Y-81323D2*
X36792Y-80616D1*
X36499Y-79909D1*
X32964Y-76373D1*
X32257Y-76080D1*
X31550Y-76373D1*
X31267Y-76656D1*
X30974Y-77363D1*
X31267Y-78070D1*
X34802Y-81606D1*
X35509Y-81899D1*
X36216Y-81606D1*
X36499Y-81323D1*
G37*

G36*
X50500Y-74393D2*
X61107Y-85000D1*
X50500Y-95607D1*
X39893Y-85000D1*
X50500Y-74393D1*
G37*

G36*
X21000Y-130000D2*
X20293Y-130293D1*
X20000Y-131000D1*
X20000Y-148500D1*
X20293Y-149207D1*
X21000Y-149500D1*
X24000Y-149500D1*
X24707Y-149207D1*
X25000Y-148500D1*
X25000Y-131000D1*
X24707Y-130293D1*
X24000Y-130000D1*
X21000Y-130000D1*
G37*

G36*
X31000Y-110500D2*
X30293Y-110793D1*
X30000Y-111500D1*
X30000Y-129000D1*
X30293Y-129707D1*
X31000Y-130000D1*
X34000Y-130000D1*
X34707Y-129707D1*
X35000Y-129000D1*
X35000Y-111500D1*
X34707Y-110793D1*
X34000Y-110500D1*
X31000Y-110500D1*
G37*

G36*
X41000Y-130000D2*
X40293Y-130293D1*
X40000Y-131000D1*
X40000Y-148500D1*
X40293Y-149207D1*
X41000Y-149500D1*
X44000Y-149500D1*
X44707Y-149207D1*
X45000Y-148500D1*
X45000Y-131000D1*
X44707Y-130293D1*
X44000Y-130000D1*
X41000Y-130000D1*
G37*

G36*
X51000Y-110500D2*
X50293Y-110793D1*
X50000Y-111500D1*
X50000Y-129000D1*
X50293Y-129707D1*
X51000Y-130000D1*
X54000Y-130000D1*
X54707Y-129707D1*
X55000Y-129000D1*
X55000Y-111500D1*
X54707Y-110793D1*
X54000Y-110500D1*
X51000Y-110500D1*
G37*

G36*
X61000Y-130000D2*
X60293Y-130293D1*
X60000Y-131000D1*
X60000Y-148500D1*
X60293Y-149207D1*
X61000Y-149500D1*
X64000Y-149500D1*
X64707Y-149207D1*
X65000Y-148500D1*
X65000Y-131000D1*
X64707Y-130293D1*
X64000Y-130000D1*
X61000Y-130000D1*
G37*

G36*
X71000Y-110500D2*
X70293Y-110793D1*
X70000Y-111500D1*
X70000Y-129000D1*
X70293Y-129707D1*
X71000Y-130000D1*
X74000Y-130000D1*
X74707Y-129707D1*
X75000Y-129000D1*
X75000Y-111500D1*
X74707Y-110793D1*
X74000Y-110500D1*
X71000Y-110500D1*
G37*

G36*
X81000Y-130000D2*
X80293Y-130293D1*
X80000Y-131000D1*
X80000Y-148500D1*
X80293Y-149207D1*
X81000Y-149500D1*
X84000Y-149500D1*
X84707Y-149207D1*
X85000Y-148500D1*
X85000Y-131000D1*
X84707Y-130293D1*
X84000Y-130000D1*
X81000Y-130000D1*
G37*

G36*
X91000Y-110500D2*
X90293Y-110793D1*
X90000Y-111500D1*
X90000Y-129000D1*
X90293Y-129707D1*
X91000Y-130000D1*
X94000Y-130000D1*
X94707Y-129707D1*
X95000Y-129000D1*
X95000Y-111500D1*
X94707Y-110793D1*
X94000Y-110500D1*
X91000Y-110500D1*
G37*

G36*
X101000Y-130000D2*
X100293Y-130293D1*
X100000Y-131000D1*
X100000Y-148500D1*
X100293Y-149207D1*
X101000Y-149500D1*
X104000Y-149500D1*
X104707Y-149207D1*
X105000Y-148500D1*
X105000Y-131000D1*
X104707Y-130293D1*
X104000Y-130000D1*
X101000Y-130000D1*
G37*

G36*
X21000Y-20500D2*
X20293Y-20793D1*
X20000Y-21500D1*
X20000Y-39000D1*
X20293Y-39707D1*
X21000Y-40000D1*
X24000Y-40000D1*
X24707Y-39707D1*
X25000Y-39000D1*
X25000Y-21500D1*
X24707Y-20793D1*
X24000Y-20500D1*
X21000Y-20500D1*
G37*

G36*
X31000Y-40000D2*
X30293Y-40293D1*
X30000Y-41000D1*
X30000Y-58500D1*
X30293Y-59207D1*
X31000Y-59500D1*
X34000Y-59500D1*
X34707Y-59207D1*
X35000Y-58500D1*
X35000Y-41000D1*
X34707Y-40293D1*
X34000Y-40000D1*
X31000Y-40000D1*
G37*

G36*
X41000Y-20500D2*
X40293Y-20793D1*
X40000Y-21500D1*
X40000Y-39000D1*
X40293Y-39707D1*
X41000Y-40000D1*
X44000Y-40000D1*
X44707Y-39707D1*
X45000Y-39000D1*
X45000Y-21500D1*
X44707Y-20793D1*
X44000Y-20500D1*
X41000Y-20500D1*
G37*

G36*
X51000Y-40000D2*
X50293Y-40293D1*
X50000Y-41000D1*
X50000Y-58500D1*
X50293Y-59207D1*
X51000Y-59500D1*
X54000Y-59500D1*
X54707Y-59207D1*
X55000Y-58500D1*
X55000Y-41000D1*
X54707Y-40293D1*
X54000Y-40000D1*
X51000Y-40000D1*
G37*

G36*
X61000Y-20500D2*
X60293Y-20793D1*
X60000Y-21500D1*
X60000Y-39000D1*
X60293Y-39707D1*
X61000Y-40000D1*
X64000Y-40000D1*
X64707Y-39707D1*
X65000Y-39000D1*
X65000Y-21500D1*
X64707Y-20793D1*
X64000Y-20500D1*
X61000Y-20500D1*
G37*

G36*
X71000Y-40000D2*
X70293Y-40293D1*
X70000Y-41000D1*
X70000Y-58500D1*
X70293Y-59207D1*
X71000Y-59500D1*
X74000Y-59500D1*
X74707Y-59207D1*
X75000Y-58500D1*
X75000Y-41000D1*
X74707Y-40293D1*
X74000Y-40000D1*
X71000Y-40000D1*
G37*

G36*
X81000Y-20500D2*
X80293Y-20793D1*
X80000Y-21500D1*
X80000Y-39000D1*
X80293Y-39707D1*
X81000Y-40000D1*
X84000Y-40000D1*
X84707Y-39707D1*
X85000Y-39000D1*
X85000Y-21500D1*
X84707Y-20793D1*
X84000Y-20500D1*
X81000Y-20500D1*
G37*

G36*
X91000Y-40000D2*
X90293Y-40293D1*
X90000Y-41000D1*
X90000Y-58500D1*
X90293Y-59207D1*
X91000Y-59500D1*
X94000Y-59500D1*
X94707Y-59207D1*
X95000Y-58500D1*
X95000Y-41000D1*
X94707Y-40293D1*
X94000Y-40000D1*
X91000Y-40000D1*
G37*

G36*
X101000Y-20500D2*
X100293Y-20793D1*
X100000Y-21500D1*
X100000Y-39000D1*
X100293Y-39707D1*
X101000Y-40000D1*
X104000Y-40000D1*
X104707Y-39707D1*
X105000Y-39000D1*
X105000Y-21500D1*
X104707Y-20793D1*
X104000Y-20500D1*
X101000Y-20500D1*
G37*

G36*
X-44367Y88591D2*
X-46716Y89446D1*
X-47304Y87249D1*
X-47500Y85000D1*
X-47304Y82751D1*
X-46716Y80554D1*
X-44367Y81409D1*
X-44842Y83183D1*
X-45000Y85000D1*
X-44842Y86817D1*
X-44367Y88591D1*
G37*

G36*
X-42543Y78251D2*
X-44459Y76644D1*
X-42850Y75036D1*
X-41000Y73742D1*
X-38954Y72787D1*
X-36757Y72197D1*
X-36323Y74660D1*
X-38098Y75136D1*
X-39750Y75907D1*
X-41244Y76952D1*
X-42543Y78251D1*
G37*

G36*
X-32677Y74660D2*
X-32243Y72197D1*
X-30046Y72787D1*
X-28000Y73742D1*
X-26150Y75036D1*
X-24541Y76644D1*
X-26457Y78251D1*
X-27756Y76952D1*
X-29250Y75907D1*
X-30902Y75136D1*
X-32677Y74660D1*
G37*

G36*
X-24633Y81409D2*
X-22284Y80554D1*
X-21696Y82751D1*
X-21500Y85000D1*
X-21696Y87249D1*
X-22284Y89446D1*
X-24633Y88591D1*
X-24158Y86817D1*
X-24000Y85000D1*
X-24158Y83183D1*
X-24633Y81409D1*
G37*

G36*
X-26457Y91749D2*
X-24541Y93356D1*
X-26150Y94964D1*
X-28000Y96258D1*
X-30046Y97213D1*
X-32243Y97803D1*
X-32677Y95340D1*
X-30902Y94864D1*
X-29250Y94093D1*
X-27756Y93048D1*
X-26457Y91749D1*
G37*

G36*
X-36323Y95340D2*
X-36757Y97803D1*
X-38954Y97213D1*
X-41000Y96258D1*
X-42850Y94964D1*
X-44459Y93356D1*
X-42543Y91749D1*
X-41244Y93048D1*
X-39750Y94093D1*
X-38098Y94864D1*
X-36323Y95340D1*
G37*

G36*
X-88784Y81606D2*
X-89491Y81899D1*
X-90198Y81606D1*
X-93733Y78070D1*
X-94026Y77363D1*
X-93733Y76656D1*
X-93450Y76373D1*
X-92743Y76080D1*
X-92036Y76373D1*
X-88501Y79909D1*
X-88208Y80616D1*
X-88501Y81323D1*
X-88784Y81606D1*
G37*

G36*
X-85248Y78070D2*
X-85955Y78363D1*
X-86662Y78070D1*
X-90198Y74535D1*
X-90491Y73828D1*
X-90198Y73121D1*
X-89915Y72838D1*
X-89208Y72545D1*
X-88501Y72838D1*
X-84965Y76373D1*
X-84672Y77080D1*
X-84965Y77788D1*
X-85248Y78070D1*
G37*

G36*
X-81712Y74535D2*
X-82420Y74828D1*
X-83127Y74535D1*
X-86662Y70999D1*
X-86955Y70292D1*
X-86662Y69585D1*
X-86379Y69302D1*
X-85672Y69009D1*
X-84965Y69302D1*
X-81430Y72838D1*
X-81137Y73545D1*
X-81430Y74252D1*
X-81712Y74535D1*
G37*

G36*
X-78177Y70999D2*
X-78884Y71292D1*
X-79591Y70999D1*
X-83127Y67464D1*
X-83420Y66757D1*
X-83127Y66050D1*
X-82844Y65767D1*
X-82137Y65474D1*
X-81430Y65767D1*
X-77894Y69302D1*
X-77601Y70009D1*
X-77894Y70716D1*
X-78177Y70999D1*
G37*

G36*
X-71106Y70716D2*
X-71399Y70009D1*
X-71106Y69302D1*
X-67570Y65767D1*
X-66863Y65474D1*
X-66156Y65767D1*
X-65873Y66050D1*
X-65580Y66757D1*
X-65873Y67464D1*
X-69409Y70999D1*
X-70116Y71292D1*
X-70823Y70999D1*
X-71106Y70716D1*
G37*

G36*
X-67570Y74252D2*
X-67863Y73545D1*
X-67570Y72838D1*
X-64035Y69302D1*
X-63328Y69009D1*
X-62621Y69302D1*
X-62338Y69585D1*
X-62045Y70292D1*
X-62338Y70999D1*
X-65873Y74535D1*
X-66580Y74828D1*
X-67288Y74535D1*
X-67570Y74252D1*
G37*

G36*
X-64035Y77788D2*
X-64328Y77080D1*
X-64035Y76373D1*
X-60499Y72838D1*
X-59792Y72545D1*
X-59085Y72838D1*
X-58802Y73121D1*
X-58509Y73828D1*
X-58802Y74535D1*
X-62338Y78070D1*
X-63045Y78363D1*
X-63752Y78070D1*
X-64035Y77788D1*
G37*

G36*
X-60499Y81323D2*
X-60792Y80616D1*
X-60499Y79909D1*
X-56964Y76373D1*
X-56257Y76080D1*
X-55550Y76373D1*
X-55267Y76656D1*
X-54974Y77363D1*
X-55267Y78070D1*
X-58802Y81606D1*
X-59509Y81899D1*
X-60216Y81606D1*
X-60499Y81323D1*
G37*

G36*
X-60216Y88394D2*
X-59509Y88101D1*
X-58802Y88394D1*
X-55267Y91930D1*
X-54974Y92637D1*
X-55267Y93344D1*
X-55550Y93627D1*
X-56257Y93920D1*
X-56964Y93627D1*
X-60499Y90091D1*
X-60792Y89384D1*
X-60499Y88677D1*
X-60216Y88394D1*
G37*

G36*
X-63752Y91930D2*
X-63045Y91637D1*
X-62338Y91930D1*
X-58802Y95465D1*
X-58509Y96172D1*
X-58802Y96879D1*
X-59085Y97162D1*
X-59792Y97455D1*
X-60499Y97162D1*
X-64035Y93627D1*
X-64328Y92920D1*
X-64035Y92212D1*
X-63752Y91930D1*
G37*

G36*
X-67288Y95465D2*
X-66580Y95172D1*
X-65873Y95465D1*
X-62338Y99001D1*
X-62045Y99708D1*
X-62338Y100415D1*
X-62621Y100698D1*
X-63328Y100991D1*
X-64035Y100698D1*
X-67570Y97162D1*
X-67863Y96455D1*
X-67570Y95748D1*
X-67288Y95465D1*
G37*

G36*
X-70823Y99001D2*
X-70116Y98708D1*
X-69409Y99001D1*
X-65873Y102536D1*
X-65580Y103243D1*
X-65873Y103950D1*
X-66156Y104233D1*
X-66863Y104526D1*
X-67570Y104233D1*
X-71106Y100698D1*
X-71399Y99991D1*
X-71106Y99284D1*
X-70823Y99001D1*
G37*

G36*
X-77894Y99284D2*
X-77601Y99991D1*
X-77894Y100698D1*
X-81430Y104233D1*
X-82137Y104526D1*
X-82844Y104233D1*
X-83127Y103950D1*
X-83420Y103243D1*
X-83127Y102536D1*
X-79591Y99001D1*
X-78884Y98708D1*
X-78177Y99001D1*
X-77894Y99284D1*
G37*

G36*
X-81430Y95748D2*
X-81137Y96455D1*
X-81430Y97162D1*
X-84965Y100698D1*
X-85672Y100991D1*
X-86379Y100698D1*
X-86662Y100415D1*
X-86955Y99708D1*
X-86662Y99001D1*
X-83127Y95465D1*
X-82420Y95172D1*
X-81712Y95465D1*
X-81430Y95748D1*
G37*

G36*
X-84965Y92212D2*
X-84672Y92920D1*
X-84965Y93627D1*
X-88501Y97162D1*
X-89208Y97455D1*
X-89915Y97162D1*
X-90198Y96879D1*
X-90491Y96172D1*
X-90198Y95465D1*
X-86662Y91930D1*
X-85955Y91637D1*
X-85248Y91930D1*
X-84965Y92212D1*
G37*

G36*
X-88501Y88677D2*
X-88208Y89384D1*
X-88501Y90091D1*
X-92036Y93627D1*
X-92743Y93920D1*
X-93450Y93627D1*
X-93733Y93344D1*
X-94026Y92637D1*
X-93733Y91930D1*
X-90198Y88394D1*
X-89491Y88101D1*
X-88784Y88394D1*
X-88501Y88677D1*
G37*

G36*
X-74500Y95607D2*
X-63893Y85000D1*
X-74500Y74393D1*
X-85107Y85000D1*
X-74500Y95607D1*
G37*

G36*
X-104000Y40000D2*
X-104707Y39707D1*
X-105000Y39000D1*
X-105000Y21500D1*
X-104707Y20793D1*
X-104000Y20500D1*
X-101000Y20500D1*
X-100293Y20793D1*
X-100000Y21500D1*
X-100000Y39000D1*
X-100293Y39707D1*
X-101000Y40000D1*
X-104000Y40000D1*
G37*

G36*
X-94000Y59500D2*
X-94707Y59207D1*
X-95000Y58500D1*
X-95000Y41000D1*
X-94707Y40293D1*
X-94000Y40000D1*
X-91000Y40000D1*
X-90293Y40293D1*
X-90000Y41000D1*
X-90000Y58500D1*
X-90293Y59207D1*
X-91000Y59500D1*
X-94000Y59500D1*
G37*

G36*
X-84000Y40000D2*
X-84707Y39707D1*
X-85000Y39000D1*
X-85000Y21500D1*
X-84707Y20793D1*
X-84000Y20500D1*
X-81000Y20500D1*
X-80293Y20793D1*
X-80000Y21500D1*
X-80000Y39000D1*
X-80293Y39707D1*
X-81000Y40000D1*
X-84000Y40000D1*
G37*

G36*
X-74000Y59500D2*
X-74707Y59207D1*
X-75000Y58500D1*
X-75000Y41000D1*
X-74707Y40293D1*
X-74000Y40000D1*
X-71000Y40000D1*
X-70293Y40293D1*
X-70000Y41000D1*
X-70000Y58500D1*
X-70293Y59207D1*
X-71000Y59500D1*
X-74000Y59500D1*
G37*

G36*
X-64000Y40000D2*
X-64707Y39707D1*
X-65000Y39000D1*
X-65000Y21500D1*
X-64707Y20793D1*
X-64000Y20500D1*
X-61000Y20500D1*
X-60293Y20793D1*
X-60000Y21500D1*
X-60000Y39000D1*
X-60293Y39707D1*
X-61000Y40000D1*
X-64000Y40000D1*
G37*

G36*
X-54000Y59500D2*
X-54707Y59207D1*
X-55000Y58500D1*
X-55000Y41000D1*
X-54707Y40293D1*
X-54000Y40000D1*
X-51000Y40000D1*
X-50293Y40293D1*
X-50000Y41000D1*
X-50000Y58500D1*
X-50293Y59207D1*
X-51000Y59500D1*
X-54000Y59500D1*
G37*

G36*
X-44000Y40000D2*
X-44707Y39707D1*
X-45000Y39000D1*
X-45000Y21500D1*
X-44707Y20793D1*
X-44000Y20500D1*
X-41000Y20500D1*
X-40293Y20793D1*
X-40000Y21500D1*
X-40000Y39000D1*
X-40293Y39707D1*
X-41000Y40000D1*
X-44000Y40000D1*
G37*

G36*
X-34000Y59500D2*
X-34707Y59207D1*
X-35000Y58500D1*
X-35000Y41000D1*
X-34707Y40293D1*
X-34000Y40000D1*
X-31000Y40000D1*
X-30293Y40293D1*
X-30000Y41000D1*
X-30000Y58500D1*
X-30293Y59207D1*
X-31000Y59500D1*
X-34000Y59500D1*
G37*

G36*
X-24000Y40000D2*
X-24707Y39707D1*
X-25000Y39000D1*
X-25000Y21500D1*
X-24707Y20793D1*
X-24000Y20500D1*
X-21000Y20500D1*
X-20293Y20793D1*
X-20000Y21500D1*
X-20000Y39000D1*
X-20293Y39707D1*
X-21000Y40000D1*
X-24000Y40000D1*
G37*

G36*
X-104000Y149500D2*
X-104707Y149207D1*
X-105000Y148500D1*
X-105000Y131000D1*
X-104707Y130293D1*
X-104000Y130000D1*
X-101000Y130000D1*
X-100293Y130293D1*
X-100000Y131000D1*
X-100000Y148500D1*
X-100293Y149207D1*
X-101000Y149500D1*
X-104000Y149500D1*
G37*

G36*
X-94000Y130000D2*
X-94707Y129707D1*
X-95000Y129000D1*
X-95000Y111500D1*
X-94707Y110793D1*
X-94000Y110500D1*
X-91000Y110500D1*
X-90293Y110793D1*
X-90000Y111500D1*
X-90000Y129000D1*
X-90293Y129707D1*
X-91000Y130000D1*
X-94000Y130000D1*
G37*

G36*
X-84000Y149500D2*
X-84707Y149207D1*
X-85000Y148500D1*
X-85000Y131000D1*
X-84707Y130293D1*
X-84000Y130000D1*
X-81000Y130000D1*
X-80293Y130293D1*
X-80000Y131000D1*
X-80000Y148500D1*
X-80293Y149207D1*
X-81000Y149500D1*
X-84000Y149500D1*
G37*

G36*
X-74000Y130000D2*
X-74707Y129707D1*
X-75000Y129000D1*
X-75000Y111500D1*
X-74707Y110793D1*
X-74000Y110500D1*
X-71000Y110500D1*
X-70293Y110793D1*
X-70000Y111500D1*
X-70000Y129000D1*
X-70293Y129707D1*
X-71000Y130000D1*
X-74000Y130000D1*
G37*

G36*
X-64000Y149500D2*
X-64707Y149207D1*
X-65000Y148500D1*
X-65000Y131000D1*
X-64707Y130293D1*
X-64000Y130000D1*
X-61000Y130000D1*
X-60293Y130293D1*
X-60000Y131000D1*
X-60000Y148500D1*
X-60293Y149207D1*
X-61000Y149500D1*
X-64000Y149500D1*
G37*

G36*
X-54000Y130000D2*
X-54707Y129707D1*
X-55000Y129000D1*
X-55000Y111500D1*
X-54707Y110793D1*
X-54000Y110500D1*
X-51000Y110500D1*
X-50293Y110793D1*
X-50000Y111500D1*
X-50000Y129000D1*
X-50293Y129707D1*
X-51000Y130000D1*
X-54000Y130000D1*
G37*

G36*
X-44000Y149500D2*
X-44707Y149207D1*
X-45000Y148500D1*
X-45000Y131000D1*
X-44707Y130293D1*
X-44000Y130000D1*
X-41000Y130000D1*
X-40293Y130293D1*
X-40000Y131000D1*
X-40000Y148500D1*
X-40293Y149207D1*
X-41000Y149500D1*
X-44000Y149500D1*
G37*

G36*
X-34000Y130000D2*
X-34707Y129707D1*
X-35000Y129000D1*
X-35000Y111500D1*
X-34707Y110793D1*
X-34000Y110500D1*
X-31000Y110500D1*
X-30293Y110793D1*
X-30000Y111500D1*
X-30000Y129000D1*
X-30293Y129707D1*
X-31000Y130000D1*
X-34000Y130000D1*
G37*

G36*
X-24000Y149500D2*
X-24707Y149207D1*
X-25000Y148500D1*
X-25000Y131000D1*
X-24707Y130293D1*
X-24000Y130000D1*
X-21000Y130000D1*
X-20293Y130293D1*
X-20000Y131000D1*
X-20000Y148500D1*
X-20293Y149207D1*
X-21000Y149500D1*
X-24000Y149500D1*
G37*

G36*
X80633Y88591D2*
X78284Y89446D1*
X77696Y87249D1*
X77500Y85000D1*
X77696Y82751D1*
X78284Y80554D1*
X80633Y81409D1*
X80158Y83183D1*
X80000Y85000D1*
X80158Y86817D1*
X80633Y88591D1*
G37*

G36*
X82457Y78251D2*
X80541Y76644D1*
X82150Y75036D1*
X84000Y73742D1*
X86046Y72787D1*
X88243Y72197D1*
X88677Y74660D1*
X86902Y75136D1*
X85250Y75907D1*
X83756Y76952D1*
X82457Y78251D1*
G37*

G36*
X92323Y74660D2*
X92757Y72197D1*
X94954Y72787D1*
X97000Y73742D1*
X98850Y75036D1*
X100459Y76644D1*
X98543Y78251D1*
X97244Y76952D1*
X95750Y75907D1*
X94098Y75136D1*
X92323Y74660D1*
G37*

G36*
X100367Y81409D2*
X102716Y80554D1*
X103304Y82751D1*
X103500Y85000D1*
X103304Y87249D1*
X102716Y89446D1*
X100367Y88591D1*
X100842Y86817D1*
X101000Y85000D1*
X100842Y83183D1*
X100367Y81409D1*
G37*

G36*
X98543Y91749D2*
X100459Y93356D1*
X98850Y94964D1*
X97000Y96258D1*
X94954Y97213D1*
X92757Y97803D1*
X92323Y95340D1*
X94098Y94864D1*
X95750Y94093D1*
X97244Y93048D1*
X98543Y91749D1*
G37*

G36*
X88677Y95340D2*
X88243Y97803D1*
X86046Y97213D1*
X84000Y96258D1*
X82150Y94964D1*
X80541Y93356D1*
X82457Y91749D1*
X83756Y93048D1*
X85250Y94093D1*
X86902Y94864D1*
X88677Y95340D1*
G37*

G36*
X36216Y81606D2*
X35509Y81899D1*
X34802Y81606D1*
X31267Y78070D1*
X30974Y77363D1*
X31267Y76656D1*
X31550Y76373D1*
X32257Y76080D1*
X32964Y76373D1*
X36499Y79909D1*
X36792Y80616D1*
X36499Y81323D1*
X36216Y81606D1*
G37*

G36*
X39752Y78070D2*
X39045Y78363D1*
X38338Y78070D1*
X34802Y74535D1*
X34509Y73828D1*
X34802Y73121D1*
X35085Y72838D1*
X35792Y72545D1*
X36499Y72838D1*
X40035Y76373D1*
X40328Y77080D1*
X40035Y77788D1*
X39752Y78070D1*
G37*

G36*
X43288Y74535D2*
X42580Y74828D1*
X41873Y74535D1*
X38338Y70999D1*
X38045Y70292D1*
X38338Y69585D1*
X38621Y69302D1*
X39328Y69009D1*
X40035Y69302D1*
X43570Y72838D1*
X43863Y73545D1*
X43570Y74252D1*
X43288Y74535D1*
G37*

G36*
X46823Y70999D2*
X46116Y71292D1*
X45409Y70999D1*
X41873Y67464D1*
X41580Y66757D1*
X41873Y66050D1*
X42156Y65767D1*
X42863Y65474D1*
X43570Y65767D1*
X47106Y69302D1*
X47399Y70009D1*
X47106Y70716D1*
X46823Y70999D1*
G37*

G36*
X53894Y70716D2*
X53601Y70009D1*
X53894Y69302D1*
X57430Y65767D1*
X58137Y65474D1*
X58844Y65767D1*
X59127Y66050D1*
X59420Y66757D1*
X59127Y67464D1*
X55591Y70999D1*
X54884Y71292D1*
X54177Y70999D1*
X53894Y70716D1*
G37*

G36*
X57430Y74252D2*
X57137Y73545D1*
X57430Y72838D1*
X60965Y69302D1*
X61672Y69009D1*
X62379Y69302D1*
X62662Y69585D1*
X62955Y70292D1*
X62662Y70999D1*
X59127Y74535D1*
X58420Y74828D1*
X57712Y74535D1*
X57430Y74252D1*
G37*

G36*
X60965Y77788D2*
X60672Y77080D1*
X60965Y76373D1*
X64501Y72838D1*
X65208Y72545D1*
X65915Y72838D1*
X66198Y73121D1*
X66491Y73828D1*
X66198Y74535D1*
X62662Y78070D1*
X61955Y78363D1*
X61248Y78070D1*
X60965Y77788D1*
G37*

G36*
X64501Y81323D2*
X64208Y80616D1*
X64501Y79909D1*
X68036Y76373D1*
X68743Y76080D1*
X69450Y76373D1*
X69733Y76656D1*
X70026Y77363D1*
X69733Y78070D1*
X66198Y81606D1*
X65491Y81899D1*
X64784Y81606D1*
X64501Y81323D1*
G37*

G36*
X64784Y88394D2*
X65491Y88101D1*
X66198Y88394D1*
X69733Y91930D1*
X70026Y92637D1*
X69733Y93344D1*
X69450Y93627D1*
X68743Y93920D1*
X68036Y93627D1*
X64501Y90091D1*
X64208Y89384D1*
X64501Y88677D1*
X64784Y88394D1*
G37*

G36*
X61248Y91930D2*
X61955Y91637D1*
X62662Y91930D1*
X66198Y95465D1*
X66491Y96172D1*
X66198Y96879D1*
X65915Y97162D1*
X65208Y97455D1*
X64501Y97162D1*
X60965Y93627D1*
X60672Y92920D1*
X60965Y92212D1*
X61248Y91930D1*
G37*

G36*
X57712Y95465D2*
X58420Y95172D1*
X59127Y95465D1*
X62662Y99001D1*
X62955Y99708D1*
X62662Y100415D1*
X62379Y100698D1*
X61672Y100991D1*
X60965Y100698D1*
X57430Y97162D1*
X57137Y96455D1*
X57430Y95748D1*
X57712Y95465D1*
G37*

G36*
X54177Y99001D2*
X54884Y98708D1*
X55591Y99001D1*
X59127Y102536D1*
X59420Y103243D1*
X59127Y103950D1*
X58844Y104233D1*
X58137Y104526D1*
X57430Y104233D1*
X53894Y100698D1*
X53601Y99991D1*
X53894Y99284D1*
X54177Y99001D1*
G37*

G36*
X47106Y99284D2*
X47399Y99991D1*
X47106Y100698D1*
X43570Y104233D1*
X42863Y104526D1*
X42156Y104233D1*
X41873Y103950D1*
X41580Y103243D1*
X41873Y102536D1*
X45409Y99001D1*
X46116Y98708D1*
X46823Y99001D1*
X47106Y99284D1*
G37*

G36*
X43570Y95748D2*
X43863Y96455D1*
X43570Y97162D1*
X40035Y100698D1*
X39328Y100991D1*
X38621Y100698D1*
X38338Y100415D1*
X38045Y99708D1*
X38338Y99001D1*
X41873Y95465D1*
X42580Y95172D1*
X43288Y95465D1*
X43570Y95748D1*
G37*

G36*
X40035Y92212D2*
X40328Y92920D1*
X40035Y93627D1*
X36499Y97162D1*
X35792Y97455D1*
X35085Y97162D1*
X34802Y96879D1*
X34509Y96172D1*
X34802Y95465D1*
X38338Y91930D1*
X39045Y91637D1*
X39752Y91930D1*
X40035Y92212D1*
G37*

G36*
X36499Y88677D2*
X36792Y89384D1*
X36499Y90091D1*
X32964Y93627D1*
X32257Y93920D1*
X31550Y93627D1*
X31267Y93344D1*
X30974Y92637D1*
X31267Y91930D1*
X34802Y88394D1*
X35509Y88101D1*
X36216Y88394D1*
X36499Y88677D1*
G37*

G36*
X50500Y95607D2*
X61107Y85000D1*
X50500Y74393D1*
X39893Y85000D1*
X50500Y95607D1*
G37*

G36*
X21000Y40000D2*
X20293Y39707D1*
X20000Y39000D1*
X20000Y21500D1*
X20293Y20793D1*
X21000Y20500D1*
X24000Y20500D1*
X24707Y20793D1*
X25000Y21500D1*
X25000Y39000D1*
X24707Y39707D1*
X24000Y40000D1*
X21000Y40000D1*
G37*

G36*
X31000Y59500D2*
X30293Y59207D1*
X30000Y58500D1*
X30000Y41000D1*
X30293Y40293D1*
X31000Y40000D1*
X34000Y40000D1*
X34707Y40293D1*
X35000Y41000D1*
X35000Y58500D1*
X34707Y59207D1*
X34000Y59500D1*
X31000Y59500D1*
G37*

G36*
X41000Y40000D2*
X40293Y39707D1*
X40000Y39000D1*
X40000Y21500D1*
X40293Y20793D1*
X41000Y20500D1*
X44000Y20500D1*
X44707Y20793D1*
X45000Y21500D1*
X45000Y39000D1*
X44707Y39707D1*
X44000Y40000D1*
X41000Y40000D1*
G37*

G36*
X51000Y59500D2*
X50293Y59207D1*
X50000Y58500D1*
X50000Y41000D1*
X50293Y40293D1*
X51000Y40000D1*
X54000Y40000D1*
X54707Y40293D1*
X55000Y41000D1*
X55000Y58500D1*
X54707Y59207D1*
X54000Y59500D1*
X51000Y59500D1*
G37*

G36*
X61000Y40000D2*
X60293Y39707D1*
X60000Y39000D1*
X60000Y21500D1*
X60293Y20793D1*
X61000Y20500D1*
X64000Y20500D1*
X64707Y20793D1*
X65000Y21500D1*
X65000Y39000D1*
X64707Y39707D1*
X64000Y40000D1*
X61000Y40000D1*
G37*

G36*
X71000Y59500D2*
X70293Y59207D1*
X70000Y58500D1*
X70000Y41000D1*
X70293Y40293D1*
X71000Y40000D1*
X74000Y40000D1*
X74707Y40293D1*
X75000Y41000D1*
X75000Y58500D1*
X74707Y59207D1*
X74000Y59500D1*
X71000Y59500D1*
G37*

G36*
X81000Y40000D2*
X80293Y39707D1*
X80000Y39000D1*
X80000Y21500D1*
X80293Y20793D1*
X81000Y20500D1*
X84000Y20500D1*
X84707Y20793D1*
X85000Y21500D1*
X85000Y39000D1*
X84707Y39707D1*
X84000Y40000D1*
X81000Y40000D1*
G37*

G36*
X91000Y59500D2*
X90293Y59207D1*
X90000Y58500D1*
X90000Y41000D1*
X90293Y40293D1*
X91000Y40000D1*
X94000Y40000D1*
X94707Y40293D1*
X95000Y41000D1*
X95000Y58500D1*
X94707Y59207D1*
X94000Y59500D1*
X91000Y59500D1*
G37*

G36*
X101000Y40000D2*
X100293Y39707D1*
X100000Y39000D1*
X100000Y21500D1*
X100293Y20793D1*
X101000Y20500D1*
X104000Y20500D1*
X104707Y20793D1*
X105000Y21500D1*
X105000Y39000D1*
X104707Y39707D1*
X104000Y40000D1*
X101000Y40000D1*
G37*

G36*
X21000Y149500D2*
X20293Y149207D1*
X20000Y148500D1*
X20000Y131000D1*
X20293Y130293D1*
X21000Y130000D1*
X24000Y130000D1*
X24707Y130293D1*
X25000Y131000D1*
X25000Y148500D1*
X24707Y149207D1*
X24000Y149500D1*
X21000Y149500D1*
G37*

G36*
X31000Y130000D2*
X30293Y129707D1*
X30000Y129000D1*
X30000Y111500D1*
X30293Y110793D1*
X31000Y110500D1*
X34000Y110500D1*
X34707Y110793D1*
X35000Y111500D1*
X35000Y129000D1*
X34707Y129707D1*
X34000Y130000D1*
X31000Y130000D1*
G37*

G36*
X41000Y149500D2*
X40293Y149207D1*
X40000Y148500D1*
X40000Y131000D1*
X40293Y130293D1*
X41000Y130000D1*
X44000Y130000D1*
X44707Y130293D1*
X45000Y131000D1*
X45000Y148500D1*
X44707Y149207D1*
X44000Y149500D1*
X41000Y149500D1*
G37*

G36*
X51000Y130000D2*
X50293Y129707D1*
X50000Y129000D1*
X50000Y111500D1*
X50293Y110793D1*
X51000Y110500D1*
X54000Y110500D1*
X54707Y110793D1*
X55000Y111500D1*
X55000Y129000D1*
X54707Y129707D1*
X54000Y130000D1*
X51000Y130000D1*
G37*

G36*
X61000Y149500D2*
X60293Y149207D1*
X60000Y148500D1*
X60000Y131000D1*
X60293Y130293D1*
X61000Y130000D1*
X64000Y130000D1*
X64707Y130293D1*
X65000Y131000D1*
X65000Y148500D1*
X64707Y149207D1*
X64000Y149500D1*
X61000Y149500D1*
G37*

G36*
X71000Y130000D2*
X70293Y129707D1*
X70000Y129000D1*
X70000Y111500D1*
X70293Y110793D1*
X71000Y110500D1*
X74000Y110500D1*
X74707Y110793D1*
X75000Y111500D1*
X75000Y129000D1*
X74707Y129707D1*
X74000Y130000D1*
X71000Y130000D1*
G37*

G36*
X81000Y149500D2*
X80293Y149207D1*
X80000Y148500D1*
X80000Y131000D1*
X80293Y130293D1*
X81000Y130000D1*
X84000Y130000D1*
X84707Y130293D1*
X85000Y131000D1*
X85000Y148500D1*
X84707Y149207D1*
X84000Y149500D1*
X81000Y149500D1*
G37*

G36*
X91000Y130000D2*
X90293Y129707D1*
X90000Y129000D1*
X90000Y111500D1*
X90293Y110793D1*
X91000Y110500D1*
X94000Y110500D1*
X94707Y110793D1*
X95000Y111500D1*
X95000Y129000D1*
X94707Y129707D1*
X94000Y130000D1*
X91000Y130000D1*
G37*

G36*
X101000Y149500D2*
X100293Y149207D1*
X100000Y148500D1*
X100000Y131000D1*
X100293Y130293D1*
X101000Y130000D1*
X104000Y130000D1*
X104707Y130293D1*
X105000Y131000D1*
X105000Y148500D1*
X104707Y149207D1*
X104000Y149500D1*
X101000Y149500D1*
G37*

M02*
