G75*
%FSLAX44Y44*%
%MOMM*%

G36*
X3591Y-18133D2*
X4446Y-15784D1*
X2249Y-15196D1*
X0Y-15000D1*
X-2249Y-15196D1*
X-4446Y-15784D1*
X-3591Y-18133D1*
X-1817Y-17658D1*
X0Y-17500D1*
X1817Y-17658D1*
X3591Y-18133D1*
G37*

G36*
X-6749Y-19957D2*
X-8356Y-18041D1*
X-9964Y-19650D1*
X-11258Y-21500D1*
X-12213Y-23546D1*
X-12803Y-25743D1*
X-10340Y-26177D1*
X-9864Y-24402D1*
X-9093Y-22750D1*
X-8048Y-21256D1*
X-6749Y-19957D1*
G37*

G36*
X-10340Y-29823D2*
X-12803Y-30257D1*
X-12213Y-32454D1*
X-11258Y-34500D1*
X-9964Y-36350D1*
X-8356Y-37959D1*
X-6749Y-36043D1*
X-8048Y-34744D1*
X-9093Y-33250D1*
X-9864Y-31598D1*
X-10340Y-29823D1*
G37*

G36*
X-3591Y-37867D2*
X-4446Y-40216D1*
X-2249Y-40804D1*
X0Y-41000D1*
X2249Y-40804D1*
X4446Y-40216D1*
X3591Y-37867D1*
X1817Y-38342D1*
X0Y-38500D1*
X-1817Y-38342D1*
X-3591Y-37867D1*
G37*

G36*
X6749Y-36043D2*
X8356Y-37959D1*
X9964Y-36350D1*
X11258Y-34500D1*
X12213Y-32454D1*
X12803Y-30257D1*
X10340Y-29823D1*
X9864Y-31598D1*
X9093Y-33250D1*
X8048Y-34744D1*
X6749Y-36043D1*
G37*

G36*
X10340Y-26177D2*
X12803Y-25743D1*
X12213Y-23546D1*
X11258Y-21500D1*
X9964Y-19650D1*
X8356Y-18041D1*
X6749Y-19957D1*
X8048Y-21256D1*
X9093Y-22750D1*
X9864Y-24402D1*
X10340Y-26177D1*
G37*

G36*
X-3394Y26284D2*
X-3101Y26991D1*
X-3394Y27698D1*
X-6930Y31233D1*
X-7637Y31526D1*
X-8344Y31233D1*
X-8627Y30950D1*
X-8920Y30243D1*
X-8627Y29536D1*
X-5091Y26001D1*
X-4384Y25708D1*
X-3677Y26001D1*
X-3394Y26284D1*
G37*

G36*
X-6930Y22748D2*
X-6637Y23455D1*
X-6930Y24162D1*
X-10465Y27698D1*
X-11172Y27991D1*
X-11879Y27698D1*
X-12162Y27415D1*
X-12455Y26708D1*
X-12162Y26001D1*
X-8627Y22465D1*
X-7920Y22172D1*
X-7212Y22465D1*
X-6930Y22748D1*
G37*

G36*
X-10465Y19212D2*
X-10172Y19920D1*
X-10465Y20627D1*
X-14001Y24162D1*
X-14708Y24455D1*
X-15415Y24162D1*
X-15698Y23879D1*
X-15991Y23172D1*
X-15698Y22465D1*
X-12162Y18930D1*
X-11455Y18637D1*
X-10748Y18930D1*
X-10465Y19212D1*
G37*

G36*
X-14001Y15677D2*
X-13708Y16384D1*
X-14001Y17091D1*
X-17536Y20627D1*
X-18243Y20920D1*
X-18950Y20627D1*
X-19233Y20344D1*
X-19526Y19637D1*
X-19233Y18930D1*
X-15698Y15394D1*
X-14991Y15101D1*
X-14284Y15394D1*
X-14001Y15677D1*
G37*

G36*
X-14284Y8606D2*
X-14991Y8899D1*
X-15698Y8606D1*
X-19233Y5070D1*
X-19526Y4363D1*
X-19233Y3656D1*
X-18950Y3373D1*
X-18243Y3080D1*
X-17536Y3373D1*
X-14001Y6909D1*
X-13708Y7616D1*
X-14001Y8323D1*
X-14284Y8606D1*
G37*

G36*
X-10748Y5070D2*
X-11455Y5363D1*
X-12162Y5070D1*
X-15698Y1535D1*
X-15991Y828D1*
X-15698Y121D1*
X-15415Y-162D1*
X-14708Y-455D1*
X-14001Y-162D1*
X-10465Y3373D1*
X-10172Y4080D1*
X-10465Y4788D1*
X-10748Y5070D1*
G37*

G36*
X-7212Y1535D2*
X-7920Y1828D1*
X-8627Y1535D1*
X-12162Y-2001D1*
X-12455Y-2708D1*
X-12162Y-3415D1*
X-11879Y-3698D1*
X-11172Y-3991D1*
X-10465Y-3698D1*
X-6930Y-162D1*
X-6637Y545D1*
X-6930Y1252D1*
X-7212Y1535D1*
G37*

G36*
X-3677Y-2001D2*
X-4384Y-1708D1*
X-5091Y-2001D1*
X-8627Y-5536D1*
X-8920Y-6243D1*
X-8627Y-6950D1*
X-8344Y-7233D1*
X-7637Y-7526D1*
X-6930Y-7233D1*
X-3394Y-3698D1*
X-3101Y-2991D1*
X-3394Y-2284D1*
X-3677Y-2001D1*
G37*

G36*
X3394Y-2284D2*
X3101Y-2991D1*
X3394Y-3698D1*
X6930Y-7233D1*
X7637Y-7526D1*
X8344Y-7233D1*
X8627Y-6950D1*
X8920Y-6243D1*
X8627Y-5536D1*
X5091Y-2001D1*
X4384Y-1708D1*
X3677Y-2001D1*
X3394Y-2284D1*
G37*

G36*
X6930Y1252D2*
X6637Y545D1*
X6930Y-162D1*
X10465Y-3698D1*
X11172Y-3991D1*
X11879Y-3698D1*
X12162Y-3415D1*
X12455Y-2708D1*
X12162Y-2001D1*
X8627Y1535D1*
X7920Y1828D1*
X7212Y1535D1*
X6930Y1252D1*
G37*

G36*
X10465Y4788D2*
X10172Y4080D1*
X10465Y3373D1*
X14001Y-162D1*
X14708Y-455D1*
X15415Y-162D1*
X15698Y121D1*
X15991Y828D1*
X15698Y1535D1*
X12162Y5070D1*
X11455Y5363D1*
X10748Y5070D1*
X10465Y4788D1*
G37*

G36*
X14001Y8323D2*
X13708Y7616D1*
X14001Y6909D1*
X17536Y3373D1*
X18243Y3080D1*
X18950Y3373D1*
X19233Y3656D1*
X19526Y4363D1*
X19233Y5070D1*
X15698Y8606D1*
X14991Y8899D1*
X14284Y8606D1*
X14001Y8323D1*
G37*

G36*
X14284Y15394D2*
X14991Y15101D1*
X15698Y15394D1*
X19233Y18930D1*
X19526Y19637D1*
X19233Y20344D1*
X18950Y20627D1*
X18243Y20920D1*
X17536Y20627D1*
X14001Y17091D1*
X13708Y16384D1*
X14001Y15677D1*
X14284Y15394D1*
G37*

G36*
X10748Y18930D2*
X11455Y18637D1*
X12162Y18930D1*
X15698Y22465D1*
X15991Y23172D1*
X15698Y23879D1*
X15415Y24162D1*
X14708Y24455D1*
X14001Y24162D1*
X10465Y20627D1*
X10172Y19920D1*
X10465Y19212D1*
X10748Y18930D1*
G37*

G36*
X7212Y22465D2*
X7920Y22172D1*
X8627Y22465D1*
X12162Y26001D1*
X12455Y26708D1*
X12162Y27415D1*
X11879Y27698D1*
X11172Y27991D1*
X10465Y27698D1*
X6930Y24162D1*
X6637Y23455D1*
X6930Y22748D1*
X7212Y22465D1*
G37*

G36*
X3677Y26001D2*
X4384Y25708D1*
X5091Y26001D1*
X8627Y29536D1*
X8920Y30243D1*
X8627Y30950D1*
X8344Y31233D1*
X7637Y31526D1*
X6930Y31233D1*
X3394Y27698D1*
X3101Y26991D1*
X3394Y26284D1*
X3677Y26001D1*
G37*

G36*
X10607Y12000D2*
X0Y1393D1*
X-10607Y12000D1*
X0Y22607D1*
X10607Y12000D1*
G37*

G36*
X-45000Y41500D2*
X-45293Y42207D1*
X-46000Y42500D1*
X-63500Y42500D1*
X-64207Y42207D1*
X-64500Y41500D1*
X-64500Y38500D1*
X-64207Y37793D1*
X-63500Y37500D1*
X-46000Y37500D1*
X-45293Y37793D1*
X-45000Y38500D1*
X-45000Y41500D1*
G37*

G36*
X-25500Y31500D2*
X-25793Y32207D1*
X-26500Y32500D1*
X-44000Y32500D1*
X-44707Y32207D1*
X-45000Y31500D1*
X-45000Y28500D1*
X-44707Y27793D1*
X-44000Y27500D1*
X-26500Y27500D1*
X-25793Y27793D1*
X-25500Y28500D1*
X-25500Y31500D1*
G37*

G36*
X-45000Y21500D2*
X-45293Y22207D1*
X-46000Y22500D1*
X-63500Y22500D1*
X-64207Y22207D1*
X-64500Y21500D1*
X-64500Y18500D1*
X-64207Y17793D1*
X-63500Y17500D1*
X-46000Y17500D1*
X-45293Y17793D1*
X-45000Y18500D1*
X-45000Y21500D1*
G37*

G36*
X-25500Y11500D2*
X-25793Y12207D1*
X-26500Y12500D1*
X-44000Y12500D1*
X-44707Y12207D1*
X-45000Y11500D1*
X-45000Y8500D1*
X-44707Y7793D1*
X-44000Y7500D1*
X-26500Y7500D1*
X-25793Y7793D1*
X-25500Y8500D1*
X-25500Y11500D1*
G37*

G36*
X-45000Y1500D2*
X-45293Y2207D1*
X-46000Y2500D1*
X-63500Y2500D1*
X-64207Y2207D1*
X-64500Y1500D1*
X-64500Y-1500D1*
X-64207Y-2207D1*
X-63500Y-2500D1*
X-46000Y-2500D1*
X-45293Y-2207D1*
X-45000Y-1500D1*
X-45000Y1500D1*
G37*

G36*
X-25500Y-8500D2*
X-25793Y-7793D1*
X-26500Y-7500D1*
X-44000Y-7500D1*
X-44707Y-7793D1*
X-45000Y-8500D1*
X-45000Y-11500D1*
X-44707Y-12207D1*
X-44000Y-12500D1*
X-26500Y-12500D1*
X-25793Y-12207D1*
X-25500Y-11500D1*
X-25500Y-8500D1*
G37*

G36*
X-45000Y-18500D2*
X-45293Y-17793D1*
X-46000Y-17500D1*
X-63500Y-17500D1*
X-64207Y-17793D1*
X-64500Y-18500D1*
X-64500Y-21500D1*
X-64207Y-22207D1*
X-63500Y-22500D1*
X-46000Y-22500D1*
X-45293Y-22207D1*
X-45000Y-21500D1*
X-45000Y-18500D1*
G37*

G36*
X-25500Y-28500D2*
X-25793Y-27793D1*
X-26500Y-27500D1*
X-44000Y-27500D1*
X-44707Y-27793D1*
X-45000Y-28500D1*
X-45000Y-31500D1*
X-44707Y-32207D1*
X-44000Y-32500D1*
X-26500Y-32500D1*
X-25793Y-32207D1*
X-25500Y-31500D1*
X-25500Y-28500D1*
G37*

G36*
X-45000Y-38500D2*
X-45293Y-37793D1*
X-46000Y-37500D1*
X-63500Y-37500D1*
X-64207Y-37793D1*
X-64500Y-38500D1*
X-64500Y-41500D1*
X-64207Y-42207D1*
X-63500Y-42500D1*
X-46000Y-42500D1*
X-45293Y-42207D1*
X-45000Y-41500D1*
X-45000Y-38500D1*
G37*

G36*
X64500Y41500D2*
X64207Y42207D1*
X63500Y42500D1*
X46000Y42500D1*
X45293Y42207D1*
X45000Y41500D1*
X45000Y38500D1*
X45293Y37793D1*
X46000Y37500D1*
X63500Y37500D1*
X64207Y37793D1*
X64500Y38500D1*
X64500Y41500D1*
G37*

G36*
X45000Y31500D2*
X44707Y32207D1*
X44000Y32500D1*
X26500Y32500D1*
X25793Y32207D1*
X25500Y31500D1*
X25500Y28500D1*
X25793Y27793D1*
X26500Y27500D1*
X44000Y27500D1*
X44707Y27793D1*
X45000Y28500D1*
X45000Y31500D1*
G37*

G36*
X64500Y21500D2*
X64207Y22207D1*
X63500Y22500D1*
X46000Y22500D1*
X45293Y22207D1*
X45000Y21500D1*
X45000Y18500D1*
X45293Y17793D1*
X46000Y17500D1*
X63500Y17500D1*
X64207Y17793D1*
X64500Y18500D1*
X64500Y21500D1*
G37*

G36*
X45000Y11500D2*
X44707Y12207D1*
X44000Y12500D1*
X26500Y12500D1*
X25793Y12207D1*
X25500Y11500D1*
X25500Y8500D1*
X25793Y7793D1*
X26500Y7500D1*
X44000Y7500D1*
X44707Y7793D1*
X45000Y8500D1*
X45000Y11500D1*
G37*

G36*
X64500Y1500D2*
X64207Y2207D1*
X63500Y2500D1*
X46000Y2500D1*
X45293Y2207D1*
X45000Y1500D1*
X45000Y-1500D1*
X45293Y-2207D1*
X46000Y-2500D1*
X63500Y-2500D1*
X64207Y-2207D1*
X64500Y-1500D1*
X64500Y1500D1*
G37*

G36*
X45000Y-8500D2*
X44707Y-7793D1*
X44000Y-7500D1*
X26500Y-7500D1*
X25793Y-7793D1*
X25500Y-8500D1*
X25500Y-11500D1*
X25793Y-12207D1*
X26500Y-12500D1*
X44000Y-12500D1*
X44707Y-12207D1*
X45000Y-11500D1*
X45000Y-8500D1*
G37*

G36*
X64500Y-18500D2*
X64207Y-17793D1*
X63500Y-17500D1*
X46000Y-17500D1*
X45293Y-17793D1*
X45000Y-18500D1*
X45000Y-21500D1*
X45293Y-22207D1*
X46000Y-22500D1*
X63500Y-22500D1*
X64207Y-22207D1*
X64500Y-21500D1*
X64500Y-18500D1*
G37*

G36*
X45000Y-28500D2*
X44707Y-27793D1*
X44000Y-27500D1*
X26500Y-27500D1*
X25793Y-27793D1*
X25500Y-28500D1*
X25500Y-31500D1*
X25793Y-32207D1*
X26500Y-32500D1*
X44000Y-32500D1*
X44707Y-32207D1*
X45000Y-31500D1*
X45000Y-28500D1*
G37*

G36*
X64500Y-38500D2*
X64207Y-37793D1*
X63500Y-37500D1*
X46000Y-37500D1*
X45293Y-37793D1*
X45000Y-38500D1*
X45000Y-41500D1*
X45293Y-42207D1*
X46000Y-42500D1*
X63500Y-42500D1*
X64207Y-42207D1*
X64500Y-41500D1*
X64500Y-38500D1*
G37*

M02*
