G75*
%FSLAX44Y44*%
%MOMM*%

G36*
X100300Y72000D2*
X99522Y71843D1*
X98886Y71414D1*
X98457Y70778D1*
X98300Y70000D1*
Y60000D1*
X98457Y59222D1*
X98886Y58586D1*
X99522Y58157D1*
X100300Y58000D1*
X104300D1*
X105078Y58157D1*
X105714Y58586D1*
X106143Y59222D1*
X106300Y60000D1*
Y70000D1*
X106143Y70778D1*
X105714Y71414D1*
X105078Y71843D1*
X104300Y72000D1*
X100300D1*
G37*

G36*
X87600Y72000D2*
X86822Y71843D1*
X86186Y71414D1*
X85757Y70778D1*
X85600Y70000D1*
Y60000D1*
X85757Y59222D1*
X86186Y58586D1*
X86822Y58157D1*
X87600Y58000D1*
X91600D1*
X92378Y58157D1*
X93014Y58586D1*
X93443Y59222D1*
X93600Y60000D1*
Y70000D1*
X93443Y70778D1*
X93014Y71414D1*
X92378Y71843D1*
X91600Y72000D1*
X87600D1*
G37*

G36*
X74900Y72000D2*
X74122Y71843D1*
X73486Y71414D1*
X73057Y70778D1*
X72900Y70000D1*
Y60000D1*
X73057Y59222D1*
X73486Y58586D1*
X74122Y58157D1*
X74900Y58000D1*
X78900D1*
X79678Y58157D1*
X80314Y58586D1*
X80743Y59222D1*
X80900Y60000D1*
Y70000D1*
X80743Y70778D1*
X80314Y71414D1*
X79678Y71843D1*
X78900Y72000D1*
X74900D1*
G37*

G36*
X62200Y72000D2*
X61422Y71843D1*
X60786Y71414D1*
X60357Y70778D1*
X60200Y70000D1*
Y60000D1*
X60357Y59222D1*
X60786Y58586D1*
X61422Y58157D1*
X62200Y58000D1*
X66200D1*
X66978Y58157D1*
X67614Y58586D1*
X68043Y59222D1*
X68200Y60000D1*
Y70000D1*
X68043Y70778D1*
X67614Y71414D1*
X66978Y71843D1*
X66200Y72000D1*
X62200D1*
G37*

G36*
X49500Y72000D2*
X48722Y71843D1*
X48086Y71414D1*
X47657Y70778D1*
X47500Y70000D1*
Y60000D1*
X47657Y59222D1*
X48086Y58586D1*
X48722Y58157D1*
X49500Y58000D1*
X53500D1*
X54278Y58157D1*
X54914Y58586D1*
X55343Y59222D1*
X55500Y60000D1*
Y70000D1*
X55343Y70778D1*
X54914Y71414D1*
X54278Y71843D1*
X53500Y72000D1*
X49500D1*
G37*

G36*
X36800Y72000D2*
X36022Y71843D1*
X35386Y71414D1*
X34957Y70778D1*
X34800Y70000D1*
Y60000D1*
X34957Y59222D1*
X35386Y58586D1*
X36022Y58157D1*
X36800Y58000D1*
X40800D1*
X41578Y58157D1*
X42214Y58586D1*
X42643Y59222D1*
X42800Y60000D1*
Y70000D1*
X42643Y70778D1*
X42214Y71414D1*
X41578Y71843D1*
X40800Y72000D1*
X36800D1*
G37*

G36*
X24100Y72000D2*
X23322Y71843D1*
X22686Y71414D1*
X22257Y70778D1*
X22100Y70000D1*
Y60000D1*
X22257Y59222D1*
X22686Y58586D1*
X23322Y58157D1*
X24100Y58000D1*
X28100D1*
X28878Y58157D1*
X29514Y58586D1*
X29943Y59222D1*
X30100Y60000D1*
Y70000D1*
X29943Y70778D1*
X29514Y71414D1*
X28878Y71843D1*
X28100Y72000D1*
X24100D1*
G37*

G36*
X11400Y72000D2*
X10622Y71843D1*
X9986Y71414D1*
X9557Y70778D1*
X9400Y70000D1*
Y60000D1*
X9557Y59222D1*
X9986Y58586D1*
X10622Y58157D1*
X11400Y58000D1*
X15400D1*
X16178Y58157D1*
X16814Y58586D1*
X17243Y59222D1*
X17400Y60000D1*
Y70000D1*
X17243Y70778D1*
X16814Y71414D1*
X16178Y71843D1*
X15400Y72000D1*
X11400D1*
G37*

G36*
X-1300Y72000D2*
X-2078Y71843D1*
X-2714Y71414D1*
X-3143Y70778D1*
X-3300Y70000D1*
Y60000D1*
X-3143Y59222D1*
X-2714Y58586D1*
X-2078Y58157D1*
X-1300Y58000D1*
X2700D1*
X3478Y58157D1*
X4114Y58586D1*
X4543Y59222D1*
X4700Y60000D1*
Y70000D1*
X4543Y70778D1*
X4114Y71414D1*
X3478Y71843D1*
X2700Y72000D1*
X-1300D1*
G37*

G36*
X-14000Y72000D2*
X-14778Y71843D1*
X-15414Y71414D1*
X-15843Y70778D1*
X-16000Y70000D1*
Y60000D1*
X-15843Y59222D1*
X-15414Y58586D1*
X-14778Y58157D1*
X-14000Y58000D1*
X-10000D1*
X-9222Y58157D1*
X-8586Y58586D1*
X-8157Y59222D1*
X-8000Y60000D1*
Y70000D1*
X-8157Y70778D1*
X-8586Y71414D1*
X-9222Y71843D1*
X-10000Y72000D1*
X-14000D1*
G37*

G36*
X-45000Y42450D2*
X-44843Y41672D1*
X-44414Y41036D1*
X-43778Y40607D1*
X-43000Y40450D1*
X-33000D1*
X-32222Y40607D1*
X-31586Y41036D1*
X-31157Y41672D1*
X-31000Y42450D1*
Y46450D1*
X-31157Y47228D1*
X-31586Y47864D1*
X-32222Y48293D1*
X-33000Y48450D1*
X-43000D1*
X-43778Y48293D1*
X-44414Y47864D1*
X-44843Y47228D1*
X-45000Y46450D1*
Y42450D1*
G37*

G36*
X-45000Y29750D2*
X-44843Y28972D1*
X-44414Y28336D1*
X-43778Y27907D1*
X-43000Y27750D1*
X-33000D1*
X-32222Y27907D1*
X-31586Y28336D1*
X-31157Y28972D1*
X-31000Y29750D1*
Y33750D1*
X-31157Y34528D1*
X-31586Y35164D1*
X-32222Y35593D1*
X-33000Y35750D1*
X-43000D1*
X-43778Y35593D1*
X-44414Y35164D1*
X-44843Y34528D1*
X-45000Y33750D1*
Y29750D1*
G37*

G36*
X-45000Y17050D2*
X-44843Y16272D1*
X-44414Y15636D1*
X-43778Y15207D1*
X-43000Y15050D1*
X-33000D1*
X-32222Y15207D1*
X-31586Y15636D1*
X-31157Y16272D1*
X-31000Y17050D1*
Y21050D1*
X-31157Y21828D1*
X-31586Y22464D1*
X-32222Y22893D1*
X-33000Y23050D1*
X-43000D1*
X-43778Y22893D1*
X-44414Y22464D1*
X-44843Y21828D1*
X-45000Y21050D1*
Y17050D1*
G37*

G36*
X-45000Y4350D2*
X-44843Y3572D1*
X-44414Y2936D1*
X-43778Y2507D1*
X-43000Y2350D1*
X-33000D1*
X-32222Y2507D1*
X-31586Y2936D1*
X-31157Y3572D1*
X-31000Y4350D1*
Y8350D1*
X-31157Y9128D1*
X-31586Y9764D1*
X-32222Y10193D1*
X-33000Y10350D1*
X-43000D1*
X-43778Y10193D1*
X-44414Y9764D1*
X-44843Y9128D1*
X-45000Y8350D1*
Y4350D1*
G37*

G36*
X-45000Y-8350D2*
X-44843Y-9128D1*
X-44414Y-9764D1*
X-43778Y-10193D1*
X-43000Y-10350D1*
X-33000D1*
X-32222Y-10193D1*
X-31586Y-9764D1*
X-31157Y-9128D1*
X-31000Y-8350D1*
Y-4350D1*
X-31157Y-3572D1*
X-31586Y-2936D1*
X-32222Y-2507D1*
X-33000Y-2350D1*
X-43000D1*
X-43778Y-2507D1*
X-44414Y-2936D1*
X-44843Y-3572D1*
X-45000Y-4350D1*
Y-8350D1*
G37*

G36*
X-45000Y-21050D2*
X-44843Y-21828D1*
X-44414Y-22464D1*
X-43778Y-22893D1*
X-43000Y-23050D1*
X-33000D1*
X-32222Y-22893D1*
X-31586Y-22464D1*
X-31157Y-21828D1*
X-31000Y-21050D1*
Y-17050D1*
X-31157Y-16272D1*
X-31586Y-15636D1*
X-32222Y-15207D1*
X-33000Y-15050D1*
X-43000D1*
X-43778Y-15207D1*
X-44414Y-15636D1*
X-44843Y-16272D1*
X-45000Y-17050D1*
Y-21050D1*
G37*

G36*
X-45000Y-33750D2*
X-44843Y-34528D1*
X-44414Y-35164D1*
X-43778Y-35593D1*
X-43000Y-35750D1*
X-33000D1*
X-32222Y-35593D1*
X-31586Y-35164D1*
X-31157Y-34528D1*
X-31000Y-33750D1*
Y-29750D1*
X-31157Y-28972D1*
X-31586Y-28336D1*
X-32222Y-27907D1*
X-33000Y-27750D1*
X-43000D1*
X-43778Y-27907D1*
X-44414Y-28336D1*
X-44843Y-28972D1*
X-45000Y-29750D1*
Y-33750D1*
G37*

G36*
X-45000Y-46450D2*
X-44843Y-47228D1*
X-44414Y-47864D1*
X-43778Y-48293D1*
X-43000Y-48450D1*
X-33000D1*
X-32222Y-48293D1*
X-31586Y-47864D1*
X-31157Y-47228D1*
X-31000Y-46450D1*
Y-42450D1*
X-31157Y-41672D1*
X-31586Y-41036D1*
X-32222Y-40607D1*
X-33000Y-40450D1*
X-43000D1*
X-43778Y-40607D1*
X-44414Y-41036D1*
X-44843Y-41672D1*
X-45000Y-42450D1*
Y-46450D1*
G37*

G36*
X-10000Y-72000D2*
X-9222Y-71843D1*
X-8586Y-71414D1*
X-8157Y-70778D1*
X-8000Y-70000D1*
Y-60000D1*
X-8157Y-59222D1*
X-8586Y-58586D1*
X-9222Y-58157D1*
X-10000Y-58000D1*
X-14000D1*
X-14778Y-58157D1*
X-15414Y-58586D1*
X-15843Y-59222D1*
X-16000Y-60000D1*
Y-70000D1*
X-15843Y-70778D1*
X-15414Y-71414D1*
X-14778Y-71843D1*
X-14000Y-72000D1*
X-10000D1*
G37*

G36*
X2700Y-72000D2*
X3478Y-71843D1*
X4114Y-71414D1*
X4543Y-70778D1*
X4700Y-70000D1*
Y-60000D1*
X4543Y-59222D1*
X4114Y-58586D1*
X3478Y-58157D1*
X2700Y-58000D1*
X-1300D1*
X-2078Y-58157D1*
X-2714Y-58586D1*
X-3143Y-59222D1*
X-3300Y-60000D1*
Y-70000D1*
X-3143Y-70778D1*
X-2714Y-71414D1*
X-2078Y-71843D1*
X-1300Y-72000D1*
X2700D1*
G37*

G36*
X15400Y-72000D2*
X16178Y-71843D1*
X16814Y-71414D1*
X17243Y-70778D1*
X17400Y-70000D1*
Y-60000D1*
X17243Y-59222D1*
X16814Y-58586D1*
X16178Y-58157D1*
X15400Y-58000D1*
X11400D1*
X10622Y-58157D1*
X9986Y-58586D1*
X9557Y-59222D1*
X9400Y-60000D1*
Y-70000D1*
X9557Y-70778D1*
X9986Y-71414D1*
X10622Y-71843D1*
X11400Y-72000D1*
X15400D1*
G37*

G36*
X28100Y-72000D2*
X28878Y-71843D1*
X29514Y-71414D1*
X29943Y-70778D1*
X30100Y-70000D1*
Y-60000D1*
X29943Y-59222D1*
X29514Y-58586D1*
X28878Y-58157D1*
X28100Y-58000D1*
X24100D1*
X23322Y-58157D1*
X22686Y-58586D1*
X22257Y-59222D1*
X22100Y-60000D1*
Y-70000D1*
X22257Y-70778D1*
X22686Y-71414D1*
X23322Y-71843D1*
X24100Y-72000D1*
X28100D1*
G37*

G36*
X40800Y-72000D2*
X41578Y-71843D1*
X42214Y-71414D1*
X42643Y-70778D1*
X42800Y-70000D1*
Y-60000D1*
X42643Y-59222D1*
X42214Y-58586D1*
X41578Y-58157D1*
X40800Y-58000D1*
X36800D1*
X36022Y-58157D1*
X35386Y-58586D1*
X34957Y-59222D1*
X34800Y-60000D1*
Y-70000D1*
X34957Y-70778D1*
X35386Y-71414D1*
X36022Y-71843D1*
X36800Y-72000D1*
X40800D1*
G37*

G36*
X53500Y-72000D2*
X54278Y-71843D1*
X54914Y-71414D1*
X55343Y-70778D1*
X55500Y-70000D1*
Y-60000D1*
X55343Y-59222D1*
X54914Y-58586D1*
X54278Y-58157D1*
X53500Y-58000D1*
X49500D1*
X48722Y-58157D1*
X48086Y-58586D1*
X47657Y-59222D1*
X47500Y-60000D1*
Y-70000D1*
X47657Y-70778D1*
X48086Y-71414D1*
X48722Y-71843D1*
X49500Y-72000D1*
X53500D1*
G37*

G36*
X66200Y-72000D2*
X66978Y-71843D1*
X67614Y-71414D1*
X68043Y-70778D1*
X68200Y-70000D1*
Y-60000D1*
X68043Y-59222D1*
X67614Y-58586D1*
X66978Y-58157D1*
X66200Y-58000D1*
X62200D1*
X61422Y-58157D1*
X60786Y-58586D1*
X60357Y-59222D1*
X60200Y-60000D1*
Y-70000D1*
X60357Y-70778D1*
X60786Y-71414D1*
X61422Y-71843D1*
X62200Y-72000D1*
X66200D1*
G37*

G36*
X78900Y-72000D2*
X79678Y-71843D1*
X80314Y-71414D1*
X80743Y-70778D1*
X80900Y-70000D1*
Y-60000D1*
X80743Y-59222D1*
X80314Y-58586D1*
X79678Y-58157D1*
X78900Y-58000D1*
X74900D1*
X74122Y-58157D1*
X73486Y-58586D1*
X73057Y-59222D1*
X72900Y-60000D1*
Y-70000D1*
X73057Y-70778D1*
X73486Y-71414D1*
X74122Y-71843D1*
X74900Y-72000D1*
X78900D1*
G37*

G36*
X91600Y-72000D2*
X92378Y-71843D1*
X93014Y-71414D1*
X93443Y-70778D1*
X93600Y-70000D1*
Y-60000D1*
X93443Y-59222D1*
X93014Y-58586D1*
X92378Y-58157D1*
X91600Y-58000D1*
X87600D1*
X86822Y-58157D1*
X86186Y-58586D1*
X85757Y-59222D1*
X85600Y-60000D1*
Y-70000D1*
X85757Y-70778D1*
X86186Y-71414D1*
X86822Y-71843D1*
X87600Y-72000D1*
X91600D1*
G37*

G36*
X104300Y-72000D2*
X105078Y-71843D1*
X105714Y-71414D1*
X106143Y-70778D1*
X106300Y-70000D1*
Y-60000D1*
X106143Y-59222D1*
X105714Y-58586D1*
X105078Y-58157D1*
X104300Y-58000D1*
X100300D1*
X99522Y-58157D1*
X98886Y-58586D1*
X98457Y-59222D1*
X98300Y-60000D1*
Y-70000D1*
X98457Y-70778D1*
X98886Y-71414D1*
X99522Y-71843D1*
X100300Y-72000D1*
X104300D1*
G37*

G36*
X-82000Y131500D2*
X-82293Y132207D1*
X-83000Y132500D1*
X-100500D1*
X-101207Y132207D1*
X-101500Y131500D1*
Y128500D1*
X-101207Y127793D1*
X-100500Y127500D1*
X-83000D1*
X-82293Y127793D1*
X-82000Y128500D1*
Y131500D1*
G37*

G36*
X-62500Y121500D2*
X-62793Y122207D1*
X-63500Y122500D1*
X-81000D1*
X-81707Y122207D1*
X-82000Y121500D1*
Y118500D1*
X-81707Y117793D1*
X-81000Y117500D1*
X-63500D1*
X-62793Y117793D1*
X-62500Y118500D1*
Y121500D1*
G37*

G36*
X-82000Y111500D2*
X-82293Y112207D1*
X-83000Y112500D1*
X-100500D1*
X-101207Y112207D1*
X-101500Y111500D1*
Y108500D1*
X-101207Y107793D1*
X-100500Y107500D1*
X-83000D1*
X-82293Y107793D1*
X-82000Y108500D1*
Y111500D1*
G37*

G36*
X-62500Y101500D2*
X-62793Y102207D1*
X-63500Y102500D1*
X-81000D1*
X-81707Y102207D1*
X-82000Y101500D1*
Y98500D1*
X-81707Y97793D1*
X-81000Y97500D1*
X-63500D1*
X-62793Y97793D1*
X-62500Y98500D1*
Y101500D1*
G37*

G36*
X-82000Y91500D2*
X-82293Y92207D1*
X-83000Y92500D1*
X-100500D1*
X-101207Y92207D1*
X-101500Y91500D1*
Y88500D1*
X-101207Y87793D1*
X-100500Y87500D1*
X-83000D1*
X-82293Y87793D1*
X-82000Y88500D1*
Y91500D1*
G37*

G36*
X-62500Y81500D2*
X-62793Y82207D1*
X-63500Y82500D1*
X-81000D1*
X-81707Y82207D1*
X-82000Y81500D1*
Y78500D1*
X-81707Y77793D1*
X-81000Y77500D1*
X-63500D1*
X-62793Y77793D1*
X-62500Y78500D1*
Y81500D1*
G37*

G36*
X-82000Y71500D2*
X-82293Y72207D1*
X-83000Y72500D1*
X-100500D1*
X-101207Y72207D1*
X-101500Y71500D1*
Y68500D1*
X-101207Y67793D1*
X-100500Y67500D1*
X-83000D1*
X-82293Y67793D1*
X-82000Y68500D1*
Y71500D1*
G37*

G36*
X-62500Y61500D2*
X-62793Y62207D1*
X-63500Y62500D1*
X-81000D1*
X-81707Y62207D1*
X-82000Y61500D1*
Y58500D1*
X-81707Y57793D1*
X-81000Y57500D1*
X-63500D1*
X-62793Y57793D1*
X-62500Y58500D1*
Y61500D1*
G37*

G36*
X-82000Y51500D2*
X-82293Y52207D1*
X-83000Y52500D1*
X-100500D1*
X-101207Y52207D1*
X-101500Y51500D1*
Y48500D1*
X-101207Y47793D1*
X-100500Y47500D1*
X-83000D1*
X-82293Y47793D1*
X-82000Y48500D1*
Y51500D1*
G37*

G36*
X-62500Y41500D2*
X-62793Y42207D1*
X-63500Y42500D1*
X-81000D1*
X-81707Y42207D1*
X-82000Y41500D1*
Y38500D1*
X-81707Y37793D1*
X-81000Y37500D1*
X-63500D1*
X-62793Y37793D1*
X-62500Y38500D1*
Y41500D1*
G37*

G36*
X-82000Y31500D2*
X-82293Y32207D1*
X-83000Y32500D1*
X-100500D1*
X-101207Y32207D1*
X-101500Y31500D1*
Y28500D1*
X-101207Y27793D1*
X-100500Y27500D1*
X-83000D1*
X-82293Y27793D1*
X-82000Y28500D1*
Y31500D1*
G37*

G36*
X-62500Y21500D2*
X-62793Y22207D1*
X-63500Y22500D1*
X-81000D1*
X-81707Y22207D1*
X-82000Y21500D1*
Y18500D1*
X-81707Y17793D1*
X-81000Y17500D1*
X-63500D1*
X-62793Y17793D1*
X-62500Y18500D1*
Y21500D1*
G37*

G36*
X-82000Y11500D2*
X-82293Y12207D1*
X-83000Y12500D1*
X-100500D1*
X-101207Y12207D1*
X-101500Y11500D1*
Y8500D1*
X-101207Y7793D1*
X-100500Y7500D1*
X-83000D1*
X-82293Y7793D1*
X-82000Y8500D1*
Y11500D1*
G37*

G36*
X-62500Y1500D2*
X-62793Y2207D1*
X-63500Y2500D1*
X-81000D1*
X-81707Y2207D1*
X-82000Y1500D1*
Y-1500D1*
X-81707Y-2207D1*
X-81000Y-2500D1*
X-63500D1*
X-62793Y-2207D1*
X-62500Y-1500D1*
Y1500D1*
G37*

G36*
X-82000Y-8500D2*
X-82293Y-7793D1*
X-83000Y-7500D1*
X-100500D1*
X-101207Y-7793D1*
X-101500Y-8500D1*
Y-11500D1*
X-101207Y-12207D1*
X-100500Y-12500D1*
X-83000D1*
X-82293Y-12207D1*
X-82000Y-11500D1*
Y-8500D1*
G37*

G36*
X-62500Y-18500D2*
X-62793Y-17793D1*
X-63500Y-17500D1*
X-81000D1*
X-81707Y-17793D1*
X-82000Y-18500D1*
Y-21500D1*
X-81707Y-22207D1*
X-81000Y-22500D1*
X-63500D1*
X-62793Y-22207D1*
X-62500Y-21500D1*
Y-18500D1*
G37*

G36*
X-82000Y-28500D2*
X-82293Y-27793D1*
X-83000Y-27500D1*
X-100500D1*
X-101207Y-27793D1*
X-101500Y-28500D1*
Y-31500D1*
X-101207Y-32207D1*
X-100500Y-32500D1*
X-83000D1*
X-82293Y-32207D1*
X-82000Y-31500D1*
Y-28500D1*
G37*

G36*
X-62500Y-38500D2*
X-62793Y-37793D1*
X-63500Y-37500D1*
X-81000D1*
X-81707Y-37793D1*
X-82000Y-38500D1*
Y-41500D1*
X-81707Y-42207D1*
X-81000Y-42500D1*
X-63500D1*
X-62793Y-42207D1*
X-62500Y-41500D1*
Y-38500D1*
G37*

G36*
X-82000Y-48500D2*
X-82293Y-47793D1*
X-83000Y-47500D1*
X-100500D1*
X-101207Y-47793D1*
X-101500Y-48500D1*
Y-51500D1*
X-101207Y-52207D1*
X-100500Y-52500D1*
X-83000D1*
X-82293Y-52207D1*
X-82000Y-51500D1*
Y-48500D1*
G37*

G36*
X-62500Y-58500D2*
X-62793Y-57793D1*
X-63500Y-57500D1*
X-81000D1*
X-81707Y-57793D1*
X-82000Y-58500D1*
Y-61500D1*
X-81707Y-62207D1*
X-81000Y-62500D1*
X-63500D1*
X-62793Y-62207D1*
X-62500Y-61500D1*
Y-58500D1*
G37*

G36*
X-82000Y-68500D2*
X-82293Y-67793D1*
X-83000Y-67500D1*
X-100500D1*
X-101207Y-67793D1*
X-101500Y-68500D1*
Y-71500D1*
X-101207Y-72207D1*
X-100500Y-72500D1*
X-83000D1*
X-82293Y-72207D1*
X-82000Y-71500D1*
Y-68500D1*
G37*

G36*
X-62500Y-78500D2*
X-62793Y-77793D1*
X-63500Y-77500D1*
X-81000D1*
X-81707Y-77793D1*
X-82000Y-78500D1*
Y-81500D1*
X-81707Y-82207D1*
X-81000Y-82500D1*
X-63500D1*
X-62793Y-82207D1*
X-62500Y-81500D1*
Y-78500D1*
G37*

G36*
X-82000Y-88500D2*
X-82293Y-87793D1*
X-83000Y-87500D1*
X-100500D1*
X-101207Y-87793D1*
X-101500Y-88500D1*
Y-91500D1*
X-101207Y-92207D1*
X-100500Y-92500D1*
X-83000D1*
X-82293Y-92207D1*
X-82000Y-91500D1*
Y-88500D1*
G37*

G36*
X-62500Y-98500D2*
X-62793Y-97793D1*
X-63500Y-97500D1*
X-81000D1*
X-81707Y-97793D1*
X-82000Y-98500D1*
Y-101500D1*
X-81707Y-102207D1*
X-81000Y-102500D1*
X-63500D1*
X-62793Y-102207D1*
X-62500Y-101500D1*
Y-98500D1*
G37*

G36*
X-82000Y-108500D2*
X-82293Y-107793D1*
X-83000Y-107500D1*
X-100500D1*
X-101207Y-107793D1*
X-101500Y-108500D1*
Y-111500D1*
X-101207Y-112207D1*
X-100500Y-112500D1*
X-83000D1*
X-82293Y-112207D1*
X-82000Y-111500D1*
Y-108500D1*
G37*

G36*
X-62500Y-118500D2*
X-62793Y-117793D1*
X-63500Y-117500D1*
X-81000D1*
X-81707Y-117793D1*
X-82000Y-118500D1*
Y-121500D1*
X-81707Y-122207D1*
X-81000Y-122500D1*
X-63500D1*
X-62793Y-122207D1*
X-62500Y-121500D1*
Y-118500D1*
G37*

G36*
X-82000Y-128500D2*
X-82293Y-127793D1*
X-83000Y-127500D1*
X-100500D1*
X-101207Y-127793D1*
X-101500Y-128500D1*
Y-131500D1*
X-101207Y-132207D1*
X-100500Y-132500D1*
X-83000D1*
X-82293Y-132207D1*
X-82000Y-131500D1*
Y-128500D1*
G37*

G36*
X79437Y90484D2*
X80494Y88218D1*
X82463Y89356D1*
X84192Y90808D1*
X85644Y92537D1*
X86782Y94506D1*
X84516Y95563D1*
X83597Y93972D1*
X82425Y92575D1*
X81028Y91403D1*
X79437Y90484D1*
G37*

G36*
X85460Y99085D2*
X87951Y98867D1*
X87950Y101142D1*
X87557Y103365D1*
X86786Y105486D1*
X85649Y107456D1*
X83601Y106023D1*
X84519Y104431D1*
X85142Y102718D1*
X85459Y100922D1*
X85460Y99085D1*
G37*

G36*
X81023Y108601D2*
X82456Y110649D1*
X80486Y111786D1*
X78365Y112557D1*
X76142Y112950D1*
X73867Y112951D1*
X74085Y110460D1*
X75922Y110459D1*
X77718Y110142D1*
X79431Y109519D1*
X81023Y108601D1*
G37*

G36*
X70563Y109516D2*
X69506Y111782D1*
X67537Y110644D1*
X65808Y109192D1*
X64356Y107463D1*
X63218Y105494D1*
X65484Y104437D1*
X66403Y106028D1*
X67575Y107425D1*
X68972Y108597D1*
X70563Y109516D1*
G37*

G36*
X64540Y100915D2*
X62049Y101133D1*
X62050Y98858D1*
X62443Y96635D1*
X63214Y94514D1*
X64351Y92544D1*
X66399Y93977D1*
X65481Y95569D1*
X64858Y97282D1*
X64541Y99078D1*
X64540Y100915D1*
G37*

G36*
X68977Y91399D2*
X67544Y89351D1*
X69514Y88214D1*
X71635Y87443D1*
X73858Y87050D1*
X76133Y87049D1*
X75915Y89540D1*
X74078Y89541D1*
X72282Y89858D1*
X70569Y90481D1*
X68977Y91399D1*
G37*

G36*
X84516Y-95563D2*
X86782Y-94506D1*
X85644Y-92537D1*
X84192Y-90808D1*
X82463Y-89356D1*
X80494Y-88218D1*
X79437Y-90484D1*
X81028Y-91403D1*
X82425Y-92575D1*
X83597Y-93972D1*
X84516Y-95563D1*
G37*

G36*
X75915Y-89540D2*
X76133Y-87049D1*
X73858Y-87050D1*
X71635Y-87443D1*
X69514Y-88214D1*
X67544Y-89351D1*
X68977Y-91399D1*
X70569Y-90481D1*
X72282Y-89858D1*
X74078Y-89541D1*
X75915Y-89540D1*
G37*

G36*
X66399Y-93977D2*
X64351Y-92544D1*
X63214Y-94514D1*
X62443Y-96635D1*
X62050Y-98858D1*
X62049Y-101133D1*
X64540Y-100915D1*
X64541Y-99078D1*
X64858Y-97282D1*
X65481Y-95569D1*
X66399Y-93977D1*
G37*

G36*
X65484Y-104437D2*
X63218Y-105494D1*
X64356Y-107463D1*
X65808Y-109192D1*
X67537Y-110644D1*
X69506Y-111782D1*
X70563Y-109516D1*
X68972Y-108597D1*
X67575Y-107425D1*
X66403Y-106028D1*
X65484Y-104437D1*
G37*

G36*
X74085Y-110460D2*
X73867Y-112951D1*
X76142Y-112950D1*
X78365Y-112557D1*
X80486Y-111786D1*
X82456Y-110649D1*
X81023Y-108601D1*
X79431Y-109519D1*
X77718Y-110142D1*
X75922Y-110459D1*
X74085Y-110460D1*
G37*

G36*
X83601Y-106023D2*
X85649Y-107456D1*
X86786Y-105486D1*
X87557Y-103365D1*
X87950Y-101142D1*
X87951Y-98867D1*
X85460Y-99085D1*
X85459Y-100922D1*
X85142Y-102718D1*
X84519Y-104431D1*
X83601Y-106023D1*
G37*

M02*
