G75*
%FSLAX44Y44*%
%MOMM*%

G36*
X-500Y34000D2*
X-793Y34707D1*
X-1500Y35000D1*
X-19000D1*
X-19707Y34707D1*
X-20000Y34000D1*
Y31000D1*
X-19707Y30293D1*
X-19000Y30000D1*
X-1500D1*
X-793Y30293D1*
X-500Y31000D1*
Y34000D1*
G37*

G36*
X-20000Y24000D2*
X-20293Y24707D1*
X-21000Y25000D1*
X-38500D1*
X-39207Y24707D1*
X-39500Y24000D1*
Y21000D1*
X-39207Y20293D1*
X-38500Y20000D1*
X-21000D1*
X-20293Y20293D1*
X-20000Y21000D1*
Y24000D1*
G37*

G36*
X-500Y14000D2*
X-793Y14707D1*
X-1500Y15000D1*
X-19000D1*
X-19707Y14707D1*
X-20000Y14000D1*
Y11000D1*
X-19707Y10293D1*
X-19000Y10000D1*
X-1500D1*
X-793Y10293D1*
X-500Y11000D1*
Y14000D1*
G37*

G36*
X10250Y18000D2*
X6750D1*
Y20500D1*
X10250D1*
Y18000D1*
G37*

G36*
X10250Y12500D2*
X6750D1*
Y15000D1*
X10250D1*
Y12500D1*
G37*

G36*
X39516Y26937D2*
X41782Y27994D1*
X40644Y29963D1*
X39192Y31692D1*
X37463Y33144D1*
X35494Y34282D1*
X34437Y32016D1*
X36028Y31097D1*
X37425Y29925D1*
X38597Y28528D1*
X39516Y26937D1*
G37*

G36*
X30915Y32960D2*
X31133Y35451D1*
X28858Y35450D1*
X26635Y35057D1*
X24514Y34286D1*
X22544Y33149D1*
X23977Y31101D1*
X25569Y32019D1*
X27282Y32642D1*
X29078Y32959D1*
X30915Y32960D1*
G37*

G36*
X21399Y28523D2*
X19351Y29956D1*
X18214Y27986D1*
X17443Y25865D1*
X17050Y23642D1*
X17049Y21367D1*
X19540Y21585D1*
X19541Y23422D1*
X19858Y25218D1*
X20481Y26931D1*
X21399Y28523D1*
G37*

G36*
X20484Y18063D2*
X18218Y17006D1*
X19356Y15037D1*
X20808Y13308D1*
X22537Y11856D1*
X24506Y10718D1*
X25563Y12984D1*
X23972Y13903D1*
X22575Y15075D1*
X21403Y16472D1*
X20484Y18063D1*
G37*

G36*
X29085Y12040D2*
X28867Y9549D1*
X31142Y9550D1*
X33365Y9943D1*
X35486Y10714D1*
X37456Y11851D1*
X36023Y13899D1*
X34431Y12981D1*
X32718Y12358D1*
X30922Y12041D1*
X29085Y12040D1*
G37*

G36*
X38601Y16477D2*
X40649Y15044D1*
X41786Y17014D1*
X42557Y19135D1*
X42950Y21358D1*
X42951Y23633D1*
X40460Y23415D1*
X40459Y21578D1*
X40142Y19782D1*
X39519Y18069D1*
X38601Y16477D1*
G37*

G36*
X-500Y-11000D2*
X-793Y-10293D1*
X-1500Y-10000D1*
X-19000D1*
X-19707Y-10293D1*
X-20000Y-11000D1*
Y-14000D1*
X-19707Y-14707D1*
X-19000Y-15000D1*
X-1500D1*
X-793Y-14707D1*
X-500Y-14000D1*
Y-11000D1*
G37*

G36*
X-20000Y-21000D2*
X-20293Y-20293D1*
X-21000Y-20000D1*
X-38500D1*
X-39207Y-20293D1*
X-39500Y-21000D1*
Y-24000D1*
X-39207Y-24707D1*
X-38500Y-25000D1*
X-21000D1*
X-20293Y-24707D1*
X-20000Y-24000D1*
Y-21000D1*
G37*

G36*
X-500Y-31000D2*
X-793Y-30293D1*
X-1500Y-30000D1*
X-19000D1*
X-19707Y-30293D1*
X-20000Y-31000D1*
Y-34000D1*
X-19707Y-34707D1*
X-19000Y-35000D1*
X-1500D1*
X-793Y-34707D1*
X-500Y-34000D1*
Y-31000D1*
G37*

G36*
X11500Y-26000D2*
X5500D1*
Y-21000D1*
X11500D1*
Y-26000D1*
G37*

G36*
X11500Y-36000D2*
X5500D1*
Y-31000D1*
X11500D1*
Y-36000D1*
G37*

G36*
X39516Y-18063D2*
X41782Y-17006D1*
X40644Y-15037D1*
X39192Y-13308D1*
X37463Y-11856D1*
X35494Y-10718D1*
X34437Y-12984D1*
X36028Y-13903D1*
X37425Y-15075D1*
X38597Y-16472D1*
X39516Y-18063D1*
G37*

G36*
X30915Y-12040D2*
X31133Y-9549D1*
X28858Y-9550D1*
X26635Y-9943D1*
X24514Y-10714D1*
X22544Y-11851D1*
X23977Y-13899D1*
X25569Y-12981D1*
X27282Y-12358D1*
X29078Y-12041D1*
X30915Y-12040D1*
G37*

G36*
X21399Y-16477D2*
X19351Y-15044D1*
X18214Y-17014D1*
X17443Y-19135D1*
X17050Y-21358D1*
X17049Y-23633D1*
X19540Y-23415D1*
X19541Y-21578D1*
X19858Y-19782D1*
X20481Y-18069D1*
X21399Y-16477D1*
G37*

G36*
X20484Y-26937D2*
X18218Y-27994D1*
X19356Y-29963D1*
X20808Y-31692D1*
X22537Y-33144D1*
X24506Y-34282D1*
X25563Y-32016D1*
X23972Y-31097D1*
X22575Y-29925D1*
X21403Y-28528D1*
X20484Y-26937D1*
G37*

G36*
X29085Y-32960D2*
X28867Y-35451D1*
X31142Y-35450D1*
X33365Y-35057D1*
X35486Y-34286D1*
X37456Y-33149D1*
X36023Y-31101D1*
X34431Y-32019D1*
X32718Y-32642D1*
X30922Y-32959D1*
X29085Y-32960D1*
G37*

G36*
X38601Y-28523D2*
X40649Y-29956D1*
X41786Y-27986D1*
X42557Y-25865D1*
X42950Y-23642D1*
X42951Y-21367D1*
X40460Y-21585D1*
X40459Y-23422D1*
X40142Y-25218D1*
X39519Y-26931D1*
X38601Y-28523D1*
G37*

M02*
