G75*
%FSLAX44Y44*%
%MOMM*%

G36*
X-30500Y31500D2*
X-30793Y32207D1*
X-31500Y32500D1*
X-49000Y32500D1*
X-49707Y32207D1*
X-50000Y31500D1*
X-50000Y28500D1*
X-49707Y27793D1*
X-49000Y27500D1*
X-31500Y27500D1*
X-30793Y27793D1*
X-30500Y28500D1*
X-30500Y31500D1*
G37*

G36*
X-50000Y21500D2*
X-50293Y22207D1*
X-51000Y22500D1*
X-68500Y22500D1*
X-69207Y22207D1*
X-69500Y21500D1*
X-69500Y18500D1*
X-69207Y17793D1*
X-68500Y17500D1*
X-51000Y17500D1*
X-50293Y17793D1*
X-50000Y18500D1*
X-50000Y21500D1*
G37*

G36*
X-30500Y11500D2*
X-30793Y12207D1*
X-31500Y12500D1*
X-49000Y12500D1*
X-49707Y12207D1*
X-50000Y11500D1*
X-50000Y8500D1*
X-49707Y7793D1*
X-49000Y7500D1*
X-31500Y7500D1*
X-30793Y7793D1*
X-30500Y8500D1*
X-30500Y11500D1*
G37*

G36*
X-50000Y1500D2*
X-50293Y2207D1*
X-51000Y2500D1*
X-68500Y2500D1*
X-69207Y2207D1*
X-69500Y1500D1*
X-69500Y-1500D1*
X-69207Y-2207D1*
X-68500Y-2500D1*
X-51000Y-2500D1*
X-50293Y-2207D1*
X-50000Y-1500D1*
X-50000Y1500D1*
G37*

G36*
X-30500Y-8500D2*
X-30793Y-7793D1*
X-31500Y-7500D1*
X-49000Y-7500D1*
X-49707Y-7793D1*
X-50000Y-8500D1*
X-50000Y-11500D1*
X-49707Y-12207D1*
X-49000Y-12500D1*
X-31500Y-12500D1*
X-30793Y-12207D1*
X-30500Y-11500D1*
X-30500Y-8500D1*
G37*

G36*
X-50000Y-18500D2*
X-50293Y-17793D1*
X-51000Y-17500D1*
X-68500Y-17500D1*
X-69207Y-17793D1*
X-69500Y-18500D1*
X-69500Y-21500D1*
X-69207Y-22207D1*
X-68500Y-22500D1*
X-51000Y-22500D1*
X-50293Y-22207D1*
X-50000Y-21500D1*
X-50000Y-18500D1*
G37*

G36*
X-30500Y-28500D2*
X-30793Y-27793D1*
X-31500Y-27500D1*
X-49000Y-27500D1*
X-49707Y-27793D1*
X-50000Y-28500D1*
X-50000Y-31500D1*
X-49707Y-32207D1*
X-49000Y-32500D1*
X-31500Y-32500D1*
X-30793Y-32207D1*
X-30500Y-31500D1*
X-30500Y-28500D1*
G37*

G36*
X69500Y36500D2*
X69207Y37207D1*
X68500Y37500D1*
X51000Y37500D1*
X50293Y37207D1*
X50000Y36500D1*
X50000Y33500D1*
X50293Y32793D1*
X51000Y32500D1*
X68500Y32500D1*
X69207Y32793D1*
X69500Y33500D1*
X69500Y36500D1*
G37*

G36*
X50000Y26500D2*
X49707Y27207D1*
X49000Y27500D1*
X31500Y27500D1*
X30793Y27207D1*
X30500Y26500D1*
X30500Y23500D1*
X30793Y22793D1*
X31500Y22500D1*
X49000Y22500D1*
X49707Y22793D1*
X50000Y23500D1*
X50000Y26500D1*
G37*

G36*
X69500Y16500D2*
X69207Y17207D1*
X68500Y17500D1*
X51000Y17500D1*
X50293Y17207D1*
X50000Y16500D1*
X50000Y13500D1*
X50293Y12793D1*
X51000Y12500D1*
X68500Y12500D1*
X69207Y12793D1*
X69500Y13500D1*
X69500Y16500D1*
G37*

G36*
X50000Y6500D2*
X49707Y7207D1*
X49000Y7500D1*
X31500Y7500D1*
X30793Y7207D1*
X30500Y6500D1*
X30500Y3500D1*
X30793Y2793D1*
X31500Y2500D1*
X49000Y2500D1*
X49707Y2793D1*
X50000Y3500D1*
X50000Y6500D1*
G37*

G36*
X69500Y-3500D2*
X69207Y-2793D1*
X68500Y-2500D1*
X51000Y-2500D1*
X50293Y-2793D1*
X50000Y-3500D1*
X50000Y-6500D1*
X50293Y-7207D1*
X51000Y-7500D1*
X68500Y-7500D1*
X69207Y-7207D1*
X69500Y-6500D1*
X69500Y-3500D1*
G37*

G36*
X50000Y-13500D2*
X49707Y-12793D1*
X49000Y-12500D1*
X31500Y-12500D1*
X30793Y-12793D1*
X30500Y-13500D1*
X30500Y-16500D1*
X30793Y-17207D1*
X31500Y-17500D1*
X49000Y-17500D1*
X49707Y-17207D1*
X50000Y-16500D1*
X50000Y-13500D1*
G37*

G36*
X69500Y-23500D2*
X69207Y-22793D1*
X68500Y-22500D1*
X51000Y-22500D1*
X50293Y-22793D1*
X50000Y-23500D1*
X50000Y-26500D1*
X50293Y-27207D1*
X51000Y-27500D1*
X68500Y-27500D1*
X69207Y-27207D1*
X69500Y-26500D1*
X69500Y-23500D1*
G37*

G36*
X50000Y-33500D2*
X49707Y-32793D1*
X49000Y-32500D1*
X31500Y-32500D1*
X30793Y-32793D1*
X30500Y-33500D1*
X30500Y-36500D1*
X30793Y-37207D1*
X31500Y-37500D1*
X49000Y-37500D1*
X49707Y-37207D1*
X50000Y-36500D1*
X50000Y-33500D1*
G37*

M02*
