G75*
%FSLAX44Y44*%
%MOMM*%

G36*
X-46409Y9867D2*
X-45554Y12216D1*
X-47751Y12804D1*
X-50000Y13000D1*
X-52249Y12804D1*
X-54446Y12216D1*
X-53591Y9867D1*
X-51817Y10342D1*
X-50000Y10500D1*
X-48183Y10342D1*
X-46409Y9867D1*
G37*

G36*
X-56749Y8043D2*
X-58356Y9959D1*
X-59964Y8350D1*
X-61258Y6500D1*
X-62213Y4454D1*
X-62803Y2257D1*
X-60340Y1823D1*
X-59864Y3598D1*
X-59093Y5250D1*
X-58048Y6744D1*
X-56749Y8043D1*
G37*

G36*
X-60340Y-1823D2*
X-62803Y-2257D1*
X-62213Y-4454D1*
X-61258Y-6500D1*
X-59964Y-8350D1*
X-58356Y-9959D1*
X-56749Y-8043D1*
X-58048Y-6744D1*
X-59093Y-5250D1*
X-59864Y-3598D1*
X-60340Y-1823D1*
G37*

G36*
X-53591Y-9867D2*
X-54446Y-12216D1*
X-52249Y-12804D1*
X-50000Y-13000D1*
X-47751Y-12804D1*
X-45554Y-12216D1*
X-46409Y-9867D1*
X-48183Y-10342D1*
X-50000Y-10500D1*
X-51817Y-10342D1*
X-53591Y-9867D1*
G37*

G36*
X-43251Y-8043D2*
X-41644Y-9959D1*
X-40036Y-8350D1*
X-38742Y-6500D1*
X-37787Y-4454D1*
X-37197Y-2257D1*
X-39660Y-1823D1*
X-40136Y-3598D1*
X-40907Y-5250D1*
X-41952Y-6744D1*
X-43251Y-8043D1*
G37*

G36*
X-39660Y1823D2*
X-37197Y2257D1*
X-37787Y4454D1*
X-38742Y6500D1*
X-40036Y8350D1*
X-41644Y9959D1*
X-43251Y8043D1*
X-41952Y6744D1*
X-40907Y5250D1*
X-40136Y3598D1*
X-39660Y1823D1*
G37*

G36*
X-22550Y-25000D2*
X-22746Y-24027D1*
X-23282Y-23232D1*
X-24077Y-22696D1*
X-25050Y-22500D1*
X-26023Y-22696D1*
X-26818Y-23232D1*
X-27354Y-24027D1*
X-27550Y-25000D1*
Y-30000D1*
X-27354Y-30973D1*
X-26818Y-31768D1*
X-26023Y-32304D1*
X-25050Y-32500D1*
X-24077Y-32304D1*
X-23282Y-31768D1*
X-22746Y-30973D1*
X-22550Y-30000D1*
Y-25000D1*
G37*

G36*
X-9850Y-25000D2*
X-10046Y-24027D1*
X-10582Y-23232D1*
X-11377Y-22696D1*
X-12350Y-22500D1*
X-13323Y-22696D1*
X-14118Y-23232D1*
X-14654Y-24027D1*
X-14850Y-25000D1*
Y-30000D1*
X-14654Y-30973D1*
X-14118Y-31768D1*
X-13323Y-32304D1*
X-12350Y-32500D1*
X-11377Y-32304D1*
X-10582Y-31768D1*
X-10046Y-30973D1*
X-9850Y-30000D1*
Y-25000D1*
G37*

G36*
X2850Y-25000D2*
X2654Y-24027D1*
X2118Y-23232D1*
X1323Y-22696D1*
X350Y-22500D1*
X-623Y-22696D1*
X-1418Y-23232D1*
X-1954Y-24027D1*
X-2150Y-25000D1*
Y-30000D1*
X-1954Y-30973D1*
X-1418Y-31768D1*
X-623Y-32304D1*
X350Y-32500D1*
X1323Y-32304D1*
X2118Y-31768D1*
X2654Y-30973D1*
X2850Y-30000D1*
Y-25000D1*
G37*

G36*
X15550Y-25000D2*
X15354Y-24027D1*
X14818Y-23232D1*
X14023Y-22696D1*
X13050Y-22500D1*
X12077Y-22696D1*
X11282Y-23232D1*
X10746Y-24027D1*
X10550Y-25000D1*
Y-30000D1*
X10746Y-30973D1*
X11282Y-31768D1*
X12077Y-32304D1*
X13050Y-32500D1*
X14023Y-32304D1*
X14818Y-31768D1*
X15354Y-30973D1*
X15550Y-30000D1*
Y-25000D1*
G37*

G36*
X10550Y25000D2*
X10746Y24027D1*
X11282Y23232D1*
X12077Y22696D1*
X13050Y22500D1*
X14023Y22696D1*
X14818Y23232D1*
X15354Y24027D1*
X15550Y25000D1*
Y30000D1*
X15354Y30973D1*
X14818Y31768D1*
X14023Y32304D1*
X13050Y32500D1*
X12077Y32304D1*
X11282Y31768D1*
X10746Y30973D1*
X10550Y30000D1*
Y25000D1*
G37*

G36*
X-2150Y25000D2*
X-1954Y24027D1*
X-1418Y23232D1*
X-623Y22696D1*
X350Y22500D1*
X1323Y22696D1*
X2118Y23232D1*
X2654Y24027D1*
X2850Y25000D1*
Y30000D1*
X2654Y30973D1*
X2118Y31768D1*
X1323Y32304D1*
X350Y32500D1*
X-623Y32304D1*
X-1418Y31768D1*
X-1954Y30973D1*
X-2150Y30000D1*
Y25000D1*
G37*

G36*
X-14850Y25000D2*
X-14654Y24027D1*
X-14118Y23232D1*
X-13323Y22696D1*
X-12350Y22500D1*
X-11377Y22696D1*
X-10582Y23232D1*
X-10046Y24027D1*
X-9850Y25000D1*
Y30000D1*
X-10046Y30973D1*
X-10582Y31768D1*
X-11377Y32304D1*
X-12350Y32500D1*
X-13323Y32304D1*
X-14118Y31768D1*
X-14654Y30973D1*
X-14850Y30000D1*
Y25000D1*
G37*

G36*
X-27550Y25000D2*
X-27354Y24027D1*
X-26818Y23232D1*
X-26023Y22696D1*
X-25050Y22500D1*
X-24077Y22696D1*
X-23282Y23232D1*
X-22746Y24027D1*
X-22550Y25000D1*
Y30000D1*
X-22746Y30973D1*
X-23282Y31768D1*
X-24077Y32304D1*
X-25050Y32500D1*
X-26023Y32304D1*
X-26818Y31768D1*
X-27354Y30973D1*
X-27550Y30000D1*
Y25000D1*
G37*

G36*
X44000Y31500D2*
X43707Y32207D1*
X43000Y32500D1*
X25500D1*
X24793Y32207D1*
X24500Y31500D1*
Y28500D1*
X24793Y27793D1*
X25500Y27500D1*
X43000D1*
X43707Y27793D1*
X44000Y28500D1*
Y31500D1*
G37*

G36*
X63500Y21500D2*
X63207Y22207D1*
X62500Y22500D1*
X45000D1*
X44293Y22207D1*
X44000Y21500D1*
Y18500D1*
X44293Y17793D1*
X45000Y17500D1*
X62500D1*
X63207Y17793D1*
X63500Y18500D1*
Y21500D1*
G37*

G36*
X44000Y11500D2*
X43707Y12207D1*
X43000Y12500D1*
X25500D1*
X24793Y12207D1*
X24500Y11500D1*
Y8500D1*
X24793Y7793D1*
X25500Y7500D1*
X43000D1*
X43707Y7793D1*
X44000Y8500D1*
Y11500D1*
G37*

G36*
X63500Y1500D2*
X63207Y2207D1*
X62500Y2500D1*
X45000D1*
X44293Y2207D1*
X44000Y1500D1*
Y-1500D1*
X44293Y-2207D1*
X45000Y-2500D1*
X62500D1*
X63207Y-2207D1*
X63500Y-1500D1*
Y1500D1*
G37*

G36*
X44000Y-8500D2*
X43707Y-7793D1*
X43000Y-7500D1*
X25500D1*
X24793Y-7793D1*
X24500Y-8500D1*
Y-11500D1*
X24793Y-12207D1*
X25500Y-12500D1*
X43000D1*
X43707Y-12207D1*
X44000Y-11500D1*
Y-8500D1*
G37*

G36*
X63500Y-18500D2*
X63207Y-17793D1*
X62500Y-17500D1*
X45000D1*
X44293Y-17793D1*
X44000Y-18500D1*
Y-21500D1*
X44293Y-22207D1*
X45000Y-22500D1*
X62500D1*
X63207Y-22207D1*
X63500Y-21500D1*
Y-18500D1*
G37*

G36*
X44000Y-28500D2*
X43707Y-27793D1*
X43000Y-27500D1*
X25500D1*
X24793Y-27793D1*
X24500Y-28500D1*
Y-31500D1*
X24793Y-32207D1*
X25500Y-32500D1*
X43000D1*
X43707Y-32207D1*
X44000Y-31500D1*
Y-28500D1*
G37*

M02*
