G75*
%FSLAX44Y44*%
%MOMM*%

G36*
X-12500Y7700D2*
X-12793Y8407D1*
X-13500Y8700D1*
X-18500Y8700D1*
X-19207Y8407D1*
X-19500Y7700D1*
X-19500Y7300D1*
X-19207Y6593D1*
X-18500Y6300D1*
X-13500Y6300D1*
X-12793Y6593D1*
X-12500Y7300D1*
X-12500Y7700D1*
G37*

G36*
X-12500Y2700D2*
X-12793Y3407D1*
X-13500Y3700D1*
X-18500Y3700D1*
X-19207Y3407D1*
X-19500Y2700D1*
X-19500Y2300D1*
X-19207Y1593D1*
X-18500Y1300D1*
X-13500Y1300D1*
X-12793Y1593D1*
X-12500Y2300D1*
X-12500Y2700D1*
G37*

G36*
X-12500Y-2300D2*
X-12793Y-1593D1*
X-13500Y-1300D1*
X-18500Y-1300D1*
X-19207Y-1593D1*
X-19500Y-2300D1*
X-19500Y-2700D1*
X-19207Y-3407D1*
X-18500Y-3700D1*
X-13500Y-3700D1*
X-12793Y-3407D1*
X-12500Y-2700D1*
X-12500Y-2300D1*
G37*

G36*
X-12500Y-7300D2*
X-12793Y-6593D1*
X-13500Y-6300D1*
X-18500Y-6300D1*
X-19207Y-6593D1*
X-19500Y-7300D1*
X-19500Y-7700D1*
X-19207Y-8407D1*
X-18500Y-8700D1*
X-13500Y-8700D1*
X-12793Y-8407D1*
X-12500Y-7700D1*
X-12500Y-7300D1*
G37*

G36*
X-7700Y-12500D2*
X-8407Y-12793D1*
X-8700Y-13500D1*
X-8700Y-18500D1*
X-8407Y-19207D1*
X-7700Y-19500D1*
X-7300Y-19500D1*
X-6593Y-19207D1*
X-6300Y-18500D1*
X-6300Y-13500D1*
X-6593Y-12793D1*
X-7300Y-12500D1*
X-7700Y-12500D1*
G37*

G36*
X-2700Y-12500D2*
X-3407Y-12793D1*
X-3700Y-13500D1*
X-3700Y-18500D1*
X-3407Y-19207D1*
X-2700Y-19500D1*
X-2300Y-19500D1*
X-1593Y-19207D1*
X-1300Y-18500D1*
X-1300Y-13500D1*
X-1593Y-12793D1*
X-2300Y-12500D1*
X-2700Y-12500D1*
G37*

G36*
X2300Y-12500D2*
X1593Y-12793D1*
X1300Y-13500D1*
X1300Y-18500D1*
X1593Y-19207D1*
X2300Y-19500D1*
X2700Y-19500D1*
X3407Y-19207D1*
X3700Y-18500D1*
X3700Y-13500D1*
X3407Y-12793D1*
X2700Y-12500D1*
X2300Y-12500D1*
G37*

G36*
X7300Y-12500D2*
X6593Y-12793D1*
X6300Y-13500D1*
X6300Y-18500D1*
X6593Y-19207D1*
X7300Y-19500D1*
X7700Y-19500D1*
X8407Y-19207D1*
X8700Y-18500D1*
X8700Y-13500D1*
X8407Y-12793D1*
X7700Y-12500D1*
X7300Y-12500D1*
G37*

G36*
X12500Y-7700D2*
X12793Y-8407D1*
X13500Y-8700D1*
X18500Y-8700D1*
X19207Y-8407D1*
X19500Y-7700D1*
X19500Y-7300D1*
X19207Y-6593D1*
X18500Y-6300D1*
X13500Y-6300D1*
X12793Y-6593D1*
X12500Y-7300D1*
X12500Y-7700D1*
G37*

G36*
X12500Y-2700D2*
X12793Y-3407D1*
X13500Y-3700D1*
X18500Y-3700D1*
X19207Y-3407D1*
X19500Y-2700D1*
X19500Y-2300D1*
X19207Y-1593D1*
X18500Y-1300D1*
X13500Y-1300D1*
X12793Y-1593D1*
X12500Y-2300D1*
X12500Y-2700D1*
G37*

G36*
X12500Y2300D2*
X12793Y1593D1*
X13500Y1300D1*
X18500Y1300D1*
X19207Y1593D1*
X19500Y2300D1*
X19500Y2700D1*
X19207Y3407D1*
X18500Y3700D1*
X13500Y3700D1*
X12793Y3407D1*
X12500Y2700D1*
X12500Y2300D1*
G37*

G36*
X12500Y7300D2*
X12793Y6593D1*
X13500Y6300D1*
X18500Y6300D1*
X19207Y6593D1*
X19500Y7300D1*
X19500Y7700D1*
X19207Y8407D1*
X18500Y8700D1*
X13500Y8700D1*
X12793Y8407D1*
X12500Y7700D1*
X12500Y7300D1*
G37*

G36*
X7700Y12500D2*
X8407Y12793D1*
X8700Y13500D1*
X8700Y18500D1*
X8407Y19207D1*
X7700Y19500D1*
X7300Y19500D1*
X6593Y19207D1*
X6300Y18500D1*
X6300Y13500D1*
X6593Y12793D1*
X7300Y12500D1*
X7700Y12500D1*
G37*

G36*
X2700Y12500D2*
X3407Y12793D1*
X3700Y13500D1*
X3700Y18500D1*
X3407Y19207D1*
X2700Y19500D1*
X2300Y19500D1*
X1593Y19207D1*
X1300Y18500D1*
X1300Y13500D1*
X1593Y12793D1*
X2300Y12500D1*
X2700Y12500D1*
G37*

G36*
X-2300Y12500D2*
X-1593Y12793D1*
X-1300Y13500D1*
X-1300Y18500D1*
X-1593Y19207D1*
X-2300Y19500D1*
X-2700Y19500D1*
X-3407Y19207D1*
X-3700Y18500D1*
X-3700Y13500D1*
X-3407Y12793D1*
X-2700Y12500D1*
X-2300Y12500D1*
G37*

G36*
X-7300Y12500D2*
X-6593Y12793D1*
X-6300Y13500D1*
X-6300Y18500D1*
X-6593Y19207D1*
X-7300Y19500D1*
X-7700Y19500D1*
X-8407Y19207D1*
X-8700Y18500D1*
X-8700Y13500D1*
X-8407Y12793D1*
X-7700Y12500D1*
X-7300Y12500D1*
G37*

G36*
X7500Y7500D2*
X7500Y-7500D1*
X-7500Y-7500D1*
X-7500Y7500D1*
X7500Y7500D1*
G37*

M02*
